%
M48
M72
T01C0.02362
T02C0.03150
T03C0.03200
T04C0.03937
T05C0.04000
T06C0.07480
%
T01
X21800Y21800
X66800Y86800
X96800Y66800
X106800Y76800
X151800Y76800
X151800Y86800
X166800Y106800
X161800Y126800
X151800Y136800
X146800Y146800
X171800Y166800
X186800Y156800
X181800Y181800
X41800Y161800
X26800Y166800
X101800Y31800
T02
X36879Y170501
X32154Y173650
X36879Y176800
X32154Y179950
X36879Y183099
X58926Y186800
X66800Y186800
X74674Y186800
T03
X86800Y141800
X86800Y131800
X86800Y121800
X86800Y111800
X86800Y101800
X86800Y91800
X86800Y81800
X86800Y71800
X86800Y61800
X86800Y51800
X86800Y41800
X86800Y31800
X86800Y21800
X86800Y11800
X61800Y21800
X61800Y31800
X46800Y46800
X31800Y31800
X21800Y31800
X6800Y46800
X116800Y41800
X116800Y31800
X116800Y21800
X116800Y11800
X146800Y26800
X146800Y41800
X151800Y61800
X131800Y61800
X116800Y61800
X116800Y51800
X116800Y71800
X116800Y81800
X116800Y91800
X116800Y101800
X116800Y111800
X116800Y121800
X116800Y131800
X116800Y141800
X126800Y156800
X126800Y166800
X116800Y166800
X106800Y166800
X96800Y166800
X111800Y186800
X116800Y194300
X121800Y186800
X141800Y176800
X141800Y166800
X161800Y166800
X166800Y156800
X136800Y141800
X136800Y131800
X161800Y186800
X186800Y41800
X186800Y26800
T04
X51052Y186800
X82548Y186800
T05
X6800Y136800
X6800Y126800
X6800Y116800
X6800Y106800
X6800Y96800
X6800Y86800
X6800Y76800
X6800Y66800
X61800Y61800
X61800Y51800
X61800Y71800
X136800Y11800
X156800Y11800
X171800Y11800
X191800Y11800
X194300Y66800
X194300Y76800
X194300Y86800
X194300Y96800
X194300Y106800
X194300Y116800
X194300Y126800
X194300Y136800
X194300Y146800
X194300Y156800
X194300Y166800
X194300Y176800
X194300Y186800
T06
X16800Y191170
X16800Y162430
M30
