G75*
%MOIN*%
%OFA0B0*%
%FSLAX25Y25*%
%IPPOS*%
%LPD*%
%AMOC8*
5,1,8,0,0,1.08239X$1,22.5*
%
%ADD10C,0.00000*%
%ADD11C,0.07400*%
%ADD12OC8,0.05200*%
%ADD13C,0.05200*%
%ADD14C,0.05150*%
%ADD15C,0.11220*%
%ADD16C,0.05200*%
%ADD17C,0.05937*%
%ADD18C,0.01600*%
%ADD19C,0.03562*%
%ADD20R,0.03562X0.03562*%
D10*
X0001800Y0001800D02*
X0001800Y0198650D01*
X0198650Y0198650D01*
X0198650Y0001800D01*
X0001800Y0001800D01*
D11*
X0061800Y0051800D03*
X0061800Y0061800D03*
X0061800Y0071800D03*
X0006800Y0066800D03*
X0006800Y0076800D03*
X0006800Y0086800D03*
X0006800Y0096800D03*
X0006800Y0106800D03*
X0006800Y0116800D03*
X0006800Y0126800D03*
X0006800Y0136800D03*
X0136800Y0011800D03*
X0156800Y0011800D03*
X0171800Y0011800D03*
X0191800Y0011800D03*
X0194300Y0066800D03*
X0194300Y0076800D03*
X0194300Y0086800D03*
X0194300Y0096800D03*
X0194300Y0106800D03*
X0194300Y0116800D03*
X0194300Y0126800D03*
X0194300Y0136800D03*
X0194300Y0146800D03*
X0194300Y0156800D03*
X0194300Y0166800D03*
X0194300Y0176800D03*
X0194300Y0186800D03*
D12*
X0166800Y0156800D03*
X0161800Y0166800D03*
X0141800Y0166800D03*
X0141800Y0176800D03*
X0126800Y0166800D03*
X0126800Y0156800D03*
X0116800Y0166800D03*
X0106800Y0166800D03*
X0096800Y0166800D03*
X0111800Y0186800D03*
X0116800Y0194300D03*
X0121800Y0186800D03*
X0136800Y0141800D03*
X0136800Y0131800D03*
X0151800Y0061800D03*
X0146800Y0041800D03*
X0146800Y0026800D03*
X0186800Y0026800D03*
X0186800Y0041800D03*
X0061800Y0031800D03*
X0061800Y0021800D03*
X0046800Y0046800D03*
X0031800Y0031800D03*
X0021800Y0031800D03*
X0006800Y0046800D03*
D13*
X0131800Y0061800D03*
X0161800Y0186800D03*
D14*
X0074674Y0186800D03*
X0066800Y0186800D03*
X0058926Y0186800D03*
X0036879Y0183099D03*
X0032154Y0179950D03*
X0036879Y0176800D03*
X0032154Y0173650D03*
X0036879Y0170501D03*
D15*
X0016800Y0162430D03*
X0016800Y0191170D03*
D16*
X0084200Y0141800D02*
X0089400Y0141800D01*
X0089400Y0131800D02*
X0084200Y0131800D01*
X0084200Y0121800D02*
X0089400Y0121800D01*
X0089400Y0111800D02*
X0084200Y0111800D01*
X0084200Y0101800D02*
X0089400Y0101800D01*
X0089400Y0091800D02*
X0084200Y0091800D01*
X0084200Y0081800D02*
X0089400Y0081800D01*
X0089400Y0071800D02*
X0084200Y0071800D01*
X0084200Y0061800D02*
X0089400Y0061800D01*
X0089400Y0051800D02*
X0084200Y0051800D01*
X0084200Y0041800D02*
X0089400Y0041800D01*
X0089400Y0031800D02*
X0084200Y0031800D01*
X0084200Y0021800D02*
X0089400Y0021800D01*
X0089400Y0011800D02*
X0084200Y0011800D01*
X0114200Y0011800D02*
X0119400Y0011800D01*
X0119400Y0021800D02*
X0114200Y0021800D01*
X0114200Y0031800D02*
X0119400Y0031800D01*
X0119400Y0041800D02*
X0114200Y0041800D01*
X0114200Y0051800D02*
X0119400Y0051800D01*
X0119400Y0061800D02*
X0114200Y0061800D01*
X0114200Y0071800D02*
X0119400Y0071800D01*
X0119400Y0081800D02*
X0114200Y0081800D01*
X0114200Y0091800D02*
X0119400Y0091800D01*
X0119400Y0101800D02*
X0114200Y0101800D01*
X0114200Y0111800D02*
X0119400Y0111800D01*
X0119400Y0121800D02*
X0114200Y0121800D01*
X0114200Y0131800D02*
X0119400Y0131800D01*
X0119400Y0141800D02*
X0114200Y0141800D01*
D17*
X0082548Y0186800D03*
X0051052Y0186800D03*
D18*
X0046513Y0188826D02*
X0024066Y0188826D01*
X0024410Y0189656D02*
X0023252Y0186859D01*
X0021111Y0184718D01*
X0018314Y0183560D01*
X0015286Y0183560D01*
X0012489Y0184718D01*
X0010348Y0186859D01*
X0009190Y0189656D01*
X0009190Y0192684D01*
X0010348Y0195481D01*
X0011518Y0196650D01*
X0003800Y0196650D01*
X0003800Y0141727D01*
X0005666Y0142500D01*
X0007934Y0142500D01*
X0010029Y0141632D01*
X0011632Y0140029D01*
X0011810Y0139600D01*
X0072357Y0139600D01*
X0073386Y0139174D01*
X0077960Y0134600D01*
X0080495Y0134600D01*
X0081594Y0135700D01*
X0083285Y0136400D01*
X0088240Y0136400D01*
X0087440Y0137200D01*
X0083285Y0137200D01*
X0081594Y0137900D01*
X0080300Y0139194D01*
X0079600Y0140885D01*
X0079600Y0142715D01*
X0080300Y0144406D01*
X0081594Y0145700D01*
X0083285Y0146400D01*
X0090315Y0146400D01*
X0092006Y0145700D01*
X0093300Y0144406D01*
X0094000Y0142715D01*
X0094000Y0140885D01*
X0093468Y0139600D01*
X0110132Y0139600D01*
X0109600Y0140885D01*
X0109600Y0142715D01*
X0110300Y0144406D01*
X0111594Y0145700D01*
X0113285Y0146400D01*
X0120315Y0146400D01*
X0122006Y0145700D01*
X0123105Y0144600D01*
X0125040Y0144600D01*
X0124426Y0145214D01*
X0120640Y0149000D01*
X0101243Y0149000D01*
X0100214Y0149426D01*
X0099426Y0150214D01*
X0094426Y0155214D01*
X0094000Y0156243D01*
X0094000Y0163095D01*
X0092200Y0164895D01*
X0092200Y0168705D01*
X0094895Y0171400D01*
X0098705Y0171400D01*
X0101400Y0168705D01*
X0101400Y0164895D01*
X0099600Y0163095D01*
X0099600Y0157960D01*
X0102960Y0154600D01*
X0122357Y0154600D01*
X0123075Y0154303D01*
X0122400Y0154977D01*
X0122400Y0156800D01*
X0126800Y0156800D01*
X0126800Y0156800D01*
X0126800Y0161200D01*
X0128623Y0161200D01*
X0131200Y0158623D01*
X0131200Y0156800D01*
X0126800Y0156800D01*
X0126800Y0156800D01*
X0126800Y0156800D01*
X0126800Y0161200D01*
X0124977Y0161200D01*
X0122400Y0158623D01*
X0122400Y0156800D01*
X0126800Y0156800D01*
X0131200Y0156800D01*
X0131200Y0154977D01*
X0128623Y0152400D01*
X0126800Y0152400D01*
X0126800Y0156800D01*
X0126800Y0156800D01*
X0126800Y0152400D01*
X0125160Y0152400D01*
X0127960Y0149600D01*
X0143209Y0149600D01*
X0144190Y0150581D01*
X0149410Y0150581D01*
X0150581Y0149410D01*
X0150581Y0144190D01*
X0149410Y0143019D01*
X0144190Y0143019D01*
X0143209Y0144000D01*
X0141105Y0144000D01*
X0141400Y0143705D01*
X0141400Y0139895D01*
X0141105Y0139600D01*
X0149253Y0139600D01*
X0149658Y0140005D01*
X0151048Y0140581D01*
X0152552Y0140581D01*
X0153942Y0140005D01*
X0154347Y0139600D01*
X0165640Y0139600D01*
X0175214Y0149174D01*
X0176243Y0149600D01*
X0189290Y0149600D01*
X0189468Y0150029D01*
X0191071Y0151632D01*
X0191476Y0151800D01*
X0191071Y0151968D01*
X0189468Y0153571D01*
X0189307Y0153960D01*
X0188942Y0153595D01*
X0187552Y0153019D01*
X0186048Y0153019D01*
X0184658Y0153595D01*
X0183595Y0154658D01*
X0183019Y0156048D01*
X0183019Y0156621D01*
X0175640Y0164000D01*
X0174347Y0164000D01*
X0173942Y0163595D01*
X0172552Y0163019D01*
X0171048Y0163019D01*
X0169658Y0163595D01*
X0168595Y0164658D01*
X0168019Y0166048D01*
X0168019Y0167552D01*
X0168595Y0168942D01*
X0169658Y0170005D01*
X0171048Y0170581D01*
X0172552Y0170581D01*
X0173942Y0170005D01*
X0174347Y0169600D01*
X0177357Y0169600D01*
X0178386Y0169174D01*
X0179174Y0168386D01*
X0179174Y0168386D01*
X0186979Y0160581D01*
X0187552Y0160581D01*
X0188942Y0160005D01*
X0189307Y0159640D01*
X0189468Y0160029D01*
X0191071Y0161632D01*
X0191764Y0161919D01*
X0191417Y0162096D01*
X0190717Y0162605D01*
X0190105Y0163217D01*
X0189596Y0163917D01*
X0189203Y0164689D01*
X0188935Y0165512D01*
X0188800Y0166367D01*
X0188800Y0166600D01*
X0194100Y0166600D01*
X0194100Y0167000D01*
X0188800Y0167000D01*
X0188800Y0167233D01*
X0188935Y0168088D01*
X0189203Y0168911D01*
X0189596Y0169683D01*
X0190105Y0170383D01*
X0190717Y0170995D01*
X0191417Y0171504D01*
X0191764Y0171681D01*
X0191071Y0171968D01*
X0189468Y0173571D01*
X0189290Y0174000D01*
X0186243Y0174000D01*
X0185214Y0174426D01*
X0184426Y0175214D01*
X0181621Y0178019D01*
X0181048Y0178019D01*
X0179658Y0178595D01*
X0178595Y0179658D01*
X0178019Y0181048D01*
X0178019Y0182552D01*
X0178595Y0183942D01*
X0179658Y0185005D01*
X0181048Y0185581D01*
X0182552Y0185581D01*
X0183942Y0185005D01*
X0185005Y0183942D01*
X0185581Y0182552D01*
X0185581Y0181979D01*
X0187960Y0179600D01*
X0189290Y0179600D01*
X0189468Y0180029D01*
X0191071Y0181632D01*
X0191476Y0181800D01*
X0191071Y0181968D01*
X0189468Y0183571D01*
X0188600Y0185666D01*
X0188600Y0187934D01*
X0189468Y0190029D01*
X0191071Y0191632D01*
X0193166Y0192500D01*
X0195434Y0192500D01*
X0196650Y0191996D01*
X0196650Y0196650D01*
X0120955Y0196650D01*
X0121400Y0196205D01*
X0121400Y0192395D01*
X0120405Y0191400D01*
X0123705Y0191400D01*
X0125505Y0189600D01*
X0158095Y0189600D01*
X0159194Y0190700D01*
X0160885Y0191400D01*
X0162715Y0191400D01*
X0164406Y0190700D01*
X0165700Y0189406D01*
X0166400Y0187715D01*
X0166400Y0185885D01*
X0165700Y0184194D01*
X0164406Y0182900D01*
X0162715Y0182200D01*
X0160885Y0182200D01*
X0159194Y0182900D01*
X0158095Y0184000D01*
X0144600Y0184000D01*
X0144600Y0180505D01*
X0146400Y0178705D01*
X0146400Y0174895D01*
X0143705Y0172200D01*
X0139895Y0172200D01*
X0137200Y0174895D01*
X0137200Y0178705D01*
X0139000Y0180505D01*
X0139000Y0184000D01*
X0125505Y0184000D01*
X0123705Y0182200D01*
X0119895Y0182200D01*
X0117200Y0184895D01*
X0117200Y0188705D01*
X0118195Y0189700D01*
X0115123Y0189700D01*
X0116200Y0188623D01*
X0116200Y0186800D01*
X0111800Y0186800D01*
X0111800Y0186800D01*
X0111800Y0186800D01*
X0111800Y0191200D01*
X0113395Y0191200D01*
X0112200Y0192395D01*
X0112200Y0196205D01*
X0112645Y0196650D01*
X0022082Y0196650D01*
X0023252Y0195481D01*
X0024410Y0192684D01*
X0024410Y0189656D01*
X0024410Y0190424D02*
X0047650Y0190424D01*
X0048238Y0191012D02*
X0046840Y0189614D01*
X0046083Y0187788D01*
X0046083Y0185812D01*
X0046840Y0183986D01*
X0048238Y0182588D01*
X0050064Y0181831D01*
X0052040Y0181831D01*
X0053866Y0182588D01*
X0055264Y0183986D01*
X0055266Y0183990D01*
X0056335Y0182922D01*
X0058016Y0182225D01*
X0059836Y0182225D01*
X0061517Y0182922D01*
X0062804Y0184209D01*
X0062863Y0184350D01*
X0062922Y0184209D01*
X0064209Y0182922D01*
X0065890Y0182225D01*
X0067710Y0182225D01*
X0069391Y0182922D01*
X0070678Y0184209D01*
X0070737Y0184350D01*
X0070796Y0184209D01*
X0072083Y0182922D01*
X0073764Y0182225D01*
X0075584Y0182225D01*
X0077265Y0182922D01*
X0078334Y0183990D01*
X0078336Y0183986D01*
X0079734Y0182588D01*
X0081560Y0181831D01*
X0083536Y0181831D01*
X0085362Y0182588D01*
X0086760Y0183986D01*
X0087517Y0185812D01*
X0087517Y0187788D01*
X0086760Y0189614D01*
X0085362Y0191012D01*
X0083536Y0191768D01*
X0081560Y0191768D01*
X0079734Y0191012D01*
X0078336Y0189614D01*
X0078334Y0189610D01*
X0077265Y0190678D01*
X0075584Y0191375D01*
X0073764Y0191375D01*
X0072083Y0190678D01*
X0070796Y0189391D01*
X0070737Y0189250D01*
X0070678Y0189391D01*
X0069391Y0190678D01*
X0067710Y0191375D01*
X0065890Y0191375D01*
X0064209Y0190678D01*
X0062922Y0189391D01*
X0062863Y0189250D01*
X0062804Y0189391D01*
X0061517Y0190678D01*
X0059836Y0191375D01*
X0058016Y0191375D01*
X0056335Y0190678D01*
X0055266Y0189610D01*
X0055264Y0189614D01*
X0053866Y0191012D01*
X0052040Y0191768D01*
X0050064Y0191768D01*
X0048238Y0191012D01*
X0046083Y0187227D02*
X0038867Y0187227D01*
X0039470Y0186978D02*
X0037789Y0187674D01*
X0035969Y0187674D01*
X0034287Y0186978D01*
X0033000Y0185691D01*
X0032517Y0184524D01*
X0031244Y0184524D01*
X0029563Y0183828D01*
X0028276Y0182541D01*
X0027580Y0180860D01*
X0027580Y0179040D01*
X0028276Y0177358D01*
X0028834Y0176800D01*
X0028276Y0176242D01*
X0027580Y0174560D01*
X0027580Y0172740D01*
X0028276Y0171059D01*
X0029563Y0169772D01*
X0029978Y0169600D01*
X0029347Y0169600D01*
X0028942Y0170005D01*
X0027552Y0170581D01*
X0026048Y0170581D01*
X0024658Y0170005D01*
X0023595Y0168942D01*
X0023019Y0167552D01*
X0023019Y0166973D01*
X0021111Y0168882D01*
X0018314Y0170040D01*
X0015286Y0170040D01*
X0012489Y0168882D01*
X0010348Y0166741D01*
X0009190Y0163944D01*
X0009190Y0160916D01*
X0010348Y0158119D01*
X0012489Y0155978D01*
X0015286Y0154820D01*
X0018314Y0154820D01*
X0021111Y0155978D01*
X0023252Y0158119D01*
X0024410Y0160916D01*
X0024410Y0163842D01*
X0024658Y0163595D01*
X0026048Y0163019D01*
X0027552Y0163019D01*
X0028942Y0163595D01*
X0029347Y0164000D01*
X0033516Y0164000D01*
X0033563Y0163952D01*
X0034592Y0163526D01*
X0036114Y0163526D01*
X0038019Y0161621D01*
X0038019Y0161048D01*
X0038595Y0159658D01*
X0039658Y0158595D01*
X0041048Y0158019D01*
X0042552Y0158019D01*
X0043942Y0158595D01*
X0045005Y0159658D01*
X0045581Y0161048D01*
X0045581Y0162552D01*
X0045005Y0163942D01*
X0043942Y0165005D01*
X0042552Y0165581D01*
X0041979Y0165581D01*
X0040062Y0167497D01*
X0040216Y0167651D01*
X0040620Y0168208D01*
X0040933Y0168821D01*
X0041146Y0169476D01*
X0041254Y0170156D01*
X0041254Y0170501D01*
X0041254Y0170845D01*
X0041146Y0171525D01*
X0040933Y0172180D01*
X0040620Y0172794D01*
X0040216Y0173351D01*
X0040057Y0173509D01*
X0040757Y0174209D01*
X0041454Y0175890D01*
X0041454Y0177710D01*
X0040757Y0179391D01*
X0040199Y0179950D01*
X0040757Y0180508D01*
X0041454Y0182189D01*
X0041454Y0184009D01*
X0040757Y0185691D01*
X0039470Y0186978D01*
X0040783Y0185629D02*
X0046159Y0185629D01*
X0046821Y0184030D02*
X0041445Y0184030D01*
X0041454Y0182432D02*
X0048614Y0182432D01*
X0053489Y0182432D02*
X0057517Y0182432D01*
X0060335Y0182432D02*
X0065391Y0182432D01*
X0063100Y0184030D02*
X0062626Y0184030D01*
X0068209Y0182432D02*
X0073265Y0182432D01*
X0070974Y0184030D02*
X0070500Y0184030D01*
X0076083Y0182432D02*
X0080111Y0182432D01*
X0084986Y0182432D02*
X0109946Y0182432D01*
X0109977Y0182400D02*
X0111800Y0182400D01*
X0113623Y0182400D01*
X0116200Y0184977D01*
X0116200Y0186800D01*
X0111800Y0186800D01*
X0111800Y0182400D01*
X0111800Y0186800D01*
X0111800Y0186800D01*
X0111800Y0186800D01*
X0107400Y0186800D01*
X0107400Y0188623D01*
X0109977Y0191200D01*
X0111800Y0191200D01*
X0111800Y0186800D01*
X0107400Y0186800D01*
X0107400Y0184977D01*
X0109977Y0182400D01*
X0111800Y0182432D02*
X0111800Y0182432D01*
X0111800Y0184030D02*
X0111800Y0184030D01*
X0111800Y0185629D02*
X0111800Y0185629D01*
X0111800Y0187227D02*
X0111800Y0187227D01*
X0111800Y0188826D02*
X0111800Y0188826D01*
X0111800Y0190424D02*
X0111800Y0190424D01*
X0112572Y0192023D02*
X0024410Y0192023D01*
X0024022Y0193621D02*
X0112200Y0193621D01*
X0112200Y0195220D02*
X0023360Y0195220D01*
X0023404Y0187227D02*
X0034890Y0187227D01*
X0032975Y0185629D02*
X0022021Y0185629D01*
X0019450Y0184030D02*
X0030051Y0184030D01*
X0028231Y0182432D02*
X0003800Y0182432D01*
X0003800Y0184030D02*
X0014150Y0184030D01*
X0011579Y0185629D02*
X0003800Y0185629D01*
X0003800Y0187227D02*
X0010196Y0187227D01*
X0009534Y0188826D02*
X0003800Y0188826D01*
X0003800Y0190424D02*
X0009190Y0190424D01*
X0009190Y0192023D02*
X0003800Y0192023D01*
X0003800Y0193621D02*
X0009578Y0193621D01*
X0010240Y0195220D02*
X0003800Y0195220D01*
X0003800Y0180833D02*
X0027580Y0180833D01*
X0027580Y0179235D02*
X0003800Y0179235D01*
X0003800Y0177636D02*
X0028161Y0177636D01*
X0028191Y0176038D02*
X0003800Y0176038D01*
X0003800Y0174439D02*
X0027580Y0174439D01*
X0027580Y0172841D02*
X0003800Y0172841D01*
X0003800Y0171242D02*
X0028200Y0171242D01*
X0029304Y0169644D02*
X0029873Y0169644D01*
X0026800Y0166800D02*
X0034675Y0166800D01*
X0035149Y0166326D01*
X0037274Y0166326D01*
X0041800Y0161800D01*
X0038431Y0160053D02*
X0024053Y0160053D01*
X0024410Y0161651D02*
X0037989Y0161651D01*
X0036391Y0163250D02*
X0028109Y0163250D01*
X0025491Y0163250D02*
X0024410Y0163250D01*
X0023223Y0168045D02*
X0021947Y0168045D01*
X0024296Y0169644D02*
X0019271Y0169644D01*
X0014329Y0169644D02*
X0003800Y0169644D01*
X0003800Y0168045D02*
X0011653Y0168045D01*
X0010227Y0166447D02*
X0003800Y0166447D01*
X0003800Y0164848D02*
X0009564Y0164848D01*
X0009190Y0163250D02*
X0003800Y0163250D01*
X0003800Y0161651D02*
X0009190Y0161651D01*
X0009547Y0160053D02*
X0003800Y0160053D01*
X0003800Y0158454D02*
X0010210Y0158454D01*
X0011612Y0156856D02*
X0003800Y0156856D01*
X0003800Y0155257D02*
X0014230Y0155257D01*
X0019370Y0155257D02*
X0094408Y0155257D01*
X0094000Y0156856D02*
X0021988Y0156856D01*
X0023390Y0158454D02*
X0039997Y0158454D01*
X0043603Y0158454D02*
X0094000Y0158454D01*
X0094000Y0160053D02*
X0045169Y0160053D01*
X0045581Y0161651D02*
X0094000Y0161651D01*
X0093845Y0163250D02*
X0045292Y0163250D01*
X0044099Y0164848D02*
X0092246Y0164848D01*
X0092200Y0166447D02*
X0041113Y0166447D01*
X0040502Y0168045D02*
X0092200Y0168045D01*
X0093138Y0169644D02*
X0041172Y0169644D01*
X0041254Y0170501D02*
X0036879Y0170501D01*
X0041254Y0170501D01*
X0041191Y0171242D02*
X0094737Y0171242D01*
X0098863Y0171242D02*
X0114737Y0171242D01*
X0114895Y0171400D02*
X0112200Y0168705D01*
X0112200Y0164895D01*
X0114895Y0162200D01*
X0118705Y0162200D01*
X0121400Y0164895D01*
X0121400Y0168705D01*
X0118705Y0171400D01*
X0114895Y0171400D01*
X0113138Y0169644D02*
X0110179Y0169644D01*
X0111200Y0168623D02*
X0108623Y0171200D01*
X0106800Y0171200D01*
X0106800Y0166800D01*
X0111200Y0166800D01*
X0111200Y0168623D01*
X0111200Y0168045D02*
X0112200Y0168045D01*
X0111200Y0166800D02*
X0106800Y0166800D01*
X0106800Y0166800D01*
X0106800Y0166800D01*
X0106800Y0162400D01*
X0108623Y0162400D01*
X0111200Y0164977D01*
X0111200Y0166800D01*
X0111200Y0166447D02*
X0112200Y0166447D01*
X0112246Y0164848D02*
X0111071Y0164848D01*
X0109472Y0163250D02*
X0113845Y0163250D01*
X0119755Y0163250D02*
X0123845Y0163250D01*
X0124895Y0162200D02*
X0128705Y0162200D01*
X0131400Y0164895D01*
X0131400Y0168705D01*
X0128705Y0171400D01*
X0124895Y0171400D01*
X0122200Y0168705D01*
X0122200Y0164895D01*
X0124895Y0162200D01*
X0123830Y0160053D02*
X0099600Y0160053D01*
X0099600Y0161651D02*
X0148392Y0161651D01*
X0144465Y0162960D02*
X0143705Y0162200D01*
X0139895Y0162200D01*
X0137200Y0164895D01*
X0137200Y0168705D01*
X0139895Y0171400D01*
X0143705Y0171400D01*
X0146400Y0168705D01*
X0146400Y0168218D01*
X0157254Y0164600D01*
X0157777Y0164600D01*
X0157400Y0164977D01*
X0157400Y0166800D01*
X0161800Y0166800D01*
X0161800Y0166800D01*
X0161800Y0171200D01*
X0163623Y0171200D01*
X0166200Y0168623D01*
X0166200Y0166800D01*
X0161800Y0166800D01*
X0161800Y0166800D01*
X0161800Y0166800D01*
X0161800Y0171200D01*
X0159977Y0171200D01*
X0157400Y0168623D01*
X0157400Y0166800D01*
X0161800Y0166800D01*
X0166200Y0166800D01*
X0166200Y0164977D01*
X0164391Y0163169D01*
X0166160Y0161400D01*
X0168705Y0161400D01*
X0171400Y0158705D01*
X0171400Y0154895D01*
X0168705Y0152200D01*
X0164895Y0152200D01*
X0162200Y0154895D01*
X0162200Y0157440D01*
X0160640Y0159000D01*
X0156899Y0159000D01*
X0156443Y0158968D01*
X0156346Y0159000D01*
X0156243Y0159000D01*
X0155820Y0159175D01*
X0144465Y0162960D01*
X0141800Y0166800D02*
X0156800Y0161800D01*
X0161800Y0161800D01*
X0166800Y0156800D01*
X0163436Y0153659D02*
X0129881Y0153659D01*
X0131200Y0155257D02*
X0162200Y0155257D01*
X0162200Y0156856D02*
X0131200Y0156856D01*
X0131200Y0158454D02*
X0161186Y0158454D01*
X0165909Y0161651D02*
X0177989Y0161651D01*
X0179588Y0160053D02*
X0170053Y0160053D01*
X0171400Y0158454D02*
X0181186Y0158454D01*
X0182785Y0156856D02*
X0171400Y0156856D01*
X0171400Y0155257D02*
X0183346Y0155257D01*
X0184594Y0153659D02*
X0170164Y0153659D01*
X0174903Y0148863D02*
X0150581Y0148863D01*
X0150581Y0147265D02*
X0173305Y0147265D01*
X0171706Y0145666D02*
X0150581Y0145666D01*
X0150458Y0144068D02*
X0170108Y0144068D01*
X0168509Y0142469D02*
X0141400Y0142469D01*
X0141400Y0140870D02*
X0166911Y0140870D01*
X0166800Y0136800D02*
X0151800Y0136800D01*
X0091800Y0136800D01*
X0086800Y0141800D01*
X0092039Y0145666D02*
X0111561Y0145666D01*
X0110160Y0144068D02*
X0093440Y0144068D01*
X0094000Y0142469D02*
X0109600Y0142469D01*
X0109606Y0140870D02*
X0093994Y0140870D01*
X0093468Y0134000D02*
X0110383Y0134000D01*
X0110122Y0133489D01*
X0109908Y0132830D01*
X0109800Y0132146D01*
X0109800Y0131800D01*
X0116800Y0131800D01*
X0123800Y0131800D01*
X0123800Y0132146D01*
X0123692Y0132830D01*
X0123478Y0133489D01*
X0123217Y0134000D01*
X0132777Y0134000D01*
X0132400Y0133623D01*
X0132400Y0131800D01*
X0136800Y0131800D01*
X0141200Y0131800D01*
X0141200Y0133623D01*
X0140823Y0134000D01*
X0149253Y0134000D01*
X0149658Y0133595D01*
X0151048Y0133019D01*
X0152552Y0133019D01*
X0153942Y0133595D01*
X0154347Y0134000D01*
X0167357Y0134000D01*
X0168386Y0134426D01*
X0169174Y0135214D01*
X0177960Y0144000D01*
X0189290Y0144000D01*
X0189468Y0143571D01*
X0191071Y0141968D01*
X0191476Y0141800D01*
X0191071Y0141632D01*
X0189468Y0140029D01*
X0189290Y0139600D01*
X0181243Y0139600D01*
X0180214Y0139174D01*
X0179426Y0138386D01*
X0165640Y0124600D01*
X0164947Y0124600D01*
X0165005Y0124658D01*
X0165581Y0126048D01*
X0165581Y0127552D01*
X0165005Y0128942D01*
X0163942Y0130005D01*
X0162552Y0130581D01*
X0161048Y0130581D01*
X0159658Y0130005D01*
X0159253Y0129600D01*
X0140823Y0129600D01*
X0141200Y0129977D01*
X0141200Y0131800D01*
X0136800Y0131800D01*
X0136800Y0131800D01*
X0136800Y0131800D01*
X0132400Y0131800D01*
X0132400Y0129977D01*
X0132777Y0129600D01*
X0123217Y0129600D01*
X0123478Y0130111D01*
X0123692Y0130770D01*
X0123800Y0131454D01*
X0123800Y0131800D01*
X0116800Y0131800D01*
X0116800Y0131800D01*
X0116800Y0131800D01*
X0109800Y0131800D01*
X0109800Y0131454D01*
X0109908Y0130770D01*
X0110122Y0130111D01*
X0110437Y0129494D01*
X0110564Y0129319D01*
X0110214Y0129174D01*
X0109426Y0128386D01*
X0095640Y0114600D01*
X0093105Y0114600D01*
X0092006Y0115700D01*
X0090315Y0116400D01*
X0083285Y0116400D01*
X0081594Y0115700D01*
X0080300Y0114406D01*
X0079600Y0112715D01*
X0079600Y0110885D01*
X0080300Y0109194D01*
X0081594Y0107900D01*
X0083285Y0107200D01*
X0090315Y0107200D01*
X0092006Y0107900D01*
X0093105Y0109000D01*
X0097357Y0109000D01*
X0098386Y0109426D01*
X0109672Y0120712D01*
X0110300Y0119194D01*
X0111594Y0117900D01*
X0113285Y0117200D01*
X0120315Y0117200D01*
X0122006Y0117900D01*
X0123105Y0119000D01*
X0167357Y0119000D01*
X0168386Y0119426D01*
X0169174Y0120214D01*
X0182960Y0134000D01*
X0189290Y0134000D01*
X0189468Y0133571D01*
X0191071Y0131968D01*
X0191476Y0131800D01*
X0191071Y0131632D01*
X0189468Y0130029D01*
X0189290Y0129600D01*
X0181243Y0129600D01*
X0180214Y0129174D01*
X0179426Y0128386D01*
X0165640Y0114600D01*
X0123105Y0114600D01*
X0122006Y0115700D01*
X0120315Y0116400D01*
X0113285Y0116400D01*
X0111594Y0115700D01*
X0110300Y0114406D01*
X0109600Y0112715D01*
X0109600Y0110885D01*
X0110132Y0109600D01*
X0101243Y0109600D01*
X0100214Y0109174D01*
X0099426Y0108386D01*
X0095640Y0104600D01*
X0093105Y0104600D01*
X0092006Y0105700D01*
X0090315Y0106400D01*
X0083285Y0106400D01*
X0081594Y0105700D01*
X0080300Y0104406D01*
X0079600Y0102715D01*
X0079600Y0100885D01*
X0080300Y0099194D01*
X0081594Y0097900D01*
X0083285Y0097200D01*
X0090315Y0097200D01*
X0092006Y0097900D01*
X0093105Y0099000D01*
X0097357Y0099000D01*
X0098386Y0099426D01*
X0102960Y0104000D01*
X0110132Y0104000D01*
X0109600Y0102715D01*
X0109600Y0100885D01*
X0110300Y0099194D01*
X0111594Y0097900D01*
X0113285Y0097200D01*
X0120315Y0097200D01*
X0122006Y0097900D01*
X0123105Y0099000D01*
X0172357Y0099000D01*
X0173386Y0099426D01*
X0187960Y0114000D01*
X0189290Y0114000D01*
X0189468Y0113571D01*
X0191071Y0111968D01*
X0191476Y0111800D01*
X0191071Y0111632D01*
X0189468Y0110029D01*
X0188600Y0107934D01*
X0188600Y0105666D01*
X0189468Y0103571D01*
X0191071Y0101968D01*
X0191476Y0101800D01*
X0191071Y0101632D01*
X0189468Y0100029D01*
X0188600Y0097934D01*
X0188600Y0095666D01*
X0189468Y0093571D01*
X0191071Y0091968D01*
X0191476Y0091800D01*
X0191071Y0091632D01*
X0189468Y0090029D01*
X0188600Y0087934D01*
X0188600Y0085666D01*
X0189468Y0083571D01*
X0191071Y0081968D01*
X0191476Y0081800D01*
X0191071Y0081632D01*
X0189468Y0080029D01*
X0189290Y0079600D01*
X0155391Y0079600D01*
X0154410Y0080581D01*
X0153316Y0080581D01*
X0154174Y0081439D01*
X0154600Y0082468D01*
X0154600Y0084253D01*
X0155005Y0084658D01*
X0155581Y0086048D01*
X0155581Y0087552D01*
X0155005Y0088942D01*
X0153942Y0090005D01*
X0152552Y0090581D01*
X0151048Y0090581D01*
X0149658Y0090005D01*
X0148595Y0088942D01*
X0148019Y0087552D01*
X0148019Y0086048D01*
X0148595Y0084658D01*
X0149000Y0084253D01*
X0149000Y0084185D01*
X0145845Y0081030D01*
X0145419Y0080001D01*
X0145419Y0079379D01*
X0140214Y0074174D01*
X0139426Y0073386D01*
X0139000Y0072357D01*
X0139000Y0061243D01*
X0139426Y0060214D01*
X0159426Y0040214D01*
X0160214Y0039426D01*
X0161243Y0039000D01*
X0183095Y0039000D01*
X0184895Y0037200D01*
X0188705Y0037200D01*
X0191400Y0039895D01*
X0191400Y0043705D01*
X0188705Y0046400D01*
X0184895Y0046400D01*
X0183095Y0044600D01*
X0162960Y0044600D01*
X0150160Y0057400D01*
X0151800Y0057400D01*
X0153623Y0057400D01*
X0156200Y0059977D01*
X0156200Y0061800D01*
X0156200Y0063623D01*
X0153623Y0066200D01*
X0151800Y0066200D01*
X0151800Y0061800D01*
X0151800Y0061800D01*
X0156200Y0061800D01*
X0151800Y0061800D01*
X0151800Y0061800D01*
X0151800Y0061800D01*
X0147400Y0061800D01*
X0147400Y0063623D01*
X0149977Y0066200D01*
X0151800Y0066200D01*
X0151800Y0061800D01*
X0151800Y0057400D01*
X0151800Y0061800D01*
X0151800Y0061800D01*
X0147400Y0061800D01*
X0147400Y0060160D01*
X0144600Y0062960D01*
X0144600Y0070640D01*
X0148085Y0074125D01*
X0149190Y0073019D01*
X0154410Y0073019D01*
X0155391Y0074000D01*
X0189290Y0074000D01*
X0189468Y0073571D01*
X0191071Y0071968D01*
X0191764Y0071681D01*
X0191417Y0071504D01*
X0190717Y0070995D01*
X0190105Y0070383D01*
X0189596Y0069683D01*
X0189203Y0068911D01*
X0188935Y0068088D01*
X0188800Y0067233D01*
X0188800Y0067000D01*
X0194100Y0067000D01*
X0194100Y0066600D01*
X0194500Y0066600D01*
X0194500Y0061300D01*
X0194733Y0061300D01*
X0195588Y0061435D01*
X0196411Y0061703D01*
X0196650Y0061825D01*
X0196650Y0014395D01*
X0196504Y0014683D01*
X0195995Y0015383D01*
X0195383Y0015995D01*
X0194683Y0016504D01*
X0193911Y0016897D01*
X0193088Y0017165D01*
X0192233Y0017300D01*
X0192000Y0017300D01*
X0192000Y0012000D01*
X0191600Y0012000D01*
X0191600Y0017300D01*
X0191367Y0017300D01*
X0190512Y0017165D01*
X0189689Y0016897D01*
X0188917Y0016504D01*
X0188217Y0015995D01*
X0187605Y0015383D01*
X0187096Y0014683D01*
X0186703Y0013911D01*
X0186435Y0013088D01*
X0186300Y0012233D01*
X0186300Y0012000D01*
X0191600Y0012000D01*
X0191600Y0011600D01*
X0192000Y0011600D01*
X0192000Y0006300D01*
X0192233Y0006300D01*
X0193088Y0006435D01*
X0193911Y0006703D01*
X0194683Y0007096D01*
X0195383Y0007605D01*
X0195995Y0008217D01*
X0196504Y0008917D01*
X0196650Y0009205D01*
X0196650Y0003800D01*
X0003800Y0003800D01*
X0003800Y0043577D01*
X0004977Y0042400D01*
X0006800Y0042400D01*
X0008623Y0042400D01*
X0011200Y0044977D01*
X0011200Y0046800D01*
X0011200Y0048623D01*
X0008623Y0051200D01*
X0006800Y0051200D01*
X0006800Y0046800D01*
X0006800Y0046800D01*
X0011200Y0046800D01*
X0006800Y0046800D01*
X0006800Y0046800D01*
X0006800Y0051200D01*
X0004977Y0051200D01*
X0003800Y0050023D01*
X0003800Y0062181D01*
X0003917Y0062096D01*
X0004689Y0061703D01*
X0005512Y0061435D01*
X0006367Y0061300D01*
X0006600Y0061300D01*
X0006600Y0066600D01*
X0007000Y0066600D01*
X0007000Y0067000D01*
X0012300Y0067000D01*
X0012300Y0067233D01*
X0012165Y0068088D01*
X0011897Y0068911D01*
X0011504Y0069683D01*
X0010995Y0070383D01*
X0010383Y0070995D01*
X0009683Y0071504D01*
X0009336Y0071681D01*
X0010029Y0071968D01*
X0011632Y0073571D01*
X0012500Y0075666D01*
X0012500Y0077934D01*
X0011632Y0080029D01*
X0010029Y0081632D01*
X0009624Y0081800D01*
X0010029Y0081968D01*
X0011632Y0083571D01*
X0012500Y0085666D01*
X0012500Y0087140D01*
X0048240Y0051400D01*
X0044895Y0051400D01*
X0042200Y0048705D01*
X0042200Y0046160D01*
X0035640Y0039600D01*
X0026243Y0039600D01*
X0025214Y0039174D01*
X0024426Y0038386D01*
X0022440Y0036400D01*
X0019895Y0036400D01*
X0017200Y0033705D01*
X0017200Y0029895D01*
X0019895Y0027200D01*
X0023705Y0027200D01*
X0026400Y0029895D01*
X0026400Y0032440D01*
X0027200Y0033240D01*
X0027200Y0029895D01*
X0029895Y0027200D01*
X0033705Y0027200D01*
X0035505Y0029000D01*
X0052357Y0029000D01*
X0053386Y0029426D01*
X0057200Y0033240D01*
X0057200Y0029895D01*
X0059895Y0027200D01*
X0063705Y0027200D01*
X0066400Y0029895D01*
X0066400Y0033240D01*
X0069426Y0030214D01*
X0070214Y0029426D01*
X0071243Y0029000D01*
X0080495Y0029000D01*
X0081594Y0027900D01*
X0083285Y0027200D01*
X0090315Y0027200D01*
X0092006Y0027900D01*
X0093300Y0029194D01*
X0094000Y0030885D01*
X0094000Y0032715D01*
X0093300Y0034406D01*
X0092006Y0035700D01*
X0090315Y0036400D01*
X0083285Y0036400D01*
X0081594Y0035700D01*
X0080495Y0034600D01*
X0072960Y0034600D01*
X0068560Y0039000D01*
X0080495Y0039000D01*
X0081594Y0037900D01*
X0083285Y0037200D01*
X0090315Y0037200D01*
X0092006Y0037900D01*
X0093105Y0039000D01*
X0097100Y0039000D01*
X0100674Y0035426D01*
X0099658Y0035005D01*
X0098595Y0033942D01*
X0098019Y0032552D01*
X0098019Y0031048D01*
X0098595Y0029658D01*
X0099000Y0029253D01*
X0099000Y0016243D01*
X0099426Y0015214D01*
X0100214Y0014426D01*
X0105214Y0009426D01*
X0106243Y0009000D01*
X0110495Y0009000D01*
X0111594Y0007900D01*
X0113285Y0007200D01*
X0120315Y0007200D01*
X0122006Y0007900D01*
X0123300Y0009194D01*
X0124000Y0010885D01*
X0124000Y0012715D01*
X0123300Y0014406D01*
X0122006Y0015700D01*
X0120315Y0016400D01*
X0113285Y0016400D01*
X0111594Y0015700D01*
X0110495Y0014600D01*
X0107960Y0014600D01*
X0104600Y0017960D01*
X0104600Y0029253D01*
X0105005Y0029658D01*
X0105426Y0030674D01*
X0110874Y0025226D01*
X0111049Y0025154D01*
X0110300Y0024406D01*
X0109600Y0022715D01*
X0109600Y0020885D01*
X0110300Y0019194D01*
X0111594Y0017900D01*
X0113285Y0017200D01*
X0120315Y0017200D01*
X0122006Y0017900D01*
X0123300Y0019194D01*
X0124000Y0020885D01*
X0124000Y0022715D01*
X0123468Y0024000D01*
X0143095Y0024000D01*
X0144895Y0022200D01*
X0148705Y0022200D01*
X0151400Y0024895D01*
X0151400Y0028705D01*
X0148705Y0031400D01*
X0144895Y0031400D01*
X0143095Y0029600D01*
X0123468Y0029600D01*
X0124000Y0030885D01*
X0124000Y0032715D01*
X0123300Y0034406D01*
X0122006Y0035700D01*
X0120315Y0036400D01*
X0113285Y0036400D01*
X0111594Y0035700D01*
X0110300Y0034406D01*
X0110099Y0033921D01*
X0099846Y0044174D01*
X0098817Y0044600D01*
X0093105Y0044600D01*
X0092006Y0045700D01*
X0090315Y0046400D01*
X0083285Y0046400D01*
X0081594Y0045700D01*
X0080495Y0044600D01*
X0062960Y0044600D01*
X0061460Y0046100D01*
X0062934Y0046100D01*
X0065029Y0046968D01*
X0066632Y0048571D01*
X0066810Y0049000D01*
X0080495Y0049000D01*
X0081594Y0047900D01*
X0083285Y0047200D01*
X0090315Y0047200D01*
X0092006Y0047900D01*
X0093300Y0049194D01*
X0094000Y0050885D01*
X0094000Y0052715D01*
X0093300Y0054406D01*
X0092006Y0055700D01*
X0090315Y0056400D01*
X0083285Y0056400D01*
X0081594Y0055700D01*
X0080495Y0054600D01*
X0066810Y0054600D01*
X0066632Y0055029D01*
X0065029Y0056632D01*
X0064336Y0056919D01*
X0064683Y0057096D01*
X0065383Y0057605D01*
X0065995Y0058217D01*
X0066504Y0058917D01*
X0066897Y0059689D01*
X0067165Y0060512D01*
X0067300Y0061367D01*
X0067300Y0061600D01*
X0062000Y0061600D01*
X0062000Y0062000D01*
X0067300Y0062000D01*
X0067300Y0062233D01*
X0067165Y0063088D01*
X0066897Y0063911D01*
X0066504Y0064683D01*
X0065995Y0065383D01*
X0065383Y0065995D01*
X0064683Y0066504D01*
X0064336Y0066681D01*
X0065029Y0066968D01*
X0066351Y0068290D01*
X0074426Y0060214D01*
X0075214Y0059426D01*
X0076243Y0059000D01*
X0080495Y0059000D01*
X0081594Y0057900D01*
X0083285Y0057200D01*
X0090315Y0057200D01*
X0092006Y0057900D01*
X0093300Y0059194D01*
X0094000Y0060885D01*
X0094000Y0062715D01*
X0093300Y0064406D01*
X0092006Y0065700D01*
X0090315Y0066400D01*
X0083285Y0066400D01*
X0081594Y0065700D01*
X0080495Y0064600D01*
X0077960Y0064600D01*
X0068386Y0074174D01*
X0067357Y0074600D01*
X0066810Y0074600D01*
X0066632Y0075029D01*
X0065029Y0076632D01*
X0062934Y0077500D01*
X0060666Y0077500D01*
X0058571Y0076632D01*
X0056968Y0075029D01*
X0056100Y0072934D01*
X0056100Y0070666D01*
X0056968Y0068571D01*
X0058571Y0066968D01*
X0059264Y0066681D01*
X0058917Y0066504D01*
X0058217Y0065995D01*
X0057605Y0065383D01*
X0057096Y0064683D01*
X0056703Y0063911D01*
X0056435Y0063088D01*
X0056300Y0062233D01*
X0056300Y0062000D01*
X0061600Y0062000D01*
X0061600Y0061600D01*
X0056300Y0061600D01*
X0056300Y0061367D01*
X0056435Y0060512D01*
X0056703Y0059689D01*
X0057096Y0058917D01*
X0057605Y0058217D01*
X0058217Y0057605D01*
X0058917Y0057096D01*
X0059264Y0056919D01*
X0058571Y0056632D01*
X0056968Y0055029D01*
X0056100Y0052934D01*
X0056100Y0051460D01*
X0012322Y0095237D01*
X0012500Y0095666D01*
X0012500Y0097934D01*
X0011632Y0100029D01*
X0010029Y0101632D01*
X0009624Y0101800D01*
X0010029Y0101968D01*
X0011632Y0103571D01*
X0011810Y0104000D01*
X0035640Y0104000D01*
X0059426Y0080214D01*
X0060214Y0079426D01*
X0061243Y0079000D01*
X0080495Y0079000D01*
X0081594Y0077900D01*
X0083285Y0077200D01*
X0090315Y0077200D01*
X0092006Y0077900D01*
X0093300Y0079194D01*
X0094000Y0080885D01*
X0094000Y0082715D01*
X0093468Y0084000D01*
X0110132Y0084000D01*
X0109600Y0082715D01*
X0109600Y0080885D01*
X0110300Y0079194D01*
X0111594Y0077900D01*
X0113285Y0077200D01*
X0120315Y0077200D01*
X0122006Y0077900D01*
X0123300Y0079194D01*
X0124000Y0080885D01*
X0124000Y0082715D01*
X0123300Y0084406D01*
X0122006Y0085700D01*
X0120315Y0086400D01*
X0116160Y0086400D01*
X0115360Y0087200D01*
X0120315Y0087200D01*
X0122006Y0087900D01*
X0123300Y0089194D01*
X0124000Y0090885D01*
X0124000Y0092715D01*
X0123300Y0094406D01*
X0122006Y0095700D01*
X0120315Y0096400D01*
X0113285Y0096400D01*
X0111594Y0095700D01*
X0110300Y0094406D01*
X0109600Y0092715D01*
X0109600Y0090885D01*
X0110132Y0089600D01*
X0093468Y0089600D01*
X0094000Y0090885D01*
X0094000Y0092715D01*
X0093300Y0094406D01*
X0092006Y0095700D01*
X0090315Y0096400D01*
X0083285Y0096400D01*
X0081594Y0095700D01*
X0080495Y0094600D01*
X0057960Y0094600D01*
X0033386Y0119174D01*
X0032357Y0119600D01*
X0011810Y0119600D01*
X0011632Y0120029D01*
X0010029Y0121632D01*
X0009624Y0121800D01*
X0010029Y0121968D01*
X0011632Y0123571D01*
X0011810Y0124000D01*
X0070640Y0124000D01*
X0074426Y0120214D01*
X0075214Y0119426D01*
X0076243Y0119000D01*
X0080495Y0119000D01*
X0081594Y0117900D01*
X0083285Y0117200D01*
X0090315Y0117200D01*
X0092006Y0117900D01*
X0093300Y0119194D01*
X0094000Y0120885D01*
X0094000Y0122715D01*
X0093300Y0124406D01*
X0092006Y0125700D01*
X0090315Y0126400D01*
X0083285Y0126400D01*
X0081594Y0125700D01*
X0080495Y0124600D01*
X0077960Y0124600D01*
X0074174Y0128386D01*
X0073386Y0129174D01*
X0072357Y0129600D01*
X0011810Y0129600D01*
X0011632Y0130029D01*
X0010029Y0131632D01*
X0009624Y0131800D01*
X0010029Y0131968D01*
X0011632Y0133571D01*
X0011810Y0134000D01*
X0070640Y0134000D01*
X0074426Y0130214D01*
X0075214Y0129426D01*
X0076243Y0129000D01*
X0080495Y0129000D01*
X0081594Y0127900D01*
X0083285Y0127200D01*
X0090315Y0127200D01*
X0092006Y0127900D01*
X0093300Y0129194D01*
X0094000Y0130885D01*
X0094000Y0132715D01*
X0093468Y0134000D01*
X0093933Y0132878D02*
X0109924Y0132878D01*
X0109828Y0131279D02*
X0094000Y0131279D01*
X0093501Y0129681D02*
X0110341Y0129681D01*
X0109123Y0128082D02*
X0092188Y0128082D01*
X0092820Y0124885D02*
X0105926Y0124885D01*
X0107524Y0126484D02*
X0076076Y0126484D01*
X0074477Y0128082D02*
X0081412Y0128082D01*
X0080780Y0124885D02*
X0077674Y0124885D01*
X0076800Y0121800D02*
X0086800Y0121800D01*
X0092597Y0118491D02*
X0099532Y0118491D01*
X0101130Y0120090D02*
X0093671Y0120090D01*
X0094000Y0121688D02*
X0102729Y0121688D01*
X0104327Y0123287D02*
X0093763Y0123287D01*
X0097933Y0116893D02*
X0035667Y0116893D01*
X0034068Y0118491D02*
X0081003Y0118491D01*
X0081189Y0115294D02*
X0037265Y0115294D01*
X0038864Y0113696D02*
X0080006Y0113696D01*
X0079600Y0112097D02*
X0040463Y0112097D01*
X0042061Y0110499D02*
X0079760Y0110499D01*
X0080594Y0108900D02*
X0043660Y0108900D01*
X0045258Y0107302D02*
X0083039Y0107302D01*
X0081603Y0105703D02*
X0046857Y0105703D01*
X0048455Y0104105D02*
X0080176Y0104105D01*
X0079600Y0102506D02*
X0050054Y0102506D01*
X0051652Y0100908D02*
X0079600Y0100908D01*
X0080253Y0099309D02*
X0053251Y0099309D01*
X0054849Y0097711D02*
X0082052Y0097711D01*
X0082590Y0096112D02*
X0056448Y0096112D01*
X0056800Y0091800D02*
X0086800Y0091800D01*
X0091010Y0096112D02*
X0112590Y0096112D01*
X0112052Y0097711D02*
X0091548Y0097711D01*
X0093192Y0094514D02*
X0110408Y0094514D01*
X0109683Y0092915D02*
X0093917Y0092915D01*
X0094000Y0091317D02*
X0109600Y0091317D01*
X0110083Y0089718D02*
X0093517Y0089718D01*
X0093748Y0083324D02*
X0109852Y0083324D01*
X0109600Y0081726D02*
X0094000Y0081726D01*
X0093686Y0080127D02*
X0104952Y0080127D01*
X0104658Y0080005D02*
X0103595Y0078942D01*
X0103019Y0077552D01*
X0103019Y0076979D01*
X0096621Y0070581D01*
X0096048Y0070581D01*
X0094658Y0070005D01*
X0093595Y0068942D01*
X0093019Y0067552D01*
X0093019Y0066048D01*
X0093595Y0064658D01*
X0094658Y0063595D01*
X0096048Y0063019D01*
X0097552Y0063019D01*
X0098942Y0063595D01*
X0100005Y0064658D01*
X0100581Y0066048D01*
X0100581Y0066621D01*
X0106979Y0073019D01*
X0107552Y0073019D01*
X0108942Y0073595D01*
X0110005Y0074658D01*
X0110581Y0076048D01*
X0110581Y0077552D01*
X0110005Y0078942D01*
X0108942Y0080005D01*
X0107552Y0080581D01*
X0106048Y0080581D01*
X0104658Y0080005D01*
X0103423Y0078529D02*
X0092634Y0078529D01*
X0091089Y0075878D02*
X0090430Y0076092D01*
X0089746Y0076200D01*
X0086800Y0076200D01*
X0086800Y0071800D01*
X0086800Y0071800D01*
X0093800Y0071800D01*
X0093800Y0072146D01*
X0093692Y0072830D01*
X0093478Y0073489D01*
X0093163Y0074106D01*
X0092756Y0074666D01*
X0092266Y0075156D01*
X0091706Y0075563D01*
X0091089Y0075878D01*
X0092025Y0075332D02*
X0101372Y0075332D01*
X0102970Y0076930D02*
X0064310Y0076930D01*
X0066329Y0075332D02*
X0081575Y0075332D01*
X0081334Y0075156D02*
X0080844Y0074666D01*
X0080437Y0074106D01*
X0080122Y0073489D01*
X0079908Y0072830D01*
X0079800Y0072146D01*
X0079800Y0071800D01*
X0086800Y0071800D01*
X0086800Y0071800D01*
X0086800Y0067400D01*
X0089746Y0067400D01*
X0090430Y0067508D01*
X0091089Y0067722D01*
X0091706Y0068037D01*
X0092266Y0068444D01*
X0092756Y0068934D01*
X0093163Y0069494D01*
X0093478Y0070111D01*
X0093692Y0070770D01*
X0093800Y0071454D01*
X0093800Y0071800D01*
X0086800Y0071800D01*
X0086800Y0071800D01*
X0086800Y0071800D01*
X0086800Y0076200D01*
X0083854Y0076200D01*
X0083170Y0076092D01*
X0082511Y0075878D01*
X0081894Y0075563D01*
X0081334Y0075156D01*
X0080247Y0073733D02*
X0068827Y0073733D01*
X0070425Y0072134D02*
X0079800Y0072134D01*
X0079800Y0071800D02*
X0079800Y0071454D01*
X0079908Y0070770D01*
X0080122Y0070111D01*
X0080437Y0069494D01*
X0080844Y0068934D01*
X0081334Y0068444D01*
X0081894Y0068037D01*
X0082511Y0067722D01*
X0083170Y0067508D01*
X0083854Y0067400D01*
X0086800Y0067400D01*
X0086800Y0071800D01*
X0079800Y0071800D01*
X0079984Y0070536D02*
X0072024Y0070536D01*
X0073622Y0068937D02*
X0080841Y0068937D01*
X0081693Y0065740D02*
X0076819Y0065740D01*
X0075221Y0067339D02*
X0093019Y0067339D01*
X0093146Y0065740D02*
X0091907Y0065740D01*
X0093409Y0064142D02*
X0094111Y0064142D01*
X0094000Y0062543D02*
X0109600Y0062543D01*
X0109600Y0062715D02*
X0109600Y0060885D01*
X0110300Y0059194D01*
X0111594Y0057900D01*
X0113285Y0057200D01*
X0120315Y0057200D01*
X0122006Y0057900D01*
X0123105Y0059000D01*
X0128095Y0059000D01*
X0129194Y0057900D01*
X0130885Y0057200D01*
X0132715Y0057200D01*
X0134406Y0057900D01*
X0135700Y0059194D01*
X0136400Y0060885D01*
X0136400Y0062715D01*
X0135700Y0064406D01*
X0134406Y0065700D01*
X0132715Y0066400D01*
X0130885Y0066400D01*
X0129194Y0065700D01*
X0128095Y0064600D01*
X0123105Y0064600D01*
X0122006Y0065700D01*
X0120315Y0066400D01*
X0113285Y0066400D01*
X0111594Y0065700D01*
X0110300Y0064406D01*
X0109600Y0062715D01*
X0110191Y0064142D02*
X0099489Y0064142D01*
X0100454Y0065740D02*
X0111693Y0065740D01*
X0112949Y0067339D02*
X0101299Y0067339D01*
X0102897Y0068937D02*
X0110557Y0068937D01*
X0110300Y0069194D02*
X0111594Y0067900D01*
X0113285Y0067200D01*
X0120315Y0067200D01*
X0122006Y0067900D01*
X0123300Y0069194D01*
X0124000Y0070885D01*
X0124000Y0072715D01*
X0123300Y0074406D01*
X0122006Y0075700D01*
X0120315Y0076400D01*
X0113285Y0076400D01*
X0111594Y0075700D01*
X0110300Y0074406D01*
X0109600Y0072715D01*
X0109600Y0070885D01*
X0110300Y0069194D01*
X0109745Y0070536D02*
X0104496Y0070536D01*
X0106094Y0072134D02*
X0109600Y0072134D01*
X0110022Y0073733D02*
X0109080Y0073733D01*
X0110284Y0075332D02*
X0111226Y0075332D01*
X0110581Y0076930D02*
X0142970Y0076930D01*
X0141372Y0075332D02*
X0122374Y0075332D01*
X0123578Y0073733D02*
X0139773Y0073733D01*
X0139000Y0072134D02*
X0124000Y0072134D01*
X0123855Y0070536D02*
X0139000Y0070536D01*
X0139000Y0068937D02*
X0123043Y0068937D01*
X0120650Y0067339D02*
X0139000Y0067339D01*
X0139000Y0065740D02*
X0134307Y0065740D01*
X0135809Y0064142D02*
X0139000Y0064142D01*
X0139000Y0062543D02*
X0136400Y0062543D01*
X0136400Y0060945D02*
X0139123Y0060945D01*
X0140294Y0059346D02*
X0135763Y0059346D01*
X0134038Y0057748D02*
X0141892Y0057748D01*
X0143491Y0056149D02*
X0120066Y0056149D01*
X0119746Y0056200D02*
X0116800Y0056200D01*
X0116800Y0051800D01*
X0116800Y0051800D01*
X0123800Y0051800D01*
X0123800Y0052146D01*
X0123692Y0052830D01*
X0123478Y0053489D01*
X0123163Y0054106D01*
X0122756Y0054666D01*
X0122266Y0055156D01*
X0121706Y0055563D01*
X0121089Y0055878D01*
X0120430Y0056092D01*
X0119746Y0056200D01*
X0121638Y0057748D02*
X0129562Y0057748D01*
X0131800Y0061800D02*
X0116800Y0061800D01*
X0121907Y0065740D02*
X0129293Y0065740D01*
X0122840Y0054551D02*
X0145089Y0054551D01*
X0146688Y0052952D02*
X0123652Y0052952D01*
X0123800Y0051800D02*
X0116800Y0051800D01*
X0116800Y0051800D01*
X0116800Y0047400D01*
X0119746Y0047400D01*
X0120430Y0047508D01*
X0121089Y0047722D01*
X0121706Y0048037D01*
X0122266Y0048444D01*
X0122756Y0048934D01*
X0123163Y0049494D01*
X0123478Y0050111D01*
X0123692Y0050770D01*
X0123800Y0051454D01*
X0123800Y0051800D01*
X0123784Y0051354D02*
X0148286Y0051354D01*
X0149885Y0049755D02*
X0123296Y0049755D01*
X0121871Y0048157D02*
X0151483Y0048157D01*
X0153082Y0046558D02*
X0064040Y0046558D01*
X0062600Y0044960D02*
X0080854Y0044960D01*
X0081338Y0048157D02*
X0066218Y0048157D01*
X0061800Y0051800D02*
X0086800Y0051800D01*
X0082680Y0056149D02*
X0065512Y0056149D01*
X0065526Y0057748D02*
X0081962Y0057748D01*
X0086800Y0061800D02*
X0076800Y0061800D01*
X0066800Y0071800D01*
X0061800Y0071800D01*
X0056431Y0073733D02*
X0033827Y0073733D01*
X0035425Y0072134D02*
X0056100Y0072134D01*
X0056154Y0070536D02*
X0037024Y0070536D01*
X0038622Y0068937D02*
X0056816Y0068937D01*
X0058200Y0067339D02*
X0040221Y0067339D01*
X0041819Y0065740D02*
X0057962Y0065740D01*
X0056820Y0064142D02*
X0043418Y0064142D01*
X0045016Y0062543D02*
X0056349Y0062543D01*
X0056367Y0060945D02*
X0046615Y0060945D01*
X0048213Y0059346D02*
X0056877Y0059346D01*
X0058074Y0057748D02*
X0049812Y0057748D01*
X0051410Y0056149D02*
X0058088Y0056149D01*
X0056770Y0054551D02*
X0053009Y0054551D01*
X0054607Y0052952D02*
X0056108Y0052952D01*
X0046688Y0052952D02*
X0003800Y0052952D01*
X0003800Y0051354D02*
X0044848Y0051354D01*
X0043250Y0049755D02*
X0010067Y0049755D01*
X0011200Y0048157D02*
X0042200Y0048157D01*
X0042200Y0046558D02*
X0011200Y0046558D01*
X0011182Y0044960D02*
X0041000Y0044960D01*
X0039402Y0043361D02*
X0009584Y0043361D01*
X0006800Y0043361D02*
X0006800Y0043361D01*
X0006800Y0042400D02*
X0006800Y0046800D01*
X0006800Y0046800D01*
X0006800Y0042400D01*
X0006800Y0044960D02*
X0006800Y0044960D01*
X0006800Y0046558D02*
X0006800Y0046558D01*
X0006800Y0048157D02*
X0006800Y0048157D01*
X0006800Y0049755D02*
X0006800Y0049755D01*
X0003800Y0054551D02*
X0045089Y0054551D01*
X0043491Y0056149D02*
X0003800Y0056149D01*
X0003800Y0057748D02*
X0041892Y0057748D01*
X0040294Y0059346D02*
X0003800Y0059346D01*
X0003800Y0060945D02*
X0038695Y0060945D01*
X0037097Y0062543D02*
X0010298Y0062543D01*
X0010383Y0062605D02*
X0010995Y0063217D01*
X0011504Y0063917D01*
X0011897Y0064689D01*
X0012165Y0065512D01*
X0012300Y0066367D01*
X0012300Y0066600D01*
X0007000Y0066600D01*
X0007000Y0061300D01*
X0007233Y0061300D01*
X0008088Y0061435D01*
X0008911Y0061703D01*
X0009683Y0062096D01*
X0010383Y0062605D01*
X0011618Y0064142D02*
X0035498Y0064142D01*
X0033900Y0065740D02*
X0012201Y0065740D01*
X0012283Y0067339D02*
X0032301Y0067339D01*
X0030703Y0068937D02*
X0011884Y0068937D01*
X0010842Y0070536D02*
X0029104Y0070536D01*
X0027506Y0072134D02*
X0010196Y0072134D01*
X0011699Y0073733D02*
X0025907Y0073733D01*
X0024309Y0075332D02*
X0012361Y0075332D01*
X0012500Y0076930D02*
X0022710Y0076930D01*
X0021112Y0078529D02*
X0012254Y0078529D01*
X0011534Y0080127D02*
X0019513Y0080127D01*
X0017915Y0081726D02*
X0009803Y0081726D01*
X0011385Y0083324D02*
X0016316Y0083324D01*
X0014718Y0084923D02*
X0012192Y0084923D01*
X0012500Y0086521D02*
X0013119Y0086521D01*
X0017842Y0089718D02*
X0049922Y0089718D01*
X0051521Y0088120D02*
X0019440Y0088120D01*
X0021039Y0086521D02*
X0053119Y0086521D01*
X0054718Y0084923D02*
X0022637Y0084923D01*
X0024236Y0083324D02*
X0056316Y0083324D01*
X0057915Y0081726D02*
X0025834Y0081726D01*
X0027433Y0080127D02*
X0059513Y0080127D01*
X0061800Y0081800D02*
X0086800Y0081800D01*
X0086800Y0075332D02*
X0086800Y0075332D01*
X0086800Y0073733D02*
X0086800Y0073733D01*
X0086800Y0072134D02*
X0086800Y0072134D01*
X0086800Y0070536D02*
X0086800Y0070536D01*
X0086800Y0068937D02*
X0086800Y0068937D01*
X0092759Y0068937D02*
X0093593Y0068937D01*
X0093616Y0070536D02*
X0095939Y0070536D01*
X0093800Y0072134D02*
X0098175Y0072134D01*
X0099773Y0073733D02*
X0093353Y0073733D01*
X0096800Y0066800D02*
X0106800Y0076800D01*
X0110177Y0078529D02*
X0110966Y0078529D01*
X0109914Y0080127D02*
X0108648Y0080127D01*
X0111800Y0086800D02*
X0116800Y0081800D01*
X0122634Y0078529D02*
X0144569Y0078529D01*
X0145471Y0080127D02*
X0123686Y0080127D01*
X0124000Y0081726D02*
X0146541Y0081726D01*
X0148139Y0083324D02*
X0123748Y0083324D01*
X0122783Y0084923D02*
X0148485Y0084923D01*
X0148019Y0086521D02*
X0116039Y0086521D01*
X0111800Y0086800D02*
X0066800Y0086800D01*
X0061800Y0081800D02*
X0036800Y0106800D01*
X0006800Y0106800D01*
X0010567Y0102506D02*
X0037134Y0102506D01*
X0038732Y0100908D02*
X0010753Y0100908D01*
X0011930Y0099309D02*
X0040331Y0099309D01*
X0041930Y0097711D02*
X0012500Y0097711D01*
X0012500Y0096112D02*
X0043528Y0096112D01*
X0045127Y0094514D02*
X0013046Y0094514D01*
X0014645Y0092915D02*
X0046725Y0092915D01*
X0048324Y0091317D02*
X0016243Y0091317D01*
X0006800Y0096800D02*
X0061800Y0041800D01*
X0086800Y0041800D01*
X0098260Y0041800D01*
X0112460Y0027600D01*
X0121000Y0027600D01*
X0121800Y0026800D01*
X0146800Y0026800D01*
X0144068Y0030573D02*
X0123871Y0030573D01*
X0124000Y0032172D02*
X0152468Y0032172D01*
X0150870Y0033770D02*
X0123563Y0033770D01*
X0122337Y0035369D02*
X0149271Y0035369D01*
X0147673Y0036967D02*
X0107053Y0036967D01*
X0108651Y0035369D02*
X0111263Y0035369D01*
X0111594Y0037900D02*
X0113285Y0037200D01*
X0120315Y0037200D01*
X0122006Y0037900D01*
X0123300Y0039194D01*
X0124000Y0040885D01*
X0124000Y0042715D01*
X0123300Y0044406D01*
X0122006Y0045700D01*
X0120315Y0046400D01*
X0113285Y0046400D01*
X0111594Y0045700D01*
X0110300Y0044406D01*
X0109600Y0042715D01*
X0109600Y0040885D01*
X0110300Y0039194D01*
X0111594Y0037900D01*
X0110929Y0038566D02*
X0105454Y0038566D01*
X0103856Y0040164D02*
X0109899Y0040164D01*
X0109600Y0041763D02*
X0102257Y0041763D01*
X0100659Y0043361D02*
X0109868Y0043361D01*
X0110854Y0044960D02*
X0092746Y0044960D01*
X0092262Y0048157D02*
X0111729Y0048157D01*
X0111894Y0048037D02*
X0112511Y0047722D01*
X0113170Y0047508D01*
X0113854Y0047400D01*
X0116800Y0047400D01*
X0116800Y0051800D01*
X0116800Y0051800D01*
X0116800Y0051800D01*
X0109800Y0051800D01*
X0109800Y0052146D01*
X0109908Y0052830D01*
X0110122Y0053489D01*
X0110437Y0054106D01*
X0110844Y0054666D01*
X0111334Y0055156D01*
X0111894Y0055563D01*
X0112511Y0055878D01*
X0113170Y0056092D01*
X0113854Y0056200D01*
X0116800Y0056200D01*
X0116800Y0051800D01*
X0109800Y0051800D01*
X0109800Y0051454D01*
X0109908Y0050770D01*
X0110122Y0050111D01*
X0110437Y0049494D01*
X0110844Y0048934D01*
X0111334Y0048444D01*
X0111894Y0048037D01*
X0110304Y0049755D02*
X0093532Y0049755D01*
X0094000Y0051354D02*
X0109816Y0051354D01*
X0109948Y0052952D02*
X0093902Y0052952D01*
X0093154Y0054551D02*
X0110760Y0054551D01*
X0113534Y0056149D02*
X0090920Y0056149D01*
X0091638Y0057748D02*
X0111962Y0057748D01*
X0110237Y0059346D02*
X0093363Y0059346D01*
X0094000Y0060945D02*
X0109600Y0060945D01*
X0116800Y0056149D02*
X0116800Y0056149D01*
X0116800Y0054551D02*
X0116800Y0054551D01*
X0116800Y0052952D02*
X0116800Y0052952D01*
X0116800Y0051354D02*
X0116800Y0051354D01*
X0116800Y0049755D02*
X0116800Y0049755D01*
X0116800Y0048157D02*
X0116800Y0048157D01*
X0122746Y0044960D02*
X0143454Y0044960D01*
X0142200Y0043705D02*
X0142200Y0039895D01*
X0144895Y0037200D01*
X0147440Y0037200D01*
X0159426Y0025214D01*
X0160214Y0024426D01*
X0161243Y0024000D01*
X0183095Y0024000D01*
X0184895Y0022200D01*
X0188705Y0022200D01*
X0191400Y0024895D01*
X0191400Y0028705D01*
X0188705Y0031400D01*
X0184895Y0031400D01*
X0183095Y0029600D01*
X0162960Y0029600D01*
X0151400Y0041160D01*
X0151400Y0043705D01*
X0148705Y0046400D01*
X0144895Y0046400D01*
X0142200Y0043705D01*
X0142200Y0043361D02*
X0123732Y0043361D01*
X0124000Y0041763D02*
X0142200Y0041763D01*
X0142200Y0040164D02*
X0123701Y0040164D01*
X0122671Y0038566D02*
X0143529Y0038566D01*
X0146800Y0041800D02*
X0161800Y0026800D01*
X0186800Y0026800D01*
X0184068Y0030573D02*
X0161987Y0030573D01*
X0160388Y0032172D02*
X0196650Y0032172D01*
X0196650Y0033770D02*
X0158790Y0033770D01*
X0157191Y0035369D02*
X0196650Y0035369D01*
X0196650Y0036967D02*
X0155593Y0036967D01*
X0153994Y0038566D02*
X0183529Y0038566D01*
X0186800Y0041800D02*
X0161800Y0041800D01*
X0141800Y0061800D01*
X0141800Y0071800D01*
X0148219Y0078219D01*
X0148219Y0079444D01*
X0151800Y0083025D01*
X0151800Y0086800D01*
X0149371Y0089718D02*
X0123517Y0089718D01*
X0124000Y0091317D02*
X0190756Y0091317D01*
X0190124Y0092915D02*
X0123917Y0092915D01*
X0123192Y0094514D02*
X0189077Y0094514D01*
X0188600Y0096112D02*
X0121010Y0096112D01*
X0121548Y0097711D02*
X0188600Y0097711D01*
X0189170Y0099309D02*
X0173103Y0099309D01*
X0174867Y0100908D02*
X0190347Y0100908D01*
X0190533Y0102506D02*
X0176466Y0102506D01*
X0178065Y0104105D02*
X0189247Y0104105D01*
X0188600Y0105703D02*
X0179663Y0105703D01*
X0181262Y0107302D02*
X0188600Y0107302D01*
X0189000Y0108900D02*
X0182860Y0108900D01*
X0184459Y0110499D02*
X0189938Y0110499D01*
X0190942Y0112097D02*
X0186057Y0112097D01*
X0187656Y0113696D02*
X0189416Y0113696D01*
X0186800Y0116800D02*
X0193850Y0116800D01*
X0186800Y0116800D02*
X0171800Y0101800D01*
X0116800Y0101800D01*
X0110253Y0099309D02*
X0098103Y0099309D01*
X0099867Y0100908D02*
X0109600Y0100908D01*
X0109600Y0102506D02*
X0101466Y0102506D01*
X0101800Y0106800D02*
X0096800Y0101800D01*
X0086800Y0101800D01*
X0091997Y0105703D02*
X0096743Y0105703D01*
X0098342Y0107302D02*
X0090561Y0107302D01*
X0093006Y0108900D02*
X0099940Y0108900D01*
X0099459Y0110499D02*
X0109760Y0110499D01*
X0109600Y0112097D02*
X0101057Y0112097D01*
X0102656Y0113696D02*
X0110006Y0113696D01*
X0111189Y0115294D02*
X0104254Y0115294D01*
X0105853Y0116893D02*
X0167933Y0116893D01*
X0169532Y0118491D02*
X0122597Y0118491D01*
X0122411Y0115294D02*
X0166335Y0115294D01*
X0166800Y0111800D02*
X0181800Y0126800D01*
X0193850Y0126800D01*
X0191800Y0126800D01*
X0189324Y0129681D02*
X0178641Y0129681D01*
X0179123Y0128082D02*
X0177042Y0128082D01*
X0177524Y0126484D02*
X0175444Y0126484D01*
X0175926Y0124885D02*
X0173845Y0124885D01*
X0174327Y0123287D02*
X0172247Y0123287D01*
X0172729Y0121688D02*
X0170648Y0121688D01*
X0171130Y0120090D02*
X0169050Y0120090D01*
X0169174Y0120214D02*
X0169174Y0120214D01*
X0166800Y0121800D02*
X0181800Y0136800D01*
X0193850Y0136800D01*
X0190161Y0132878D02*
X0181838Y0132878D01*
X0180239Y0131279D02*
X0190718Y0131279D01*
X0190309Y0140870D02*
X0174830Y0140870D01*
X0173232Y0139272D02*
X0180451Y0139272D01*
X0179426Y0138386D02*
X0179426Y0138386D01*
X0178714Y0137673D02*
X0171633Y0137673D01*
X0170035Y0136075D02*
X0177115Y0136075D01*
X0175517Y0134476D02*
X0168436Y0134476D01*
X0166800Y0136800D02*
X0176800Y0146800D01*
X0194300Y0146800D01*
X0190570Y0142469D02*
X0176429Y0142469D01*
X0173918Y0132878D02*
X0141200Y0132878D01*
X0141200Y0131279D02*
X0172320Y0131279D01*
X0170721Y0129681D02*
X0164266Y0129681D01*
X0165361Y0128082D02*
X0169123Y0128082D01*
X0167524Y0126484D02*
X0165581Y0126484D01*
X0165926Y0124885D02*
X0165100Y0124885D01*
X0166800Y0121800D02*
X0116800Y0121800D01*
X0111003Y0118491D02*
X0107451Y0118491D01*
X0109050Y0120090D02*
X0109929Y0120090D01*
X0111800Y0126800D02*
X0161800Y0126800D01*
X0159334Y0129681D02*
X0140903Y0129681D01*
X0132697Y0129681D02*
X0123258Y0129681D01*
X0123772Y0131279D02*
X0132400Y0131279D01*
X0132400Y0132878D02*
X0123676Y0132878D01*
X0116800Y0141800D02*
X0136800Y0141800D01*
X0126800Y0146800D02*
X0146800Y0146800D01*
X0144071Y0150462D02*
X0127098Y0150462D01*
X0125500Y0152060D02*
X0190979Y0152060D01*
X0189901Y0150462D02*
X0149529Y0150462D01*
X0153188Y0160053D02*
X0129770Y0160053D01*
X0126800Y0160053D02*
X0126800Y0160053D01*
X0126800Y0158454D02*
X0126800Y0158454D01*
X0126800Y0156856D02*
X0126800Y0156856D01*
X0126800Y0155257D02*
X0126800Y0155257D01*
X0126800Y0153659D02*
X0126800Y0153659D01*
X0122400Y0155257D02*
X0102303Y0155257D01*
X0100704Y0156856D02*
X0122400Y0156856D01*
X0122400Y0158454D02*
X0099600Y0158454D01*
X0096800Y0156800D02*
X0101800Y0151800D01*
X0121800Y0151800D01*
X0126800Y0146800D01*
X0123974Y0145666D02*
X0122039Y0145666D01*
X0122376Y0147265D02*
X0003800Y0147265D01*
X0003800Y0148863D02*
X0120777Y0148863D01*
X0121354Y0164848D02*
X0122246Y0164848D01*
X0122200Y0166447D02*
X0121400Y0166447D01*
X0121400Y0168045D02*
X0122200Y0168045D01*
X0123138Y0169644D02*
X0120462Y0169644D01*
X0118863Y0171242D02*
X0124737Y0171242D01*
X0128863Y0171242D02*
X0139737Y0171242D01*
X0139254Y0172841D02*
X0040586Y0172841D01*
X0040853Y0174439D02*
X0137655Y0174439D01*
X0137200Y0176038D02*
X0041454Y0176038D01*
X0041454Y0177636D02*
X0137200Y0177636D01*
X0137729Y0179235D02*
X0040822Y0179235D01*
X0040892Y0180833D02*
X0139000Y0180833D01*
X0139000Y0182432D02*
X0123937Y0182432D01*
X0119663Y0182432D02*
X0113654Y0182432D01*
X0115253Y0184030D02*
X0118064Y0184030D01*
X0117200Y0185629D02*
X0116200Y0185629D01*
X0116200Y0187227D02*
X0117200Y0187227D01*
X0117320Y0188826D02*
X0115997Y0188826D01*
X0121028Y0192023D02*
X0192014Y0192023D01*
X0189863Y0190424D02*
X0164681Y0190424D01*
X0165940Y0188826D02*
X0188969Y0188826D01*
X0188600Y0187227D02*
X0166400Y0187227D01*
X0166294Y0185629D02*
X0188615Y0185629D01*
X0189278Y0184030D02*
X0184917Y0184030D01*
X0185581Y0182432D02*
X0190607Y0182432D01*
X0190272Y0180833D02*
X0186727Y0180833D01*
X0186800Y0176800D02*
X0193850Y0176800D01*
X0190198Y0172841D02*
X0144346Y0172841D01*
X0143863Y0171242D02*
X0191057Y0171242D01*
X0189576Y0169644D02*
X0174304Y0169644D01*
X0176800Y0166800D02*
X0171800Y0166800D01*
X0173109Y0163250D02*
X0176391Y0163250D01*
X0176800Y0166800D02*
X0186800Y0156800D01*
X0189006Y0153659D02*
X0189432Y0153659D01*
X0189492Y0160053D02*
X0188828Y0160053D01*
X0191117Y0161651D02*
X0185909Y0161651D01*
X0184310Y0163250D02*
X0190081Y0163250D01*
X0189151Y0164848D02*
X0182712Y0164848D01*
X0181113Y0166447D02*
X0188800Y0166447D01*
X0188929Y0168045D02*
X0179515Y0168045D01*
X0185201Y0174439D02*
X0145945Y0174439D01*
X0146400Y0176038D02*
X0183602Y0176038D01*
X0182004Y0177636D02*
X0146400Y0177636D01*
X0145871Y0179235D02*
X0179018Y0179235D01*
X0178108Y0180833D02*
X0144600Y0180833D01*
X0144600Y0182432D02*
X0160325Y0182432D01*
X0163275Y0182432D02*
X0178019Y0182432D01*
X0178683Y0184030D02*
X0165536Y0184030D01*
X0161800Y0186800D02*
X0141800Y0186800D01*
X0141800Y0176800D01*
X0138138Y0169644D02*
X0130462Y0169644D01*
X0131400Y0168045D02*
X0137200Y0168045D01*
X0137200Y0166447D02*
X0131400Y0166447D01*
X0131354Y0164848D02*
X0137246Y0164848D01*
X0138845Y0163250D02*
X0129755Y0163250D01*
X0145462Y0169644D02*
X0158421Y0169644D01*
X0157400Y0168045D02*
X0146919Y0168045D01*
X0151714Y0166447D02*
X0157400Y0166447D01*
X0157529Y0164848D02*
X0156510Y0164848D01*
X0161800Y0168045D02*
X0161800Y0168045D01*
X0161800Y0169644D02*
X0161800Y0169644D01*
X0165179Y0169644D02*
X0169296Y0169644D01*
X0168223Y0168045D02*
X0166200Y0168045D01*
X0166200Y0166447D02*
X0168019Y0166447D01*
X0168516Y0164848D02*
X0166071Y0164848D01*
X0164472Y0163250D02*
X0170491Y0163250D01*
X0186800Y0176800D02*
X0181800Y0181800D01*
X0196586Y0192023D02*
X0196650Y0192023D01*
X0196650Y0193621D02*
X0121400Y0193621D01*
X0121400Y0195220D02*
X0196650Y0195220D01*
X0158919Y0190424D02*
X0124681Y0190424D01*
X0121800Y0186800D02*
X0141800Y0186800D01*
X0109202Y0190424D02*
X0085950Y0190424D01*
X0087087Y0188826D02*
X0107603Y0188826D01*
X0107400Y0187227D02*
X0087517Y0187227D01*
X0087441Y0185629D02*
X0107400Y0185629D01*
X0108347Y0184030D02*
X0086779Y0184030D01*
X0079146Y0190424D02*
X0077519Y0190424D01*
X0071829Y0190424D02*
X0069645Y0190424D01*
X0063955Y0190424D02*
X0061771Y0190424D01*
X0056081Y0190424D02*
X0054454Y0190424D01*
X0036879Y0170501D02*
X0036879Y0170501D01*
X0010791Y0140870D02*
X0079606Y0140870D01*
X0079600Y0142469D02*
X0008009Y0142469D01*
X0005591Y0142469D02*
X0003800Y0142469D01*
X0003800Y0144068D02*
X0080160Y0144068D01*
X0081561Y0145666D02*
X0003800Y0145666D01*
X0003800Y0150462D02*
X0099179Y0150462D01*
X0097580Y0152060D02*
X0003800Y0152060D01*
X0003800Y0153659D02*
X0095982Y0153659D01*
X0096800Y0156800D02*
X0096800Y0166800D01*
X0099755Y0163250D02*
X0104128Y0163250D01*
X0104977Y0162400D02*
X0102400Y0164977D01*
X0102400Y0166800D01*
X0106800Y0166800D01*
X0106800Y0166800D01*
X0106800Y0166800D01*
X0106800Y0171200D01*
X0104977Y0171200D01*
X0102400Y0168623D01*
X0102400Y0166800D01*
X0106800Y0166800D01*
X0106800Y0162400D01*
X0104977Y0162400D01*
X0106800Y0163250D02*
X0106800Y0163250D01*
X0106800Y0164848D02*
X0106800Y0164848D01*
X0106800Y0166447D02*
X0106800Y0166447D01*
X0106800Y0168045D02*
X0106800Y0168045D01*
X0106800Y0169644D02*
X0106800Y0169644D01*
X0103421Y0169644D02*
X0100462Y0169644D01*
X0101400Y0168045D02*
X0102400Y0168045D01*
X0102400Y0166447D02*
X0101400Y0166447D01*
X0101354Y0164848D02*
X0102529Y0164848D01*
X0080268Y0139272D02*
X0073149Y0139272D01*
X0074886Y0137673D02*
X0082142Y0137673D01*
X0082500Y0136075D02*
X0076485Y0136075D01*
X0076800Y0131800D02*
X0086800Y0131800D01*
X0076800Y0131800D02*
X0071800Y0136800D01*
X0006800Y0136800D01*
X0010939Y0132878D02*
X0071762Y0132878D01*
X0073361Y0131279D02*
X0010382Y0131279D01*
X0011776Y0129681D02*
X0074959Y0129681D01*
X0074426Y0130214D02*
X0074426Y0130214D01*
X0074174Y0128386D02*
X0074174Y0128386D01*
X0071800Y0126800D02*
X0006800Y0126800D01*
X0011348Y0123287D02*
X0071353Y0123287D01*
X0072952Y0121688D02*
X0009893Y0121688D01*
X0011571Y0120090D02*
X0074550Y0120090D01*
X0076800Y0121800D02*
X0071800Y0126800D01*
X0086800Y0111800D02*
X0096800Y0111800D01*
X0111800Y0126800D01*
X0116800Y0111800D02*
X0166800Y0111800D01*
X0166800Y0106800D02*
X0101800Y0106800D01*
X0096335Y0115294D02*
X0092411Y0115294D01*
X0122225Y0088120D02*
X0148254Y0088120D01*
X0154229Y0089718D02*
X0189339Y0089718D01*
X0188677Y0088120D02*
X0155346Y0088120D01*
X0155581Y0086521D02*
X0188600Y0086521D01*
X0188908Y0084923D02*
X0155115Y0084923D01*
X0154600Y0083324D02*
X0189715Y0083324D01*
X0191297Y0081726D02*
X0154292Y0081726D01*
X0154864Y0080127D02*
X0189566Y0080127D01*
X0193850Y0076800D02*
X0151800Y0076800D01*
X0155124Y0073733D02*
X0189401Y0073733D01*
X0190904Y0072134D02*
X0146094Y0072134D01*
X0144600Y0070536D02*
X0190258Y0070536D01*
X0189216Y0068937D02*
X0144600Y0068937D01*
X0144600Y0067339D02*
X0188817Y0067339D01*
X0188800Y0066600D02*
X0188800Y0066367D01*
X0188935Y0065512D01*
X0189203Y0064689D01*
X0189596Y0063917D01*
X0190105Y0063217D01*
X0190717Y0062605D01*
X0191417Y0062096D01*
X0192189Y0061703D01*
X0193012Y0061435D01*
X0193867Y0061300D01*
X0194100Y0061300D01*
X0194100Y0066600D01*
X0188800Y0066600D01*
X0188899Y0065740D02*
X0154082Y0065740D01*
X0155681Y0064142D02*
X0189482Y0064142D01*
X0190802Y0062543D02*
X0156200Y0062543D01*
X0156200Y0060945D02*
X0196650Y0060945D01*
X0196650Y0059346D02*
X0155569Y0059346D01*
X0153970Y0057748D02*
X0196650Y0057748D01*
X0196650Y0056149D02*
X0151410Y0056149D01*
X0151800Y0057748D02*
X0151800Y0057748D01*
X0151800Y0059346D02*
X0151800Y0059346D01*
X0151800Y0060945D02*
X0151800Y0060945D01*
X0151800Y0062543D02*
X0151800Y0062543D01*
X0151800Y0064142D02*
X0151800Y0064142D01*
X0151800Y0065740D02*
X0151800Y0065740D01*
X0149518Y0065740D02*
X0144600Y0065740D01*
X0144600Y0064142D02*
X0147919Y0064142D01*
X0147400Y0062543D02*
X0145016Y0062543D01*
X0146615Y0060945D02*
X0147400Y0060945D01*
X0153009Y0054551D02*
X0196650Y0054551D01*
X0196650Y0052952D02*
X0154607Y0052952D01*
X0156206Y0051354D02*
X0196650Y0051354D01*
X0196650Y0049755D02*
X0157804Y0049755D01*
X0159403Y0048157D02*
X0196650Y0048157D01*
X0196650Y0046558D02*
X0161001Y0046558D01*
X0162600Y0044960D02*
X0183454Y0044960D01*
X0190146Y0044960D02*
X0196650Y0044960D01*
X0196650Y0043361D02*
X0191400Y0043361D01*
X0191400Y0041763D02*
X0196650Y0041763D01*
X0196650Y0040164D02*
X0191400Y0040164D01*
X0190071Y0038566D02*
X0196650Y0038566D01*
X0196650Y0030573D02*
X0189532Y0030573D01*
X0191131Y0028975D02*
X0196650Y0028975D01*
X0196650Y0027376D02*
X0191400Y0027376D01*
X0191400Y0025778D02*
X0196650Y0025778D01*
X0196650Y0024179D02*
X0190685Y0024179D01*
X0189086Y0022581D02*
X0196650Y0022581D01*
X0196650Y0020982D02*
X0124000Y0020982D01*
X0124000Y0022581D02*
X0144514Y0022581D01*
X0149086Y0022581D02*
X0184514Y0022581D01*
X0188480Y0016187D02*
X0175474Y0016187D01*
X0175029Y0016632D02*
X0172934Y0017500D01*
X0170666Y0017500D01*
X0168571Y0016632D01*
X0166968Y0015029D01*
X0166100Y0012934D01*
X0166100Y0010666D01*
X0166968Y0008571D01*
X0168571Y0006968D01*
X0170666Y0006100D01*
X0172934Y0006100D01*
X0175029Y0006968D01*
X0176632Y0008571D01*
X0177500Y0010666D01*
X0177500Y0012934D01*
X0176632Y0015029D01*
X0175029Y0016632D01*
X0176815Y0014588D02*
X0187048Y0014588D01*
X0186420Y0012990D02*
X0177477Y0012990D01*
X0177500Y0011391D02*
X0186300Y0011391D01*
X0186300Y0011367D02*
X0186435Y0010512D01*
X0186703Y0009689D01*
X0187096Y0008917D01*
X0187605Y0008217D01*
X0188217Y0007605D01*
X0188917Y0007096D01*
X0189689Y0006703D01*
X0190512Y0006435D01*
X0191367Y0006300D01*
X0191600Y0006300D01*
X0191600Y0011600D01*
X0186300Y0011600D01*
X0186300Y0011367D01*
X0186669Y0009793D02*
X0177138Y0009793D01*
X0176255Y0008194D02*
X0187628Y0008194D01*
X0190019Y0006596D02*
X0174130Y0006596D01*
X0169470Y0006596D02*
X0159130Y0006596D01*
X0160029Y0006968D02*
X0161632Y0008571D01*
X0162500Y0010666D01*
X0162500Y0012934D01*
X0161632Y0015029D01*
X0160029Y0016632D01*
X0157934Y0017500D01*
X0155666Y0017500D01*
X0153571Y0016632D01*
X0151968Y0015029D01*
X0151100Y0012934D01*
X0151100Y0010666D01*
X0151968Y0008571D01*
X0153571Y0006968D01*
X0155666Y0006100D01*
X0157934Y0006100D01*
X0160029Y0006968D01*
X0161255Y0008194D02*
X0167345Y0008194D01*
X0166462Y0009793D02*
X0162138Y0009793D01*
X0162500Y0011391D02*
X0166100Y0011391D01*
X0166123Y0012990D02*
X0162477Y0012990D01*
X0161815Y0014588D02*
X0166785Y0014588D01*
X0168126Y0016187D02*
X0160474Y0016187D01*
X0153126Y0016187D02*
X0140120Y0016187D01*
X0140383Y0015995D02*
X0139683Y0016504D01*
X0138911Y0016897D01*
X0138088Y0017165D01*
X0137233Y0017300D01*
X0137000Y0017300D01*
X0137000Y0012000D01*
X0136600Y0012000D01*
X0136600Y0017300D01*
X0136367Y0017300D01*
X0135512Y0017165D01*
X0134689Y0016897D01*
X0133917Y0016504D01*
X0133217Y0015995D01*
X0132605Y0015383D01*
X0132096Y0014683D01*
X0131703Y0013911D01*
X0131435Y0013088D01*
X0131300Y0012233D01*
X0131300Y0012000D01*
X0136600Y0012000D01*
X0136600Y0011600D01*
X0131300Y0011600D01*
X0131300Y0011367D01*
X0131435Y0010512D01*
X0131703Y0009689D01*
X0132096Y0008917D01*
X0132605Y0008217D01*
X0133217Y0007605D01*
X0133917Y0007096D01*
X0134689Y0006703D01*
X0135512Y0006435D01*
X0136367Y0006300D01*
X0136600Y0006300D01*
X0136600Y0011600D01*
X0137000Y0011600D01*
X0137000Y0012000D01*
X0142300Y0012000D01*
X0142300Y0012233D01*
X0142165Y0013088D01*
X0141897Y0013911D01*
X0141504Y0014683D01*
X0140995Y0015383D01*
X0140383Y0015995D01*
X0141552Y0014588D02*
X0151785Y0014588D01*
X0151123Y0012990D02*
X0142180Y0012990D01*
X0142300Y0011600D02*
X0137000Y0011600D01*
X0137000Y0006300D01*
X0137233Y0006300D01*
X0138088Y0006435D01*
X0138911Y0006703D01*
X0139683Y0007096D01*
X0140383Y0007605D01*
X0140995Y0008217D01*
X0141504Y0008917D01*
X0141897Y0009689D01*
X0142165Y0010512D01*
X0142300Y0011367D01*
X0142300Y0011600D01*
X0142300Y0011391D02*
X0151100Y0011391D01*
X0151462Y0009793D02*
X0141931Y0009793D01*
X0140972Y0008194D02*
X0152345Y0008194D01*
X0154470Y0006596D02*
X0138581Y0006596D01*
X0137000Y0006596D02*
X0136600Y0006596D01*
X0135019Y0006596D02*
X0003800Y0006596D01*
X0003800Y0008194D02*
X0081301Y0008194D01*
X0081594Y0007900D02*
X0083285Y0007200D01*
X0090315Y0007200D01*
X0092006Y0007900D01*
X0093300Y0009194D01*
X0094000Y0010885D01*
X0094000Y0012715D01*
X0093300Y0014406D01*
X0092006Y0015700D01*
X0090315Y0016400D01*
X0083285Y0016400D01*
X0081594Y0015700D01*
X0080300Y0014406D01*
X0079600Y0012715D01*
X0079600Y0010885D01*
X0080300Y0009194D01*
X0081594Y0007900D01*
X0080052Y0009793D02*
X0003800Y0009793D01*
X0003800Y0011391D02*
X0079600Y0011391D01*
X0079714Y0012990D02*
X0003800Y0012990D01*
X0003800Y0014588D02*
X0080483Y0014588D01*
X0082770Y0016187D02*
X0003800Y0016187D01*
X0003800Y0017785D02*
X0059309Y0017785D01*
X0059895Y0017200D02*
X0063705Y0017200D01*
X0065505Y0019000D01*
X0080495Y0019000D01*
X0081594Y0017900D01*
X0083285Y0017200D01*
X0090315Y0017200D01*
X0092006Y0017900D01*
X0093300Y0019194D01*
X0094000Y0020885D01*
X0094000Y0022715D01*
X0093300Y0024406D01*
X0092006Y0025700D01*
X0090315Y0026400D01*
X0083285Y0026400D01*
X0081594Y0025700D01*
X0080495Y0024600D01*
X0065505Y0024600D01*
X0063705Y0026400D01*
X0059895Y0026400D01*
X0058095Y0024600D01*
X0024347Y0024600D01*
X0023942Y0025005D01*
X0022552Y0025581D01*
X0021048Y0025581D01*
X0019658Y0025005D01*
X0018595Y0023942D01*
X0018019Y0022552D01*
X0018019Y0021048D01*
X0018595Y0019658D01*
X0019658Y0018595D01*
X0021048Y0018019D01*
X0022552Y0018019D01*
X0023942Y0018595D01*
X0024347Y0019000D01*
X0058095Y0019000D01*
X0059895Y0017200D01*
X0064290Y0017785D02*
X0081872Y0017785D01*
X0086800Y0021800D02*
X0061800Y0021800D01*
X0021800Y0021800D01*
X0018869Y0019384D02*
X0003800Y0019384D01*
X0003800Y0020982D02*
X0018046Y0020982D01*
X0018031Y0022581D02*
X0003800Y0022581D01*
X0003800Y0024179D02*
X0018832Y0024179D01*
X0019718Y0027376D02*
X0003800Y0027376D01*
X0003800Y0025778D02*
X0059272Y0025778D01*
X0059718Y0027376D02*
X0033882Y0027376D01*
X0035480Y0028975D02*
X0058120Y0028975D01*
X0057200Y0030573D02*
X0054533Y0030573D01*
X0056131Y0032172D02*
X0057200Y0032172D01*
X0056800Y0036800D02*
X0066800Y0036800D01*
X0071800Y0031800D01*
X0086800Y0031800D01*
X0090740Y0027376D02*
X0099000Y0027376D01*
X0099000Y0025778D02*
X0091817Y0025778D01*
X0093394Y0024179D02*
X0099000Y0024179D01*
X0099000Y0022581D02*
X0094000Y0022581D01*
X0094000Y0020982D02*
X0099000Y0020982D01*
X0099000Y0019384D02*
X0093378Y0019384D01*
X0091728Y0017785D02*
X0099000Y0017785D01*
X0099023Y0016187D02*
X0090830Y0016187D01*
X0093117Y0014588D02*
X0100052Y0014588D01*
X0101651Y0012990D02*
X0093886Y0012990D01*
X0094000Y0011391D02*
X0103249Y0011391D01*
X0104848Y0009793D02*
X0093547Y0009793D01*
X0092299Y0008194D02*
X0111301Y0008194D01*
X0106800Y0011800D02*
X0101800Y0016800D01*
X0101800Y0031800D01*
X0099000Y0028975D02*
X0093080Y0028975D01*
X0093871Y0030573D02*
X0098216Y0030573D01*
X0098019Y0032172D02*
X0094000Y0032172D01*
X0093563Y0033770D02*
X0098523Y0033770D01*
X0100535Y0035369D02*
X0092337Y0035369D01*
X0092671Y0038566D02*
X0097535Y0038566D01*
X0099133Y0036967D02*
X0070593Y0036967D01*
X0072191Y0035369D02*
X0081263Y0035369D01*
X0080929Y0038566D02*
X0068994Y0038566D01*
X0067468Y0032172D02*
X0066400Y0032172D01*
X0066400Y0030573D02*
X0069067Y0030573D01*
X0065480Y0028975D02*
X0080520Y0028975D01*
X0082860Y0027376D02*
X0063882Y0027376D01*
X0064328Y0025778D02*
X0081783Y0025778D01*
X0104600Y0025778D02*
X0110323Y0025778D01*
X0110206Y0024179D02*
X0104600Y0024179D01*
X0104600Y0022581D02*
X0109600Y0022581D01*
X0109600Y0020982D02*
X0104600Y0020982D01*
X0104600Y0019384D02*
X0110222Y0019384D01*
X0111872Y0017785D02*
X0104775Y0017785D01*
X0106373Y0016187D02*
X0112770Y0016187D01*
X0116800Y0011800D02*
X0106800Y0011800D01*
X0120830Y0016187D02*
X0133480Y0016187D01*
X0132048Y0014588D02*
X0123117Y0014588D01*
X0123886Y0012990D02*
X0131420Y0012990D01*
X0131300Y0011391D02*
X0124000Y0011391D01*
X0123547Y0009793D02*
X0131669Y0009793D01*
X0132628Y0008194D02*
X0122299Y0008194D01*
X0121728Y0017785D02*
X0196650Y0017785D01*
X0196650Y0016187D02*
X0195120Y0016187D01*
X0196552Y0014588D02*
X0196650Y0014588D01*
X0192000Y0014588D02*
X0191600Y0014588D01*
X0191600Y0012990D02*
X0192000Y0012990D01*
X0192000Y0011391D02*
X0191600Y0011391D01*
X0191600Y0009793D02*
X0192000Y0009793D01*
X0192000Y0008194D02*
X0191600Y0008194D01*
X0191600Y0006596D02*
X0192000Y0006596D01*
X0193581Y0006596D02*
X0196650Y0006596D01*
X0196650Y0008194D02*
X0195972Y0008194D01*
X0196650Y0004997D02*
X0003800Y0004997D01*
X0023882Y0027376D02*
X0029718Y0027376D01*
X0028120Y0028975D02*
X0025480Y0028975D01*
X0026400Y0030573D02*
X0027200Y0030573D01*
X0027200Y0032172D02*
X0026400Y0032172D01*
X0031800Y0031800D02*
X0051800Y0031800D01*
X0056800Y0036800D01*
X0046800Y0046800D02*
X0036800Y0036800D01*
X0026800Y0036800D01*
X0021800Y0031800D01*
X0018120Y0028975D02*
X0003800Y0028975D01*
X0003800Y0030573D02*
X0017200Y0030573D01*
X0017200Y0032172D02*
X0003800Y0032172D01*
X0003800Y0033770D02*
X0017265Y0033770D01*
X0018863Y0035369D02*
X0003800Y0035369D01*
X0003800Y0036967D02*
X0023007Y0036967D01*
X0024606Y0038566D02*
X0003800Y0038566D01*
X0003800Y0040164D02*
X0036204Y0040164D01*
X0037803Y0041763D02*
X0003800Y0041763D01*
X0003800Y0043361D02*
X0004016Y0043361D01*
X0006600Y0062543D02*
X0007000Y0062543D01*
X0007000Y0064142D02*
X0006600Y0064142D01*
X0006600Y0065740D02*
X0007000Y0065740D01*
X0029031Y0078529D02*
X0080966Y0078529D01*
X0068900Y0065740D02*
X0065638Y0065740D01*
X0065400Y0067339D02*
X0067301Y0067339D01*
X0066780Y0064142D02*
X0070498Y0064142D01*
X0072097Y0062543D02*
X0067251Y0062543D01*
X0067233Y0060945D02*
X0073695Y0060945D01*
X0075407Y0059346D02*
X0066723Y0059346D01*
X0057270Y0075332D02*
X0032228Y0075332D01*
X0030630Y0076930D02*
X0059290Y0076930D01*
X0056800Y0091800D02*
X0031800Y0116800D01*
X0006800Y0116800D01*
X0105384Y0030573D02*
X0105527Y0030573D01*
X0104600Y0028975D02*
X0107126Y0028975D01*
X0108724Y0027376D02*
X0104600Y0027376D01*
X0123378Y0019384D02*
X0196650Y0019384D01*
X0192000Y0016187D02*
X0191600Y0016187D01*
X0160810Y0024179D02*
X0150685Y0024179D01*
X0151400Y0025778D02*
X0158863Y0025778D01*
X0157264Y0027376D02*
X0151400Y0027376D01*
X0151131Y0028975D02*
X0155666Y0028975D01*
X0154067Y0030573D02*
X0149532Y0030573D01*
X0152396Y0040164D02*
X0159476Y0040164D01*
X0157877Y0041763D02*
X0151400Y0041763D01*
X0151400Y0043361D02*
X0156279Y0043361D01*
X0154680Y0044960D02*
X0150146Y0044960D01*
X0148476Y0073733D02*
X0147693Y0073733D01*
X0194100Y0065740D02*
X0194500Y0065740D01*
X0194500Y0064142D02*
X0194100Y0064142D01*
X0194100Y0062543D02*
X0194500Y0062543D01*
X0137000Y0016187D02*
X0136600Y0016187D01*
X0136600Y0014588D02*
X0137000Y0014588D01*
X0137000Y0012990D02*
X0136600Y0012990D01*
X0136600Y0011391D02*
X0137000Y0011391D01*
X0137000Y0009793D02*
X0136600Y0009793D01*
X0136600Y0008194D02*
X0137000Y0008194D01*
D19*
X0101800Y0031800D03*
X0096800Y0066800D03*
X0106800Y0076800D03*
X0066800Y0086800D03*
X0021800Y0021800D03*
X0151800Y0086800D03*
X0166800Y0106800D03*
X0161800Y0126800D03*
X0151800Y0136800D03*
X0171800Y0166800D03*
X0186800Y0156800D03*
X0181800Y0181800D03*
X0041800Y0161800D03*
X0026800Y0166800D03*
D20*
X0146800Y0146800D03*
X0151800Y0076800D03*
M02*
