G75*
%MOIN*%
%OFA0B0*%
%FSLAX25Y25*%
%IPPOS*%
%LPD*%
%AMOC8*
5,1,8,0,0,1.08239X$1,22.5*
%
%ADD10C,0.00000*%
%ADD11C,0.00600*%
%ADD12C,0.00300*%
%ADD13C,0.00800*%
%ADD14C,0.00500*%
%ADD15C,0.01000*%
%ADD16R,0.02000X0.10000*%
%ADD17R,0.10000X0.02000*%
%ADD18R,0.03400X0.02400*%
%ADD19C,0.00400*%
D10*
X0001800Y0001800D02*
X0001800Y0198650D01*
X0198650Y0198650D01*
X0198650Y0001800D01*
X0001800Y0001800D01*
D11*
X0026800Y0037800D02*
X0026952Y0037798D01*
X0027103Y0037792D01*
X0027254Y0037783D01*
X0027406Y0037769D01*
X0027556Y0037752D01*
X0027706Y0037731D01*
X0027856Y0037706D01*
X0028005Y0037678D01*
X0028153Y0037645D01*
X0028300Y0037609D01*
X0028447Y0037570D01*
X0028592Y0037526D01*
X0028736Y0037479D01*
X0028879Y0037428D01*
X0029020Y0037374D01*
X0029161Y0037316D01*
X0029299Y0037255D01*
X0029436Y0037190D01*
X0029572Y0037121D01*
X0029705Y0037050D01*
X0029837Y0036975D01*
X0029967Y0036896D01*
X0030094Y0036815D01*
X0030220Y0036730D01*
X0030344Y0036642D01*
X0030465Y0036551D01*
X0030584Y0036457D01*
X0030700Y0036359D01*
X0030814Y0036259D01*
X0030926Y0036157D01*
X0031034Y0036051D01*
X0031140Y0035943D01*
X0031244Y0035832D01*
X0031344Y0035718D01*
X0031442Y0035602D01*
X0031536Y0035483D01*
X0026800Y0025800D02*
X0026646Y0025802D01*
X0026492Y0025808D01*
X0026338Y0025818D01*
X0026184Y0025832D01*
X0026031Y0025849D01*
X0025879Y0025871D01*
X0025727Y0025897D01*
X0025575Y0025926D01*
X0025425Y0025960D01*
X0025275Y0025997D01*
X0025127Y0026038D01*
X0024979Y0026083D01*
X0024833Y0026132D01*
X0024688Y0026184D01*
X0024545Y0026240D01*
X0024402Y0026300D01*
X0024262Y0026363D01*
X0024123Y0026430D01*
X0023986Y0026501D01*
X0023851Y0026575D01*
X0023718Y0026652D01*
X0023586Y0026733D01*
X0023457Y0026817D01*
X0023330Y0026905D01*
X0023206Y0026996D01*
X0023084Y0027089D01*
X0022964Y0027187D01*
X0022847Y0027287D01*
X0022732Y0027390D01*
X0022620Y0027496D01*
X0022511Y0027604D01*
X0022405Y0027716D01*
X0022301Y0027830D01*
X0022201Y0027947D01*
X0022103Y0028066D01*
X0022009Y0028188D01*
X0021918Y0028313D01*
X0026800Y0025800D02*
X0026950Y0025802D01*
X0027101Y0025808D01*
X0027251Y0025817D01*
X0027400Y0025830D01*
X0027550Y0025847D01*
X0027699Y0025868D01*
X0027847Y0025892D01*
X0027995Y0025920D01*
X0028142Y0025952D01*
X0028288Y0025987D01*
X0028433Y0026027D01*
X0028577Y0026069D01*
X0028720Y0026116D01*
X0028862Y0026166D01*
X0029003Y0026219D01*
X0029142Y0026276D01*
X0029280Y0026336D01*
X0029416Y0026400D01*
X0029550Y0026467D01*
X0029683Y0026538D01*
X0029814Y0026612D01*
X0029943Y0026689D01*
X0030070Y0026770D01*
X0030195Y0026853D01*
X0030318Y0026940D01*
X0030439Y0027029D01*
X0030557Y0027122D01*
X0030673Y0027218D01*
X0030787Y0027316D01*
X0030898Y0027417D01*
X0031007Y0027522D01*
X0031112Y0027628D01*
X0031216Y0027738D01*
X0031316Y0027850D01*
X0031414Y0027964D01*
X0031508Y0028081D01*
X0031600Y0028200D01*
X0026800Y0037800D02*
X0026648Y0037798D01*
X0026497Y0037792D01*
X0026346Y0037783D01*
X0026194Y0037769D01*
X0026044Y0037752D01*
X0025894Y0037731D01*
X0025744Y0037706D01*
X0025595Y0037678D01*
X0025447Y0037645D01*
X0025300Y0037609D01*
X0025153Y0037570D01*
X0025008Y0037526D01*
X0024864Y0037479D01*
X0024721Y0037428D01*
X0024580Y0037374D01*
X0024439Y0037316D01*
X0024301Y0037255D01*
X0024164Y0037190D01*
X0024028Y0037121D01*
X0023895Y0037050D01*
X0023763Y0036975D01*
X0023633Y0036896D01*
X0023506Y0036815D01*
X0023380Y0036730D01*
X0023256Y0036642D01*
X0023135Y0036551D01*
X0023016Y0036457D01*
X0022900Y0036359D01*
X0022786Y0036259D01*
X0022674Y0036157D01*
X0022566Y0036051D01*
X0022460Y0035943D01*
X0022356Y0035832D01*
X0022256Y0035718D01*
X0022158Y0035602D01*
X0022064Y0035483D01*
X0016800Y0042300D02*
X0015300Y0042300D01*
X0015240Y0042302D01*
X0015179Y0042307D01*
X0015120Y0042316D01*
X0015061Y0042329D01*
X0015002Y0042345D01*
X0014945Y0042365D01*
X0014890Y0042388D01*
X0014835Y0042415D01*
X0014783Y0042444D01*
X0014732Y0042477D01*
X0014683Y0042513D01*
X0014637Y0042551D01*
X0014593Y0042593D01*
X0014551Y0042637D01*
X0014513Y0042683D01*
X0014477Y0042732D01*
X0014444Y0042783D01*
X0014415Y0042835D01*
X0014388Y0042890D01*
X0014365Y0042945D01*
X0014345Y0043002D01*
X0014329Y0043061D01*
X0014316Y0043120D01*
X0014307Y0043179D01*
X0014302Y0043240D01*
X0014300Y0043300D01*
X0014300Y0050300D01*
X0014302Y0050360D01*
X0014307Y0050421D01*
X0014316Y0050480D01*
X0014329Y0050539D01*
X0014345Y0050598D01*
X0014365Y0050655D01*
X0014388Y0050710D01*
X0014415Y0050765D01*
X0014444Y0050817D01*
X0014477Y0050868D01*
X0014513Y0050917D01*
X0014551Y0050963D01*
X0014593Y0051007D01*
X0014637Y0051049D01*
X0014683Y0051087D01*
X0014732Y0051123D01*
X0014783Y0051156D01*
X0014835Y0051185D01*
X0014890Y0051212D01*
X0014945Y0051235D01*
X0015002Y0051255D01*
X0015061Y0051271D01*
X0015120Y0051284D01*
X0015179Y0051293D01*
X0015240Y0051298D01*
X0015300Y0051300D01*
X0016800Y0051300D01*
X0017300Y0050800D01*
X0036300Y0050800D01*
X0036800Y0051300D01*
X0038300Y0051300D01*
X0038360Y0051298D01*
X0038421Y0051293D01*
X0038480Y0051284D01*
X0038539Y0051271D01*
X0038598Y0051255D01*
X0038655Y0051235D01*
X0038710Y0051212D01*
X0038765Y0051185D01*
X0038817Y0051156D01*
X0038868Y0051123D01*
X0038917Y0051087D01*
X0038963Y0051049D01*
X0039007Y0051007D01*
X0039049Y0050963D01*
X0039087Y0050917D01*
X0039123Y0050868D01*
X0039156Y0050817D01*
X0039185Y0050765D01*
X0039212Y0050710D01*
X0039235Y0050655D01*
X0039255Y0050598D01*
X0039271Y0050539D01*
X0039284Y0050480D01*
X0039293Y0050421D01*
X0039298Y0050360D01*
X0039300Y0050300D01*
X0039300Y0043300D01*
X0039298Y0043240D01*
X0039293Y0043179D01*
X0039284Y0043120D01*
X0039271Y0043061D01*
X0039255Y0043002D01*
X0039235Y0042945D01*
X0039212Y0042890D01*
X0039185Y0042835D01*
X0039156Y0042783D01*
X0039123Y0042732D01*
X0039087Y0042683D01*
X0039049Y0042637D01*
X0039007Y0042593D01*
X0038963Y0042551D01*
X0038917Y0042513D01*
X0038868Y0042477D01*
X0038817Y0042444D01*
X0038765Y0042415D01*
X0038710Y0042388D01*
X0038655Y0042365D01*
X0038598Y0042345D01*
X0038539Y0042329D01*
X0038480Y0042316D01*
X0038421Y0042307D01*
X0038360Y0042302D01*
X0038300Y0042300D01*
X0036800Y0042300D01*
X0036300Y0042800D01*
X0017300Y0042800D01*
X0016800Y0042300D01*
X0015303Y0062100D02*
X0013168Y0062100D01*
X0012100Y0063168D01*
X0012100Y0067438D01*
X0013168Y0068505D01*
X0015303Y0068505D01*
X0016370Y0067438D01*
X0016370Y0065303D02*
X0014235Y0065303D01*
X0016370Y0065303D02*
X0016370Y0063168D01*
X0015303Y0062100D01*
X0018545Y0062100D02*
X0018545Y0068505D01*
X0022816Y0062100D01*
X0022816Y0068505D01*
X0024991Y0068505D02*
X0028194Y0068505D01*
X0029261Y0067438D01*
X0029261Y0063168D01*
X0028194Y0062100D01*
X0024991Y0062100D01*
X0024991Y0068505D01*
X0024971Y0072100D02*
X0022836Y0072100D01*
X0021768Y0073168D01*
X0019613Y0073168D02*
X0019613Y0072100D01*
X0018545Y0072100D01*
X0018545Y0073168D01*
X0019613Y0073168D01*
X0016370Y0073168D02*
X0015303Y0072100D01*
X0013168Y0072100D01*
X0012100Y0073168D01*
X0014235Y0075303D02*
X0015303Y0075303D01*
X0016370Y0074235D01*
X0016370Y0073168D01*
X0015303Y0075303D02*
X0016370Y0076370D01*
X0016370Y0077438D01*
X0015303Y0078505D01*
X0013168Y0078505D01*
X0012100Y0077438D01*
X0012100Y0082100D02*
X0012100Y0086370D01*
X0014235Y0088505D01*
X0016370Y0086370D01*
X0016370Y0082100D01*
X0016370Y0085303D02*
X0012100Y0085303D01*
X0018545Y0085303D02*
X0022816Y0085303D01*
X0021748Y0088505D02*
X0021748Y0082100D01*
X0022836Y0078505D02*
X0024971Y0078505D01*
X0026039Y0077438D01*
X0026039Y0076370D01*
X0024971Y0075303D01*
X0026039Y0074235D01*
X0026039Y0073168D01*
X0024971Y0072100D01*
X0024971Y0075303D02*
X0023903Y0075303D01*
X0021768Y0077438D02*
X0022836Y0078505D01*
X0024991Y0082100D02*
X0029261Y0088505D01*
X0031436Y0088505D02*
X0031436Y0082100D01*
X0035707Y0082100D01*
X0037882Y0082100D02*
X0042152Y0082100D01*
X0044327Y0082100D02*
X0047530Y0082100D01*
X0048598Y0083168D01*
X0048598Y0087438D01*
X0047530Y0088505D01*
X0044327Y0088505D01*
X0044327Y0082100D01*
X0040017Y0085303D02*
X0037882Y0085303D01*
X0037882Y0088505D02*
X0037882Y0082100D01*
X0032484Y0078505D02*
X0032484Y0074235D01*
X0030349Y0072100D01*
X0028214Y0074235D01*
X0028214Y0078505D01*
X0018545Y0085303D02*
X0021748Y0088505D01*
X0021748Y0092100D02*
X0021748Y0098505D01*
X0018545Y0095303D01*
X0022816Y0095303D01*
X0024991Y0092100D02*
X0029261Y0098505D01*
X0031436Y0098505D02*
X0031436Y0093168D01*
X0032504Y0092100D01*
X0034639Y0092100D01*
X0035707Y0093168D01*
X0035707Y0098505D01*
X0037882Y0097438D02*
X0037882Y0096370D01*
X0038950Y0095303D01*
X0041085Y0095303D01*
X0042152Y0094235D01*
X0042152Y0093168D01*
X0041085Y0092100D01*
X0038950Y0092100D01*
X0037882Y0093168D01*
X0037882Y0097438D02*
X0038950Y0098505D01*
X0041085Y0098505D01*
X0042152Y0097438D01*
X0044327Y0098505D02*
X0044327Y0092100D01*
X0048598Y0092100D01*
X0050773Y0092100D02*
X0050773Y0098505D01*
X0053976Y0098505D01*
X0055043Y0097438D01*
X0055043Y0095303D01*
X0053976Y0094235D01*
X0050773Y0094235D01*
X0052908Y0094235D02*
X0055043Y0092100D01*
X0048598Y0098505D02*
X0044327Y0098505D01*
X0044327Y0095303D02*
X0046463Y0095303D01*
X0042152Y0088505D02*
X0037882Y0088505D01*
X0022816Y0103168D02*
X0021748Y0102100D01*
X0019613Y0102100D01*
X0018545Y0103168D01*
X0016370Y0103168D02*
X0015303Y0102100D01*
X0012100Y0102100D01*
X0012100Y0108505D01*
X0015303Y0108505D01*
X0016370Y0107438D01*
X0016370Y0106370D01*
X0015303Y0105303D01*
X0012100Y0105303D01*
X0015303Y0105303D02*
X0016370Y0104235D01*
X0016370Y0103168D01*
X0018545Y0107438D02*
X0019613Y0108505D01*
X0021748Y0108505D01*
X0022816Y0107438D01*
X0022816Y0106370D01*
X0021748Y0105303D01*
X0022816Y0104235D01*
X0022816Y0103168D01*
X0021748Y0105303D02*
X0020681Y0105303D01*
X0022816Y0112100D02*
X0018545Y0112100D01*
X0022816Y0116370D01*
X0022816Y0117438D01*
X0021748Y0118505D01*
X0019613Y0118505D01*
X0018545Y0117438D01*
X0016370Y0117438D02*
X0016370Y0116370D01*
X0015303Y0115303D01*
X0012100Y0115303D01*
X0012100Y0118505D02*
X0015303Y0118505D01*
X0016370Y0117438D01*
X0015303Y0115303D02*
X0016370Y0114235D01*
X0016370Y0113168D01*
X0015303Y0112100D01*
X0012100Y0112100D01*
X0012100Y0118505D01*
X0012100Y0122100D02*
X0012100Y0126370D01*
X0014235Y0128505D01*
X0016370Y0126370D01*
X0016370Y0122100D01*
X0018545Y0122100D02*
X0022816Y0122100D01*
X0020681Y0122100D02*
X0020681Y0128505D01*
X0018545Y0126370D01*
X0016370Y0125303D02*
X0012100Y0125303D01*
X0012100Y0132100D02*
X0012100Y0136370D01*
X0014235Y0138505D01*
X0016370Y0136370D01*
X0016370Y0132100D01*
X0018545Y0133168D02*
X0022816Y0137438D01*
X0022816Y0133168D01*
X0021748Y0132100D01*
X0019613Y0132100D01*
X0018545Y0133168D01*
X0018545Y0137438D01*
X0019613Y0138505D01*
X0021748Y0138505D01*
X0022816Y0137438D01*
X0016370Y0135303D02*
X0012100Y0135303D01*
X0012100Y0098505D02*
X0015303Y0098505D01*
X0016370Y0097438D01*
X0016370Y0096370D01*
X0015303Y0095303D01*
X0012100Y0095303D01*
X0012100Y0098505D02*
X0012100Y0092100D01*
X0015303Y0092100D01*
X0016370Y0093168D01*
X0016370Y0094235D01*
X0015303Y0095303D01*
X0057800Y0036300D02*
X0065800Y0036300D01*
X0065860Y0036298D01*
X0065921Y0036293D01*
X0065980Y0036284D01*
X0066039Y0036271D01*
X0066098Y0036255D01*
X0066155Y0036235D01*
X0066210Y0036212D01*
X0066265Y0036185D01*
X0066317Y0036156D01*
X0066368Y0036123D01*
X0066417Y0036087D01*
X0066463Y0036049D01*
X0066507Y0036007D01*
X0066549Y0035963D01*
X0066587Y0035917D01*
X0066623Y0035868D01*
X0066656Y0035817D01*
X0066685Y0035765D01*
X0066712Y0035710D01*
X0066735Y0035655D01*
X0066755Y0035598D01*
X0066771Y0035539D01*
X0066784Y0035480D01*
X0066793Y0035421D01*
X0066798Y0035360D01*
X0066800Y0035300D01*
X0066800Y0018300D01*
X0066798Y0018240D01*
X0066793Y0018179D01*
X0066784Y0018120D01*
X0066771Y0018061D01*
X0066755Y0018002D01*
X0066735Y0017945D01*
X0066712Y0017890D01*
X0066685Y0017835D01*
X0066656Y0017783D01*
X0066623Y0017732D01*
X0066587Y0017683D01*
X0066549Y0017637D01*
X0066507Y0017593D01*
X0066463Y0017551D01*
X0066417Y0017513D01*
X0066368Y0017477D01*
X0066317Y0017444D01*
X0066265Y0017415D01*
X0066210Y0017388D01*
X0066155Y0017365D01*
X0066098Y0017345D01*
X0066039Y0017329D01*
X0065980Y0017316D01*
X0065921Y0017307D01*
X0065860Y0017302D01*
X0065800Y0017300D01*
X0057800Y0017300D01*
X0057740Y0017302D01*
X0057679Y0017307D01*
X0057620Y0017316D01*
X0057561Y0017329D01*
X0057502Y0017345D01*
X0057445Y0017365D01*
X0057390Y0017388D01*
X0057335Y0017415D01*
X0057283Y0017444D01*
X0057232Y0017477D01*
X0057183Y0017513D01*
X0057137Y0017551D01*
X0057093Y0017593D01*
X0057051Y0017637D01*
X0057013Y0017683D01*
X0056977Y0017732D01*
X0056944Y0017783D01*
X0056915Y0017835D01*
X0056888Y0017890D01*
X0056865Y0017945D01*
X0056845Y0018002D01*
X0056829Y0018061D01*
X0056816Y0018120D01*
X0056807Y0018179D01*
X0056802Y0018240D01*
X0056800Y0018300D01*
X0056800Y0035300D01*
X0056802Y0035360D01*
X0056807Y0035421D01*
X0056816Y0035480D01*
X0056829Y0035539D01*
X0056845Y0035598D01*
X0056865Y0035655D01*
X0056888Y0035710D01*
X0056915Y0035765D01*
X0056944Y0035817D01*
X0056977Y0035868D01*
X0057013Y0035917D01*
X0057051Y0035963D01*
X0057093Y0036007D01*
X0057137Y0036049D01*
X0057183Y0036087D01*
X0057232Y0036123D01*
X0057283Y0036156D01*
X0057335Y0036185D01*
X0057390Y0036212D01*
X0057445Y0036235D01*
X0057502Y0036255D01*
X0057561Y0036271D01*
X0057620Y0036284D01*
X0057679Y0036293D01*
X0057740Y0036298D01*
X0057800Y0036300D01*
X0061800Y0028300D02*
X0061800Y0027800D01*
X0061800Y0025800D02*
X0061800Y0025300D01*
X0090300Y0006800D02*
X0113300Y0006800D01*
X0113300Y0146800D01*
X0105800Y0146800D01*
X0105798Y0146674D01*
X0105792Y0146549D01*
X0105782Y0146424D01*
X0105768Y0146299D01*
X0105751Y0146174D01*
X0105729Y0146050D01*
X0105704Y0145927D01*
X0105674Y0145805D01*
X0105641Y0145684D01*
X0105604Y0145564D01*
X0105564Y0145445D01*
X0105519Y0145328D01*
X0105471Y0145211D01*
X0105419Y0145097D01*
X0105364Y0144984D01*
X0105305Y0144873D01*
X0105243Y0144764D01*
X0105177Y0144657D01*
X0105108Y0144552D01*
X0105036Y0144449D01*
X0104961Y0144348D01*
X0104882Y0144250D01*
X0104800Y0144155D01*
X0104716Y0144062D01*
X0104628Y0143972D01*
X0104538Y0143884D01*
X0104445Y0143800D01*
X0104350Y0143718D01*
X0104252Y0143639D01*
X0104151Y0143564D01*
X0104048Y0143492D01*
X0103943Y0143423D01*
X0103836Y0143357D01*
X0103727Y0143295D01*
X0103616Y0143236D01*
X0103503Y0143181D01*
X0103389Y0143129D01*
X0103272Y0143081D01*
X0103155Y0143036D01*
X0103036Y0142996D01*
X0102916Y0142959D01*
X0102795Y0142926D01*
X0102673Y0142896D01*
X0102550Y0142871D01*
X0102426Y0142849D01*
X0102301Y0142832D01*
X0102176Y0142818D01*
X0102051Y0142808D01*
X0101926Y0142802D01*
X0101800Y0142800D01*
X0101674Y0142802D01*
X0101549Y0142808D01*
X0101424Y0142818D01*
X0101299Y0142832D01*
X0101174Y0142849D01*
X0101050Y0142871D01*
X0100927Y0142896D01*
X0100805Y0142926D01*
X0100684Y0142959D01*
X0100564Y0142996D01*
X0100445Y0143036D01*
X0100328Y0143081D01*
X0100211Y0143129D01*
X0100097Y0143181D01*
X0099984Y0143236D01*
X0099873Y0143295D01*
X0099764Y0143357D01*
X0099657Y0143423D01*
X0099552Y0143492D01*
X0099449Y0143564D01*
X0099348Y0143639D01*
X0099250Y0143718D01*
X0099155Y0143800D01*
X0099062Y0143884D01*
X0098972Y0143972D01*
X0098884Y0144062D01*
X0098800Y0144155D01*
X0098718Y0144250D01*
X0098639Y0144348D01*
X0098564Y0144449D01*
X0098492Y0144552D01*
X0098423Y0144657D01*
X0098357Y0144764D01*
X0098295Y0144873D01*
X0098236Y0144984D01*
X0098181Y0145097D01*
X0098129Y0145211D01*
X0098081Y0145328D01*
X0098036Y0145445D01*
X0097996Y0145564D01*
X0097959Y0145684D01*
X0097926Y0145805D01*
X0097896Y0145927D01*
X0097871Y0146050D01*
X0097849Y0146174D01*
X0097832Y0146299D01*
X0097818Y0146424D01*
X0097808Y0146549D01*
X0097802Y0146674D01*
X0097800Y0146800D01*
X0090300Y0146800D01*
X0090300Y0006800D01*
X0130300Y0052300D02*
X0127300Y0055300D01*
X0127300Y0068300D01*
X0130300Y0071300D01*
X0154800Y0071300D01*
X0154876Y0071298D01*
X0154952Y0071292D01*
X0155027Y0071283D01*
X0155102Y0071269D01*
X0155176Y0071252D01*
X0155249Y0071231D01*
X0155321Y0071207D01*
X0155392Y0071178D01*
X0155461Y0071147D01*
X0155528Y0071112D01*
X0155593Y0071073D01*
X0155657Y0071031D01*
X0155718Y0070986D01*
X0155777Y0070938D01*
X0155833Y0070887D01*
X0155887Y0070833D01*
X0155938Y0070777D01*
X0155986Y0070718D01*
X0156031Y0070657D01*
X0156073Y0070593D01*
X0156112Y0070528D01*
X0156147Y0070461D01*
X0156178Y0070392D01*
X0156207Y0070321D01*
X0156231Y0070249D01*
X0156252Y0070176D01*
X0156269Y0070102D01*
X0156283Y0070027D01*
X0156292Y0069952D01*
X0156298Y0069876D01*
X0156300Y0069800D01*
X0156300Y0053800D01*
X0156298Y0053724D01*
X0156292Y0053648D01*
X0156283Y0053573D01*
X0156269Y0053498D01*
X0156252Y0053424D01*
X0156231Y0053351D01*
X0156207Y0053279D01*
X0156178Y0053208D01*
X0156147Y0053139D01*
X0156112Y0053072D01*
X0156073Y0053007D01*
X0156031Y0052943D01*
X0155986Y0052882D01*
X0155938Y0052823D01*
X0155887Y0052767D01*
X0155833Y0052713D01*
X0155777Y0052662D01*
X0155718Y0052614D01*
X0155657Y0052569D01*
X0155593Y0052527D01*
X0155528Y0052488D01*
X0155461Y0052453D01*
X0155392Y0052422D01*
X0155321Y0052393D01*
X0155249Y0052369D01*
X0155176Y0052348D01*
X0155102Y0052331D01*
X0155027Y0052317D01*
X0154952Y0052308D01*
X0154876Y0052302D01*
X0154800Y0052300D01*
X0130300Y0052300D01*
X0135800Y0061800D02*
X0139300Y0061800D01*
X0139300Y0066600D01*
X0141300Y0066600D01*
X0141300Y0057000D01*
X0139300Y0057000D01*
X0139300Y0061800D01*
X0144300Y0061800D02*
X0147800Y0061800D01*
X0136100Y0067200D02*
X0133500Y0067200D01*
X0134800Y0068400D02*
X0134800Y0065900D01*
X0155300Y0046300D02*
X0156800Y0046300D01*
X0157300Y0045800D01*
X0176300Y0045800D01*
X0176800Y0046300D01*
X0178300Y0046300D01*
X0178360Y0046298D01*
X0178421Y0046293D01*
X0178480Y0046284D01*
X0178539Y0046271D01*
X0178598Y0046255D01*
X0178655Y0046235D01*
X0178710Y0046212D01*
X0178765Y0046185D01*
X0178817Y0046156D01*
X0178868Y0046123D01*
X0178917Y0046087D01*
X0178963Y0046049D01*
X0179007Y0046007D01*
X0179049Y0045963D01*
X0179087Y0045917D01*
X0179123Y0045868D01*
X0179156Y0045817D01*
X0179185Y0045765D01*
X0179212Y0045710D01*
X0179235Y0045655D01*
X0179255Y0045598D01*
X0179271Y0045539D01*
X0179284Y0045480D01*
X0179293Y0045421D01*
X0179298Y0045360D01*
X0179300Y0045300D01*
X0179300Y0038300D01*
X0179298Y0038240D01*
X0179293Y0038179D01*
X0179284Y0038120D01*
X0179271Y0038061D01*
X0179255Y0038002D01*
X0179235Y0037945D01*
X0179212Y0037890D01*
X0179185Y0037835D01*
X0179156Y0037783D01*
X0179123Y0037732D01*
X0179087Y0037683D01*
X0179049Y0037637D01*
X0179007Y0037593D01*
X0178963Y0037551D01*
X0178917Y0037513D01*
X0178868Y0037477D01*
X0178817Y0037444D01*
X0178765Y0037415D01*
X0178710Y0037388D01*
X0178655Y0037365D01*
X0178598Y0037345D01*
X0178539Y0037329D01*
X0178480Y0037316D01*
X0178421Y0037307D01*
X0178360Y0037302D01*
X0178300Y0037300D01*
X0176800Y0037300D01*
X0176300Y0037800D01*
X0157300Y0037800D01*
X0156800Y0037300D01*
X0155300Y0037300D01*
X0155240Y0037302D01*
X0155179Y0037307D01*
X0155120Y0037316D01*
X0155061Y0037329D01*
X0155002Y0037345D01*
X0154945Y0037365D01*
X0154890Y0037388D01*
X0154835Y0037415D01*
X0154783Y0037444D01*
X0154732Y0037477D01*
X0154683Y0037513D01*
X0154637Y0037551D01*
X0154593Y0037593D01*
X0154551Y0037637D01*
X0154513Y0037683D01*
X0154477Y0037732D01*
X0154444Y0037783D01*
X0154415Y0037835D01*
X0154388Y0037890D01*
X0154365Y0037945D01*
X0154345Y0038002D01*
X0154329Y0038061D01*
X0154316Y0038120D01*
X0154307Y0038179D01*
X0154302Y0038240D01*
X0154300Y0038300D01*
X0154300Y0045300D01*
X0154302Y0045360D01*
X0154307Y0045421D01*
X0154316Y0045480D01*
X0154329Y0045539D01*
X0154345Y0045598D01*
X0154365Y0045655D01*
X0154388Y0045710D01*
X0154415Y0045765D01*
X0154444Y0045817D01*
X0154477Y0045868D01*
X0154513Y0045917D01*
X0154551Y0045963D01*
X0154593Y0046007D01*
X0154637Y0046049D01*
X0154683Y0046087D01*
X0154732Y0046123D01*
X0154783Y0046156D01*
X0154835Y0046185D01*
X0154890Y0046212D01*
X0154945Y0046235D01*
X0155002Y0046255D01*
X0155061Y0046271D01*
X0155120Y0046284D01*
X0155179Y0046293D01*
X0155240Y0046298D01*
X0155300Y0046300D01*
X0155300Y0031300D02*
X0156800Y0031300D01*
X0157300Y0030800D01*
X0176300Y0030800D01*
X0176800Y0031300D01*
X0178300Y0031300D01*
X0178360Y0031298D01*
X0178421Y0031293D01*
X0178480Y0031284D01*
X0178539Y0031271D01*
X0178598Y0031255D01*
X0178655Y0031235D01*
X0178710Y0031212D01*
X0178765Y0031185D01*
X0178817Y0031156D01*
X0178868Y0031123D01*
X0178917Y0031087D01*
X0178963Y0031049D01*
X0179007Y0031007D01*
X0179049Y0030963D01*
X0179087Y0030917D01*
X0179123Y0030868D01*
X0179156Y0030817D01*
X0179185Y0030765D01*
X0179212Y0030710D01*
X0179235Y0030655D01*
X0179255Y0030598D01*
X0179271Y0030539D01*
X0179284Y0030480D01*
X0179293Y0030421D01*
X0179298Y0030360D01*
X0179300Y0030300D01*
X0179300Y0023300D01*
X0179298Y0023240D01*
X0179293Y0023179D01*
X0179284Y0023120D01*
X0179271Y0023061D01*
X0179255Y0023002D01*
X0179235Y0022945D01*
X0179212Y0022890D01*
X0179185Y0022835D01*
X0179156Y0022783D01*
X0179123Y0022732D01*
X0179087Y0022683D01*
X0179049Y0022637D01*
X0179007Y0022593D01*
X0178963Y0022551D01*
X0178917Y0022513D01*
X0178868Y0022477D01*
X0178817Y0022444D01*
X0178765Y0022415D01*
X0178710Y0022388D01*
X0178655Y0022365D01*
X0178598Y0022345D01*
X0178539Y0022329D01*
X0178480Y0022316D01*
X0178421Y0022307D01*
X0178360Y0022302D01*
X0178300Y0022300D01*
X0176800Y0022300D01*
X0176300Y0022800D01*
X0157300Y0022800D01*
X0156800Y0022300D01*
X0155300Y0022300D01*
X0155240Y0022302D01*
X0155179Y0022307D01*
X0155120Y0022316D01*
X0155061Y0022329D01*
X0155002Y0022345D01*
X0154945Y0022365D01*
X0154890Y0022388D01*
X0154835Y0022415D01*
X0154783Y0022444D01*
X0154732Y0022477D01*
X0154683Y0022513D01*
X0154637Y0022551D01*
X0154593Y0022593D01*
X0154551Y0022637D01*
X0154513Y0022683D01*
X0154477Y0022732D01*
X0154444Y0022783D01*
X0154415Y0022835D01*
X0154388Y0022890D01*
X0154365Y0022945D01*
X0154345Y0023002D01*
X0154329Y0023061D01*
X0154316Y0023120D01*
X0154307Y0023179D01*
X0154302Y0023240D01*
X0154300Y0023300D01*
X0154300Y0030300D01*
X0154302Y0030360D01*
X0154307Y0030421D01*
X0154316Y0030480D01*
X0154329Y0030539D01*
X0154345Y0030598D01*
X0154365Y0030655D01*
X0154388Y0030710D01*
X0154415Y0030765D01*
X0154444Y0030817D01*
X0154477Y0030868D01*
X0154513Y0030917D01*
X0154551Y0030963D01*
X0154593Y0031007D01*
X0154637Y0031049D01*
X0154683Y0031087D01*
X0154732Y0031123D01*
X0154783Y0031156D01*
X0154835Y0031185D01*
X0154890Y0031212D01*
X0154945Y0031235D01*
X0155002Y0031255D01*
X0155061Y0031271D01*
X0155120Y0031284D01*
X0155179Y0031293D01*
X0155240Y0031298D01*
X0155300Y0031300D01*
X0169418Y0063350D02*
X0171553Y0063350D01*
X0172620Y0064418D01*
X0172620Y0066553D01*
X0170485Y0066553D01*
X0168350Y0068688D02*
X0168350Y0064418D01*
X0169418Y0063350D01*
X0174795Y0063350D02*
X0174795Y0069755D01*
X0179066Y0063350D01*
X0179066Y0069755D01*
X0181241Y0069755D02*
X0184444Y0069755D01*
X0185511Y0068688D01*
X0185511Y0064418D01*
X0184444Y0063350D01*
X0181241Y0063350D01*
X0181241Y0069755D01*
X0180303Y0072100D02*
X0178168Y0072100D01*
X0177100Y0073168D01*
X0177100Y0075303D02*
X0179235Y0076370D01*
X0180303Y0076370D01*
X0181370Y0075303D01*
X0181370Y0073168D01*
X0180303Y0072100D01*
X0183545Y0074235D02*
X0185681Y0072100D01*
X0187816Y0074235D01*
X0187816Y0078505D01*
X0183545Y0078505D02*
X0183545Y0074235D01*
X0181370Y0078505D02*
X0177100Y0078505D01*
X0177100Y0075303D01*
X0177100Y0082100D02*
X0180303Y0082100D01*
X0181370Y0083168D01*
X0181370Y0084235D01*
X0180303Y0085303D01*
X0177100Y0085303D01*
X0180303Y0085303D02*
X0181370Y0086370D01*
X0181370Y0087438D01*
X0180303Y0088505D01*
X0177100Y0088505D01*
X0177100Y0082100D01*
X0183545Y0082100D02*
X0183545Y0083168D01*
X0187816Y0087438D01*
X0187816Y0088505D01*
X0183545Y0088505D01*
X0184613Y0092100D02*
X0183545Y0093168D01*
X0183545Y0094235D01*
X0184613Y0095303D01*
X0186748Y0095303D01*
X0187816Y0094235D01*
X0187816Y0093168D01*
X0186748Y0092100D01*
X0184613Y0092100D01*
X0181370Y0093168D02*
X0180303Y0092100D01*
X0177100Y0092100D01*
X0177100Y0098505D01*
X0180303Y0098505D01*
X0181370Y0097438D01*
X0181370Y0096370D01*
X0180303Y0095303D01*
X0177100Y0095303D01*
X0180303Y0095303D02*
X0181370Y0094235D01*
X0181370Y0093168D01*
X0183545Y0096370D02*
X0183545Y0097438D01*
X0184613Y0098505D01*
X0186748Y0098505D01*
X0187816Y0097438D01*
X0187816Y0096370D01*
X0186748Y0095303D01*
X0184613Y0095303D02*
X0183545Y0096370D01*
X0184613Y0102100D02*
X0186748Y0102100D01*
X0187816Y0103168D01*
X0187816Y0107438D01*
X0186748Y0108505D01*
X0184613Y0108505D01*
X0183545Y0107438D01*
X0183545Y0106370D01*
X0184613Y0105303D01*
X0187816Y0105303D01*
X0184613Y0102100D02*
X0183545Y0103168D01*
X0181370Y0103168D02*
X0180303Y0102100D01*
X0177100Y0102100D01*
X0177100Y0108505D01*
X0180303Y0108505D01*
X0181370Y0107438D01*
X0181370Y0106370D01*
X0180303Y0105303D01*
X0177100Y0105303D01*
X0180303Y0105303D02*
X0181370Y0104235D01*
X0181370Y0103168D01*
X0180681Y0112100D02*
X0180681Y0118505D01*
X0178545Y0116370D01*
X0176370Y0116370D02*
X0176370Y0117438D01*
X0175303Y0118505D01*
X0172100Y0118505D01*
X0172100Y0112100D01*
X0175303Y0112100D01*
X0176370Y0113168D01*
X0176370Y0114235D01*
X0175303Y0115303D01*
X0172100Y0115303D01*
X0175303Y0115303D02*
X0176370Y0116370D01*
X0178545Y0112100D02*
X0182816Y0112100D01*
X0184991Y0113168D02*
X0186059Y0112100D01*
X0188194Y0112100D01*
X0189261Y0113168D01*
X0189261Y0114235D01*
X0188194Y0115303D01*
X0187126Y0115303D01*
X0188194Y0115303D02*
X0189261Y0116370D01*
X0189261Y0117438D01*
X0188194Y0118505D01*
X0186059Y0118505D01*
X0184991Y0117438D01*
X0182816Y0122100D02*
X0178545Y0122100D01*
X0180681Y0122100D02*
X0180681Y0128505D01*
X0178545Y0126370D01*
X0176370Y0126370D02*
X0176370Y0127438D01*
X0175303Y0128505D01*
X0172100Y0128505D01*
X0172100Y0122100D01*
X0175303Y0122100D01*
X0176370Y0123168D01*
X0176370Y0124235D01*
X0175303Y0125303D01*
X0172100Y0125303D01*
X0175303Y0125303D02*
X0176370Y0126370D01*
X0175303Y0132100D02*
X0172100Y0132100D01*
X0172100Y0138505D01*
X0175303Y0138505D01*
X0176370Y0137438D01*
X0176370Y0136370D01*
X0175303Y0135303D01*
X0172100Y0135303D01*
X0175303Y0135303D02*
X0176370Y0134235D01*
X0176370Y0133168D01*
X0175303Y0132100D01*
X0178545Y0132100D02*
X0182816Y0132100D01*
X0180681Y0132100D02*
X0180681Y0138505D01*
X0178545Y0136370D01*
X0184991Y0135303D02*
X0187126Y0136370D01*
X0188194Y0136370D01*
X0189261Y0135303D01*
X0189261Y0133168D01*
X0188194Y0132100D01*
X0186059Y0132100D01*
X0184991Y0133168D01*
X0184991Y0135303D02*
X0184991Y0138505D01*
X0189261Y0138505D01*
X0188194Y0128505D02*
X0184991Y0125303D01*
X0189261Y0125303D01*
X0188194Y0128505D02*
X0188194Y0122100D01*
X0158300Y0152300D02*
X0156800Y0152300D01*
X0156300Y0152800D01*
X0137300Y0152800D01*
X0136800Y0152300D01*
X0135300Y0152300D01*
X0135240Y0152302D01*
X0135179Y0152307D01*
X0135120Y0152316D01*
X0135061Y0152329D01*
X0135002Y0152345D01*
X0134945Y0152365D01*
X0134890Y0152388D01*
X0134835Y0152415D01*
X0134783Y0152444D01*
X0134732Y0152477D01*
X0134683Y0152513D01*
X0134637Y0152551D01*
X0134593Y0152593D01*
X0134551Y0152637D01*
X0134513Y0152683D01*
X0134477Y0152732D01*
X0134444Y0152783D01*
X0134415Y0152835D01*
X0134388Y0152890D01*
X0134365Y0152945D01*
X0134345Y0153002D01*
X0134329Y0153061D01*
X0134316Y0153120D01*
X0134307Y0153179D01*
X0134302Y0153240D01*
X0134300Y0153300D01*
X0134300Y0160300D01*
X0134302Y0160360D01*
X0134307Y0160421D01*
X0134316Y0160480D01*
X0134329Y0160539D01*
X0134345Y0160598D01*
X0134365Y0160655D01*
X0134388Y0160710D01*
X0134415Y0160765D01*
X0134444Y0160817D01*
X0134477Y0160868D01*
X0134513Y0160917D01*
X0134551Y0160963D01*
X0134593Y0161007D01*
X0134637Y0161049D01*
X0134683Y0161087D01*
X0134732Y0161123D01*
X0134783Y0161156D01*
X0134835Y0161185D01*
X0134890Y0161212D01*
X0134945Y0161235D01*
X0135002Y0161255D01*
X0135061Y0161271D01*
X0135120Y0161284D01*
X0135179Y0161293D01*
X0135240Y0161298D01*
X0135300Y0161300D01*
X0136800Y0161300D01*
X0137300Y0160800D01*
X0156300Y0160800D01*
X0156800Y0161300D01*
X0158300Y0161300D01*
X0158360Y0161298D01*
X0158421Y0161293D01*
X0158480Y0161284D01*
X0158539Y0161271D01*
X0158598Y0161255D01*
X0158655Y0161235D01*
X0158710Y0161212D01*
X0158765Y0161185D01*
X0158817Y0161156D01*
X0158868Y0161123D01*
X0158917Y0161087D01*
X0158963Y0161049D01*
X0159007Y0161007D01*
X0159049Y0160963D01*
X0159087Y0160917D01*
X0159123Y0160868D01*
X0159156Y0160817D01*
X0159185Y0160765D01*
X0159212Y0160710D01*
X0159235Y0160655D01*
X0159255Y0160598D01*
X0159271Y0160539D01*
X0159284Y0160480D01*
X0159293Y0160421D01*
X0159298Y0160360D01*
X0159300Y0160300D01*
X0159300Y0153300D01*
X0159298Y0153240D01*
X0159293Y0153179D01*
X0159284Y0153120D01*
X0159271Y0153061D01*
X0159255Y0153002D01*
X0159235Y0152945D01*
X0159212Y0152890D01*
X0159185Y0152835D01*
X0159156Y0152783D01*
X0159123Y0152732D01*
X0159087Y0152683D01*
X0159049Y0152637D01*
X0159007Y0152593D01*
X0158963Y0152551D01*
X0158917Y0152513D01*
X0158868Y0152477D01*
X0158817Y0152444D01*
X0158765Y0152415D01*
X0158710Y0152388D01*
X0158655Y0152365D01*
X0158598Y0152345D01*
X0158539Y0152329D01*
X0158480Y0152316D01*
X0158421Y0152307D01*
X0158360Y0152302D01*
X0158300Y0152300D01*
X0153800Y0162300D02*
X0169800Y0162300D01*
X0169876Y0162302D01*
X0169952Y0162308D01*
X0170027Y0162317D01*
X0170102Y0162331D01*
X0170176Y0162348D01*
X0170249Y0162369D01*
X0170321Y0162393D01*
X0170392Y0162422D01*
X0170461Y0162453D01*
X0170528Y0162488D01*
X0170593Y0162527D01*
X0170657Y0162569D01*
X0170718Y0162614D01*
X0170777Y0162662D01*
X0170833Y0162713D01*
X0170887Y0162767D01*
X0170938Y0162823D01*
X0170986Y0162882D01*
X0171031Y0162943D01*
X0171073Y0163007D01*
X0171112Y0163072D01*
X0171147Y0163139D01*
X0171178Y0163208D01*
X0171207Y0163279D01*
X0171231Y0163351D01*
X0171252Y0163424D01*
X0171269Y0163498D01*
X0171283Y0163573D01*
X0171292Y0163648D01*
X0171298Y0163724D01*
X0171300Y0163800D01*
X0171300Y0188300D01*
X0168300Y0191300D01*
X0155300Y0191300D01*
X0152300Y0188300D01*
X0152300Y0163800D01*
X0152302Y0163724D01*
X0152308Y0163648D01*
X0152317Y0163573D01*
X0152331Y0163498D01*
X0152348Y0163424D01*
X0152369Y0163351D01*
X0152393Y0163279D01*
X0152422Y0163208D01*
X0152453Y0163139D01*
X0152488Y0163072D01*
X0152527Y0163007D01*
X0152569Y0162943D01*
X0152614Y0162882D01*
X0152662Y0162823D01*
X0152713Y0162767D01*
X0152767Y0162713D01*
X0152823Y0162662D01*
X0152882Y0162614D01*
X0152943Y0162569D01*
X0153007Y0162527D01*
X0153072Y0162488D01*
X0153139Y0162453D01*
X0153208Y0162422D01*
X0153279Y0162393D01*
X0153351Y0162369D01*
X0153424Y0162348D01*
X0153498Y0162331D01*
X0153573Y0162317D01*
X0153648Y0162308D01*
X0153724Y0162302D01*
X0153800Y0162300D01*
X0161800Y0170800D02*
X0161800Y0174300D01*
X0157000Y0177300D02*
X0166600Y0177300D01*
X0166600Y0179300D01*
X0161800Y0179300D01*
X0157000Y0179300D01*
X0157000Y0177300D01*
X0161800Y0179300D02*
X0161800Y0182800D01*
X0165900Y0183800D02*
X0168400Y0183800D01*
X0167200Y0182500D02*
X0167200Y0185100D01*
X0147800Y0171800D02*
X0147798Y0171646D01*
X0147792Y0171492D01*
X0147782Y0171338D01*
X0147768Y0171184D01*
X0147751Y0171031D01*
X0147729Y0170879D01*
X0147703Y0170727D01*
X0147674Y0170575D01*
X0147640Y0170425D01*
X0147603Y0170275D01*
X0147562Y0170127D01*
X0147517Y0169979D01*
X0147468Y0169833D01*
X0147416Y0169688D01*
X0147360Y0169545D01*
X0147300Y0169402D01*
X0147237Y0169262D01*
X0147170Y0169123D01*
X0147099Y0168986D01*
X0147025Y0168851D01*
X0146948Y0168718D01*
X0146867Y0168586D01*
X0146783Y0168457D01*
X0146695Y0168330D01*
X0146604Y0168206D01*
X0146511Y0168084D01*
X0146413Y0167964D01*
X0146313Y0167847D01*
X0146210Y0167732D01*
X0146104Y0167620D01*
X0145996Y0167511D01*
X0145884Y0167405D01*
X0145770Y0167301D01*
X0145653Y0167201D01*
X0145534Y0167103D01*
X0145412Y0167009D01*
X0145287Y0166918D01*
X0135800Y0171800D02*
X0135802Y0171952D01*
X0135808Y0172103D01*
X0135817Y0172254D01*
X0135831Y0172406D01*
X0135848Y0172556D01*
X0135869Y0172706D01*
X0135894Y0172856D01*
X0135922Y0173005D01*
X0135955Y0173153D01*
X0135991Y0173300D01*
X0136030Y0173447D01*
X0136074Y0173592D01*
X0136121Y0173736D01*
X0136172Y0173879D01*
X0136226Y0174020D01*
X0136284Y0174161D01*
X0136345Y0174299D01*
X0136410Y0174436D01*
X0136479Y0174572D01*
X0136550Y0174705D01*
X0136625Y0174837D01*
X0136704Y0174967D01*
X0136785Y0175094D01*
X0136870Y0175220D01*
X0136958Y0175344D01*
X0137049Y0175465D01*
X0137143Y0175584D01*
X0137241Y0175700D01*
X0137341Y0175814D01*
X0137443Y0175926D01*
X0137549Y0176034D01*
X0137657Y0176140D01*
X0137768Y0176244D01*
X0137882Y0176344D01*
X0137998Y0176442D01*
X0138117Y0176536D01*
X0135800Y0171800D02*
X0135802Y0171648D01*
X0135808Y0171497D01*
X0135817Y0171346D01*
X0135831Y0171194D01*
X0135848Y0171044D01*
X0135869Y0170894D01*
X0135894Y0170744D01*
X0135922Y0170595D01*
X0135955Y0170447D01*
X0135991Y0170300D01*
X0136030Y0170153D01*
X0136074Y0170008D01*
X0136121Y0169864D01*
X0136172Y0169721D01*
X0136226Y0169580D01*
X0136284Y0169439D01*
X0136345Y0169301D01*
X0136410Y0169164D01*
X0136479Y0169028D01*
X0136550Y0168895D01*
X0136625Y0168763D01*
X0136704Y0168633D01*
X0136785Y0168506D01*
X0136870Y0168380D01*
X0136958Y0168256D01*
X0137049Y0168135D01*
X0137143Y0168016D01*
X0137241Y0167900D01*
X0137341Y0167786D01*
X0137443Y0167674D01*
X0137549Y0167566D01*
X0137657Y0167460D01*
X0137768Y0167356D01*
X0137882Y0167256D01*
X0137998Y0167158D01*
X0138117Y0167064D01*
X0147800Y0171800D02*
X0147798Y0171950D01*
X0147792Y0172101D01*
X0147783Y0172251D01*
X0147770Y0172400D01*
X0147753Y0172550D01*
X0147732Y0172699D01*
X0147708Y0172847D01*
X0147680Y0172995D01*
X0147648Y0173142D01*
X0147613Y0173288D01*
X0147573Y0173433D01*
X0147531Y0173577D01*
X0147484Y0173720D01*
X0147434Y0173862D01*
X0147381Y0174003D01*
X0147324Y0174142D01*
X0147264Y0174280D01*
X0147200Y0174416D01*
X0147133Y0174550D01*
X0147062Y0174683D01*
X0146988Y0174814D01*
X0146911Y0174943D01*
X0146830Y0175070D01*
X0146747Y0175195D01*
X0146660Y0175318D01*
X0146571Y0175439D01*
X0146478Y0175557D01*
X0146382Y0175673D01*
X0146284Y0175787D01*
X0146183Y0175898D01*
X0146078Y0176007D01*
X0145972Y0176112D01*
X0145862Y0176216D01*
X0145750Y0176316D01*
X0145636Y0176414D01*
X0145519Y0176508D01*
X0145400Y0176600D01*
X0131300Y0170800D02*
X0131300Y0162800D01*
X0131298Y0162740D01*
X0131293Y0162679D01*
X0131284Y0162620D01*
X0131271Y0162561D01*
X0131255Y0162502D01*
X0131235Y0162445D01*
X0131212Y0162390D01*
X0131185Y0162335D01*
X0131156Y0162283D01*
X0131123Y0162232D01*
X0131087Y0162183D01*
X0131049Y0162137D01*
X0131007Y0162093D01*
X0130963Y0162051D01*
X0130917Y0162013D01*
X0130868Y0161977D01*
X0130817Y0161944D01*
X0130765Y0161915D01*
X0130710Y0161888D01*
X0130655Y0161865D01*
X0130598Y0161845D01*
X0130539Y0161829D01*
X0130480Y0161816D01*
X0130421Y0161807D01*
X0130360Y0161802D01*
X0130300Y0161800D01*
X0113300Y0161800D01*
X0113240Y0161802D01*
X0113179Y0161807D01*
X0113120Y0161816D01*
X0113061Y0161829D01*
X0113002Y0161845D01*
X0112945Y0161865D01*
X0112890Y0161888D01*
X0112835Y0161915D01*
X0112783Y0161944D01*
X0112732Y0161977D01*
X0112683Y0162013D01*
X0112637Y0162051D01*
X0112593Y0162093D01*
X0112551Y0162137D01*
X0112513Y0162183D01*
X0112477Y0162232D01*
X0112444Y0162283D01*
X0112415Y0162335D01*
X0112388Y0162390D01*
X0112365Y0162445D01*
X0112345Y0162502D01*
X0112329Y0162561D01*
X0112316Y0162620D01*
X0112307Y0162679D01*
X0112302Y0162740D01*
X0112300Y0162800D01*
X0112300Y0170800D01*
X0111300Y0170800D02*
X0111300Y0162800D01*
X0111298Y0162740D01*
X0111293Y0162679D01*
X0111284Y0162620D01*
X0111271Y0162561D01*
X0111255Y0162502D01*
X0111235Y0162445D01*
X0111212Y0162390D01*
X0111185Y0162335D01*
X0111156Y0162283D01*
X0111123Y0162232D01*
X0111087Y0162183D01*
X0111049Y0162137D01*
X0111007Y0162093D01*
X0110963Y0162051D01*
X0110917Y0162013D01*
X0110868Y0161977D01*
X0110817Y0161944D01*
X0110765Y0161915D01*
X0110710Y0161888D01*
X0110655Y0161865D01*
X0110598Y0161845D01*
X0110539Y0161829D01*
X0110480Y0161816D01*
X0110421Y0161807D01*
X0110360Y0161802D01*
X0110300Y0161800D01*
X0093300Y0161800D01*
X0093240Y0161802D01*
X0093179Y0161807D01*
X0093120Y0161816D01*
X0093061Y0161829D01*
X0093002Y0161845D01*
X0092945Y0161865D01*
X0092890Y0161888D01*
X0092835Y0161915D01*
X0092783Y0161944D01*
X0092732Y0161977D01*
X0092683Y0162013D01*
X0092637Y0162051D01*
X0092593Y0162093D01*
X0092551Y0162137D01*
X0092513Y0162183D01*
X0092477Y0162232D01*
X0092444Y0162283D01*
X0092415Y0162335D01*
X0092388Y0162390D01*
X0092365Y0162445D01*
X0092345Y0162502D01*
X0092329Y0162561D01*
X0092316Y0162620D01*
X0092307Y0162679D01*
X0092302Y0162740D01*
X0092300Y0162800D01*
X0092300Y0170800D01*
X0092302Y0170860D01*
X0092307Y0170921D01*
X0092316Y0170980D01*
X0092329Y0171039D01*
X0092345Y0171098D01*
X0092365Y0171155D01*
X0092388Y0171210D01*
X0092415Y0171265D01*
X0092444Y0171317D01*
X0092477Y0171368D01*
X0092513Y0171417D01*
X0092551Y0171463D01*
X0092593Y0171507D01*
X0092637Y0171549D01*
X0092683Y0171587D01*
X0092732Y0171623D01*
X0092783Y0171656D01*
X0092835Y0171685D01*
X0092890Y0171712D01*
X0092945Y0171735D01*
X0093002Y0171755D01*
X0093061Y0171771D01*
X0093120Y0171784D01*
X0093179Y0171793D01*
X0093240Y0171798D01*
X0093300Y0171800D01*
X0110300Y0171800D01*
X0110360Y0171798D01*
X0110421Y0171793D01*
X0110480Y0171784D01*
X0110539Y0171771D01*
X0110598Y0171755D01*
X0110655Y0171735D01*
X0110710Y0171712D01*
X0110765Y0171685D01*
X0110817Y0171656D01*
X0110868Y0171623D01*
X0110917Y0171587D01*
X0110963Y0171549D01*
X0111007Y0171507D01*
X0111049Y0171463D01*
X0111087Y0171417D01*
X0111123Y0171368D01*
X0111156Y0171317D01*
X0111185Y0171265D01*
X0111212Y0171210D01*
X0111235Y0171155D01*
X0111255Y0171098D01*
X0111271Y0171039D01*
X0111284Y0170980D01*
X0111293Y0170921D01*
X0111298Y0170860D01*
X0111300Y0170800D01*
X0112300Y0170800D02*
X0112302Y0170860D01*
X0112307Y0170921D01*
X0112316Y0170980D01*
X0112329Y0171039D01*
X0112345Y0171098D01*
X0112365Y0171155D01*
X0112388Y0171210D01*
X0112415Y0171265D01*
X0112444Y0171317D01*
X0112477Y0171368D01*
X0112513Y0171417D01*
X0112551Y0171463D01*
X0112593Y0171507D01*
X0112637Y0171549D01*
X0112683Y0171587D01*
X0112732Y0171623D01*
X0112783Y0171656D01*
X0112835Y0171685D01*
X0112890Y0171712D01*
X0112945Y0171735D01*
X0113002Y0171755D01*
X0113061Y0171771D01*
X0113120Y0171784D01*
X0113179Y0171793D01*
X0113240Y0171798D01*
X0113300Y0171800D01*
X0130300Y0171800D01*
X0130360Y0171798D01*
X0130421Y0171793D01*
X0130480Y0171784D01*
X0130539Y0171771D01*
X0130598Y0171755D01*
X0130655Y0171735D01*
X0130710Y0171712D01*
X0130765Y0171685D01*
X0130817Y0171656D01*
X0130868Y0171623D01*
X0130917Y0171587D01*
X0130963Y0171549D01*
X0131007Y0171507D01*
X0131049Y0171463D01*
X0131087Y0171417D01*
X0131123Y0171368D01*
X0131156Y0171317D01*
X0131185Y0171265D01*
X0131212Y0171210D01*
X0131235Y0171155D01*
X0131255Y0171098D01*
X0131271Y0171039D01*
X0131284Y0170980D01*
X0131293Y0170921D01*
X0131298Y0170860D01*
X0131300Y0170800D01*
X0123300Y0166800D02*
X0122800Y0166800D01*
X0120800Y0166800D02*
X0120300Y0166800D01*
X0103300Y0166800D02*
X0102800Y0166800D01*
X0100800Y0166800D02*
X0100300Y0166800D01*
X0131800Y0145300D02*
X0131800Y0128300D01*
X0131802Y0128240D01*
X0131807Y0128179D01*
X0131816Y0128120D01*
X0131829Y0128061D01*
X0131845Y0128002D01*
X0131865Y0127945D01*
X0131888Y0127890D01*
X0131915Y0127835D01*
X0131944Y0127783D01*
X0131977Y0127732D01*
X0132013Y0127683D01*
X0132051Y0127637D01*
X0132093Y0127593D01*
X0132137Y0127551D01*
X0132183Y0127513D01*
X0132232Y0127477D01*
X0132283Y0127444D01*
X0132335Y0127415D01*
X0132390Y0127388D01*
X0132445Y0127365D01*
X0132502Y0127345D01*
X0132561Y0127329D01*
X0132620Y0127316D01*
X0132679Y0127307D01*
X0132740Y0127302D01*
X0132800Y0127300D01*
X0140800Y0127300D01*
X0140860Y0127302D01*
X0140921Y0127307D01*
X0140980Y0127316D01*
X0141039Y0127329D01*
X0141098Y0127345D01*
X0141155Y0127365D01*
X0141210Y0127388D01*
X0141265Y0127415D01*
X0141317Y0127444D01*
X0141368Y0127477D01*
X0141417Y0127513D01*
X0141463Y0127551D01*
X0141507Y0127593D01*
X0141549Y0127637D01*
X0141587Y0127683D01*
X0141623Y0127732D01*
X0141656Y0127783D01*
X0141685Y0127835D01*
X0141712Y0127890D01*
X0141735Y0127945D01*
X0141755Y0128002D01*
X0141771Y0128061D01*
X0141784Y0128120D01*
X0141793Y0128179D01*
X0141798Y0128240D01*
X0141800Y0128300D01*
X0141800Y0145300D01*
X0141798Y0145360D01*
X0141793Y0145421D01*
X0141784Y0145480D01*
X0141771Y0145539D01*
X0141755Y0145598D01*
X0141735Y0145655D01*
X0141712Y0145710D01*
X0141685Y0145765D01*
X0141656Y0145817D01*
X0141623Y0145868D01*
X0141587Y0145917D01*
X0141549Y0145963D01*
X0141507Y0146007D01*
X0141463Y0146049D01*
X0141417Y0146087D01*
X0141368Y0146123D01*
X0141317Y0146156D01*
X0141265Y0146185D01*
X0141210Y0146212D01*
X0141155Y0146235D01*
X0141098Y0146255D01*
X0141039Y0146271D01*
X0140980Y0146284D01*
X0140921Y0146293D01*
X0140860Y0146298D01*
X0140800Y0146300D01*
X0132800Y0146300D01*
X0132740Y0146298D01*
X0132679Y0146293D01*
X0132620Y0146284D01*
X0132561Y0146271D01*
X0132502Y0146255D01*
X0132445Y0146235D01*
X0132390Y0146212D01*
X0132335Y0146185D01*
X0132283Y0146156D01*
X0132232Y0146123D01*
X0132183Y0146087D01*
X0132137Y0146049D01*
X0132093Y0146007D01*
X0132051Y0145963D01*
X0132013Y0145917D01*
X0131977Y0145868D01*
X0131944Y0145817D01*
X0131915Y0145765D01*
X0131888Y0145710D01*
X0131865Y0145655D01*
X0131845Y0145598D01*
X0131829Y0145539D01*
X0131816Y0145480D01*
X0131807Y0145421D01*
X0131802Y0145360D01*
X0131800Y0145300D01*
X0136800Y0138300D02*
X0136800Y0137800D01*
X0136800Y0135800D02*
X0136800Y0135300D01*
X0169418Y0069755D02*
X0168350Y0068688D01*
X0169418Y0069755D02*
X0171553Y0069755D01*
X0172620Y0068688D01*
D12*
X0173684Y0155700D02*
X0173200Y0156184D01*
X0173684Y0155700D02*
X0174651Y0155700D01*
X0175135Y0156184D01*
X0175135Y0156667D01*
X0174651Y0157151D01*
X0174167Y0157151D01*
X0174651Y0157151D02*
X0175135Y0157635D01*
X0175135Y0158119D01*
X0174651Y0158602D01*
X0173684Y0158602D01*
X0173200Y0158119D01*
X0176147Y0156184D02*
X0176630Y0156184D01*
X0176630Y0155700D01*
X0176147Y0155700D01*
X0176147Y0156184D01*
X0177620Y0156184D02*
X0178104Y0155700D01*
X0179071Y0155700D01*
X0179555Y0156184D01*
X0179555Y0156667D01*
X0179071Y0157151D01*
X0178587Y0157151D01*
X0179071Y0157151D02*
X0179555Y0157635D01*
X0179555Y0158119D01*
X0179071Y0158602D01*
X0178104Y0158602D01*
X0177620Y0158119D01*
X0180566Y0158602D02*
X0180566Y0156667D01*
X0181534Y0155700D01*
X0182501Y0156667D01*
X0182501Y0158602D01*
X0182397Y0164450D02*
X0182397Y0167352D01*
X0184331Y0164450D01*
X0184331Y0167352D01*
X0185343Y0167352D02*
X0186794Y0167352D01*
X0187278Y0166869D01*
X0187278Y0164934D01*
X0186794Y0164450D01*
X0185343Y0164450D01*
X0185343Y0167352D01*
X0181385Y0166869D02*
X0180901Y0167352D01*
X0179934Y0167352D01*
X0179450Y0166869D01*
X0179450Y0164934D01*
X0179934Y0164450D01*
X0180901Y0164450D01*
X0181385Y0164934D01*
X0181385Y0165901D01*
X0180417Y0165901D01*
X0181950Y0171950D02*
X0181950Y0174852D01*
X0183401Y0174852D01*
X0183885Y0174369D01*
X0183885Y0173401D01*
X0183401Y0172917D01*
X0181950Y0172917D01*
X0184897Y0172434D02*
X0184897Y0174369D01*
X0185380Y0174852D01*
X0186348Y0174852D01*
X0186831Y0174369D01*
X0186831Y0173401D02*
X0185864Y0173401D01*
X0186831Y0173401D02*
X0186831Y0172434D01*
X0186348Y0171950D01*
X0185380Y0171950D01*
X0184897Y0172434D01*
X0187843Y0171950D02*
X0189294Y0171950D01*
X0189778Y0172434D01*
X0189778Y0174369D01*
X0189294Y0174852D01*
X0187843Y0174852D01*
X0187843Y0171950D01*
X0188044Y0185700D02*
X0188528Y0186184D01*
X0188044Y0185700D02*
X0187077Y0185700D01*
X0186593Y0186184D01*
X0186593Y0188119D01*
X0187077Y0188602D01*
X0188044Y0188602D01*
X0188528Y0188119D01*
X0185581Y0188119D02*
X0185098Y0188602D01*
X0184130Y0188602D01*
X0183647Y0188119D01*
X0183647Y0186184D01*
X0184130Y0185700D01*
X0185098Y0185700D01*
X0185581Y0186184D01*
X0185581Y0187151D01*
X0184614Y0187151D01*
X0182635Y0187151D02*
X0182151Y0186667D01*
X0180700Y0186667D01*
X0180700Y0185700D02*
X0180700Y0188602D01*
X0182151Y0188602D01*
X0182635Y0188119D01*
X0182635Y0187151D01*
X0146028Y0183352D02*
X0146028Y0180450D01*
X0144577Y0180450D01*
X0144093Y0180934D01*
X0144093Y0181901D01*
X0144577Y0182385D01*
X0146028Y0182385D01*
X0143081Y0181901D02*
X0143081Y0181417D01*
X0141147Y0181417D01*
X0141147Y0180934D02*
X0141147Y0181901D01*
X0141630Y0182385D01*
X0142598Y0182385D01*
X0143081Y0181901D01*
X0142598Y0180450D02*
X0141630Y0180450D01*
X0141147Y0180934D01*
X0140135Y0180450D02*
X0139167Y0181417D01*
X0139651Y0181417D02*
X0138200Y0181417D01*
X0138200Y0180450D02*
X0138200Y0183352D01*
X0139651Y0183352D01*
X0140135Y0182869D01*
X0140135Y0181901D01*
X0139651Y0181417D01*
D13*
X0064300Y0076800D02*
X0059300Y0076800D01*
X0056800Y0074300D01*
X0056800Y0049300D01*
X0059300Y0046800D01*
X0064300Y0046800D01*
X0066800Y0049300D01*
X0066800Y0074300D01*
X0064300Y0076800D01*
X0131800Y0014300D02*
X0131800Y0009300D01*
X0134300Y0004300D01*
X0141800Y0001800D01*
X0151800Y0001800D01*
X0159300Y0004300D01*
X0161800Y0009300D01*
X0161800Y0014300D01*
X0156800Y0019300D01*
X0151800Y0021800D01*
X0141800Y0021800D01*
X0136800Y0019300D01*
X0131800Y0014300D01*
X0166800Y0014300D02*
X0166800Y0009300D01*
X0171800Y0004300D01*
X0176800Y0001800D01*
X0186800Y0001800D01*
X0191800Y0004300D01*
X0196800Y0009300D01*
X0196800Y0014300D01*
X0194300Y0019300D01*
X0186800Y0021800D01*
X0176800Y0021800D01*
X0169300Y0019300D01*
X0166800Y0014300D01*
D14*
X0174300Y0011800D02*
X0179300Y0011800D01*
X0179300Y0014300D02*
X0184300Y0014300D01*
X0184300Y0011800D01*
X0186800Y0011800D01*
X0186523Y0006952D02*
X0186523Y0005050D01*
X0184947Y0005050D02*
X0183680Y0005050D01*
X0183680Y0006952D01*
X0184947Y0006952D01*
X0185890Y0006952D02*
X0187157Y0006952D01*
X0184314Y0006001D02*
X0183680Y0006001D01*
X0182737Y0005684D02*
X0182737Y0005367D01*
X0182421Y0005050D01*
X0181787Y0005050D01*
X0181470Y0005367D01*
X0181787Y0006001D02*
X0182421Y0006001D01*
X0182737Y0005684D01*
X0182737Y0006635D02*
X0182421Y0006952D01*
X0181787Y0006952D01*
X0181470Y0006635D01*
X0181470Y0006318D01*
X0181787Y0006001D01*
X0180528Y0006952D02*
X0179260Y0006952D01*
X0179260Y0005050D01*
X0180528Y0005050D01*
X0179894Y0006001D02*
X0179260Y0006001D01*
X0178318Y0006001D02*
X0178318Y0006635D01*
X0178001Y0006952D01*
X0177050Y0006952D01*
X0177050Y0005050D01*
X0177050Y0005684D02*
X0178001Y0005684D01*
X0178318Y0006001D01*
X0177684Y0005684D02*
X0178318Y0005050D01*
X0154300Y0011800D02*
X0149300Y0011800D01*
X0149300Y0009300D02*
X0144300Y0009300D01*
X0144300Y0011800D01*
X0141800Y0011800D01*
X0131108Y0005735D02*
X0131108Y0005101D01*
X0130791Y0004784D01*
X0129840Y0004784D01*
X0130474Y0004784D02*
X0131108Y0004150D01*
X0129840Y0004150D02*
X0129840Y0006052D01*
X0130791Y0006052D01*
X0131108Y0005735D01*
X0128898Y0006052D02*
X0127630Y0006052D01*
X0127630Y0004150D01*
X0128898Y0004150D01*
X0128264Y0005101D02*
X0127630Y0005101D01*
X0126688Y0004784D02*
X0126688Y0004467D01*
X0126371Y0004150D01*
X0125737Y0004150D01*
X0125420Y0004467D01*
X0125737Y0005101D02*
X0126371Y0005101D01*
X0126688Y0004784D01*
X0126688Y0005735D02*
X0126371Y0006052D01*
X0125737Y0006052D01*
X0125420Y0005735D01*
X0125420Y0005418D01*
X0125737Y0005101D01*
X0124478Y0004467D02*
X0124478Y0006052D01*
X0123210Y0006052D02*
X0123210Y0004467D01*
X0123527Y0004150D01*
X0124161Y0004150D01*
X0124478Y0004467D01*
X0104050Y0043026D02*
X0099546Y0043026D01*
X0099546Y0045278D01*
X0100297Y0046028D01*
X0101798Y0046028D01*
X0102549Y0045278D01*
X0102549Y0043026D01*
X0104050Y0047630D02*
X0104050Y0049131D01*
X0104050Y0048380D02*
X0099546Y0048380D01*
X0099546Y0047630D02*
X0099546Y0049131D01*
X0100297Y0050699D02*
X0103299Y0050699D01*
X0104050Y0051449D01*
X0104050Y0052951D01*
X0103299Y0053701D01*
X0103299Y0055303D02*
X0104050Y0056053D01*
X0104050Y0057555D01*
X0103299Y0058305D01*
X0102549Y0058305D01*
X0101798Y0057555D01*
X0101798Y0056804D01*
X0101798Y0057555D02*
X0101047Y0058305D01*
X0100297Y0058305D01*
X0099546Y0057555D01*
X0099546Y0056053D01*
X0100297Y0055303D01*
X0100297Y0053701D02*
X0099546Y0052951D01*
X0099546Y0051449D01*
X0100297Y0050699D01*
X0100297Y0059907D02*
X0099546Y0060657D01*
X0099546Y0062159D01*
X0100297Y0062909D01*
X0101047Y0062909D01*
X0104050Y0059907D01*
X0104050Y0062909D01*
X0104050Y0064511D02*
X0099546Y0064511D01*
X0101047Y0066012D01*
X0099546Y0067513D01*
X0104050Y0067513D01*
X0104050Y0069115D02*
X0099546Y0072117D01*
X0100297Y0073718D02*
X0099546Y0074469D01*
X0099546Y0075970D01*
X0100297Y0076721D01*
X0101047Y0076721D01*
X0104050Y0073718D01*
X0104050Y0076721D01*
X0103299Y0078322D02*
X0104050Y0079073D01*
X0104050Y0080574D01*
X0103299Y0081325D01*
X0101798Y0081325D01*
X0101047Y0080574D01*
X0101047Y0079824D01*
X0101798Y0078322D01*
X0099546Y0078322D01*
X0099546Y0081325D01*
X0100297Y0082926D02*
X0099546Y0083677D01*
X0099546Y0085178D01*
X0100297Y0085929D01*
X0103299Y0082926D01*
X0104050Y0083677D01*
X0104050Y0085178D01*
X0103299Y0085929D01*
X0100297Y0085929D01*
X0099546Y0087530D02*
X0099546Y0090533D01*
X0101047Y0092134D02*
X0099546Y0093635D01*
X0104050Y0093635D01*
X0104050Y0092134D02*
X0104050Y0095137D01*
X0104050Y0096738D02*
X0101047Y0099741D01*
X0100297Y0099741D01*
X0099546Y0098990D01*
X0099546Y0097489D01*
X0100297Y0096738D01*
X0104050Y0096738D02*
X0104050Y0099741D01*
X0103299Y0101342D02*
X0102549Y0101342D01*
X0101798Y0102093D01*
X0101798Y0103594D01*
X0102549Y0104345D01*
X0103299Y0104345D01*
X0104050Y0103594D01*
X0104050Y0102093D01*
X0103299Y0101342D01*
X0101798Y0102093D02*
X0101047Y0101342D01*
X0100297Y0101342D01*
X0099546Y0102093D01*
X0099546Y0103594D01*
X0100297Y0104345D01*
X0101047Y0104345D01*
X0101798Y0103594D01*
X0101798Y0105946D02*
X0101798Y0108198D01*
X0102549Y0108948D01*
X0103299Y0108948D01*
X0104050Y0108198D01*
X0104050Y0105946D01*
X0099546Y0105946D01*
X0099546Y0108198D01*
X0100297Y0108948D01*
X0101047Y0108948D01*
X0101798Y0108198D01*
X0101798Y0089032D02*
X0101798Y0087530D01*
X0104050Y0087530D02*
X0099546Y0087530D01*
X0100297Y0082926D02*
X0103299Y0082926D01*
X0104050Y0072117D02*
X0099546Y0069115D01*
X0123550Y0075550D02*
X0126553Y0075550D01*
X0125051Y0075550D02*
X0125051Y0080054D01*
X0123550Y0078553D01*
X0128154Y0079303D02*
X0128154Y0076301D01*
X0131156Y0079303D01*
X0131156Y0076301D01*
X0130406Y0075550D01*
X0128905Y0075550D01*
X0128154Y0076301D01*
X0128154Y0079303D02*
X0128905Y0080054D01*
X0130406Y0080054D01*
X0131156Y0079303D01*
X0132758Y0078553D02*
X0132758Y0076301D01*
X0133508Y0075550D01*
X0135760Y0075550D01*
X0135760Y0078553D01*
X0137362Y0077802D02*
X0138863Y0077802D01*
X0137362Y0075550D02*
X0137362Y0080054D01*
X0140364Y0080054D01*
X0160657Y0051554D02*
X0160657Y0047050D01*
X0159156Y0047050D02*
X0162158Y0047050D01*
X0163759Y0047801D02*
X0166762Y0050803D01*
X0166762Y0047801D01*
X0166011Y0047050D01*
X0164510Y0047050D01*
X0163759Y0047801D01*
X0163759Y0050803D01*
X0164510Y0051554D01*
X0166011Y0051554D01*
X0166762Y0050803D01*
X0168363Y0051554D02*
X0168363Y0047050D01*
X0168363Y0048551D02*
X0170615Y0050053D01*
X0168363Y0048551D02*
X0170615Y0047050D01*
X0171108Y0036554D02*
X0171108Y0032050D01*
X0171108Y0033551D02*
X0173360Y0035053D01*
X0171108Y0033551D02*
X0173360Y0032050D01*
X0169506Y0032801D02*
X0169506Y0035803D01*
X0166504Y0032801D01*
X0167255Y0032050D01*
X0168756Y0032050D01*
X0169506Y0032801D01*
X0169506Y0035803D02*
X0168756Y0036554D01*
X0167255Y0036554D01*
X0166504Y0035803D01*
X0166504Y0032801D01*
X0164903Y0032050D02*
X0161900Y0032050D01*
X0163401Y0032050D02*
X0163401Y0036554D01*
X0161900Y0035053D01*
X0159156Y0050053D02*
X0160657Y0051554D01*
X0149164Y0121050D02*
X0149164Y0125554D01*
X0152166Y0125554D01*
X0150665Y0123302D02*
X0149164Y0123302D01*
X0147562Y0124053D02*
X0147562Y0121050D01*
X0145310Y0121050D01*
X0144560Y0121801D01*
X0144560Y0124053D01*
X0142958Y0121050D02*
X0139956Y0121050D01*
X0141457Y0121050D02*
X0141457Y0125554D01*
X0139956Y0124053D01*
X0138405Y0121801D02*
X0138405Y0121050D01*
X0137654Y0121050D01*
X0137654Y0121801D01*
X0138405Y0121801D01*
X0136053Y0121801D02*
X0135302Y0121050D01*
X0133801Y0121050D01*
X0133050Y0121801D01*
X0136053Y0124803D01*
X0136053Y0121801D01*
X0133050Y0121801D02*
X0133050Y0124803D01*
X0133801Y0125554D01*
X0135302Y0125554D01*
X0136053Y0124803D01*
X0142651Y0154550D02*
X0141900Y0155301D01*
X0142651Y0154550D02*
X0144152Y0154550D01*
X0144903Y0155301D01*
X0144903Y0156051D01*
X0144152Y0156802D01*
X0143401Y0156802D01*
X0144152Y0156802D02*
X0144903Y0157553D01*
X0144903Y0158303D01*
X0144152Y0159054D01*
X0142651Y0159054D01*
X0141900Y0158303D01*
X0146504Y0158303D02*
X0147255Y0159054D01*
X0148756Y0159054D01*
X0149506Y0158303D01*
X0149506Y0157553D01*
X0148756Y0156802D01*
X0149506Y0156051D01*
X0149506Y0155301D01*
X0148756Y0154550D01*
X0147255Y0154550D01*
X0146504Y0155301D01*
X0148005Y0156802D02*
X0148756Y0156802D01*
X0151108Y0158303D02*
X0151858Y0159054D01*
X0153360Y0159054D01*
X0154110Y0158303D01*
X0151108Y0155301D01*
X0151858Y0154550D01*
X0153360Y0154550D01*
X0154110Y0155301D01*
X0154110Y0158303D01*
X0151108Y0158303D02*
X0151108Y0155301D01*
X0184300Y0141800D02*
X0184769Y0142160D01*
X0185229Y0142532D01*
X0185680Y0142914D01*
X0186122Y0143306D01*
X0186555Y0143709D01*
X0186978Y0144122D01*
X0187391Y0144545D01*
X0187794Y0144978D01*
X0188186Y0145420D01*
X0188568Y0145871D01*
X0188940Y0146331D01*
X0189300Y0146800D01*
X0184300Y0151800D02*
X0184300Y0141800D01*
X0189300Y0146800D02*
X0188831Y0147160D01*
X0188371Y0147532D01*
X0187920Y0147914D01*
X0187478Y0148306D01*
X0187045Y0148709D01*
X0186622Y0149122D01*
X0186209Y0149545D01*
X0185806Y0149978D01*
X0185414Y0150420D01*
X0185032Y0150871D01*
X0184660Y0151331D01*
X0184300Y0151800D01*
X0183508Y0190550D02*
X0185760Y0190550D01*
X0185760Y0193553D01*
X0187362Y0192802D02*
X0188863Y0192802D01*
X0187362Y0190550D02*
X0187362Y0195054D01*
X0190364Y0195054D01*
X0183508Y0190550D02*
X0182758Y0191301D01*
X0182758Y0193553D01*
X0181156Y0194303D02*
X0178154Y0191301D01*
X0178905Y0190550D01*
X0180406Y0190550D01*
X0181156Y0191301D01*
X0181156Y0194303D01*
X0180406Y0195054D01*
X0178905Y0195054D01*
X0178154Y0194303D01*
X0178154Y0191301D01*
X0176553Y0190550D02*
X0173550Y0190550D01*
X0175051Y0190550D02*
X0175051Y0195054D01*
X0173550Y0193553D01*
X0160176Y0195053D02*
X0160176Y0195803D01*
X0159425Y0196554D01*
X0157924Y0196554D01*
X0157174Y0195803D01*
X0155572Y0195803D02*
X0152570Y0192801D01*
X0153320Y0192050D01*
X0154822Y0192050D01*
X0155572Y0192801D01*
X0155572Y0195803D01*
X0154822Y0196554D01*
X0153320Y0196554D01*
X0152570Y0195803D01*
X0152570Y0192801D01*
X0150968Y0195803D02*
X0147966Y0192801D01*
X0147966Y0192050D01*
X0146364Y0192050D02*
X0143362Y0192050D01*
X0144863Y0192050D02*
X0144863Y0196554D01*
X0143362Y0195053D01*
X0141760Y0195803D02*
X0141760Y0194302D01*
X0141010Y0193551D01*
X0138758Y0193551D01*
X0138758Y0192050D02*
X0138758Y0196554D01*
X0141010Y0196554D01*
X0141760Y0195803D01*
X0137156Y0195803D02*
X0136406Y0196554D01*
X0134905Y0196554D01*
X0134154Y0195803D01*
X0134154Y0192801D01*
X0134905Y0192050D01*
X0136406Y0192050D01*
X0137156Y0192801D01*
X0132553Y0192050D02*
X0132553Y0196554D01*
X0131051Y0195053D01*
X0129550Y0196554D01*
X0129550Y0192050D01*
X0127252Y0185800D02*
X0125673Y0185800D01*
X0125046Y0180300D02*
X0108554Y0180300D01*
X0110414Y0178054D02*
X0113416Y0178054D01*
X0115550Y0177303D02*
X0116301Y0178054D01*
X0117802Y0178054D01*
X0118553Y0177303D01*
X0115550Y0174301D01*
X0116301Y0173550D01*
X0117802Y0173550D01*
X0118553Y0174301D01*
X0118553Y0177303D01*
X0115550Y0177303D02*
X0115550Y0174301D01*
X0111915Y0175802D02*
X0110414Y0175802D01*
X0108812Y0176553D02*
X0108812Y0173550D01*
X0106560Y0173550D01*
X0105810Y0174301D01*
X0105810Y0176553D01*
X0104208Y0173550D02*
X0101206Y0173550D01*
X0102707Y0173550D02*
X0102707Y0178054D01*
X0101206Y0176553D01*
X0099655Y0174301D02*
X0099655Y0173550D01*
X0098904Y0173550D01*
X0098904Y0174301D01*
X0099655Y0174301D01*
X0097303Y0174301D02*
X0096552Y0173550D01*
X0095051Y0173550D01*
X0094300Y0174301D01*
X0097303Y0177303D01*
X0097303Y0174301D01*
X0097303Y0177303D02*
X0096552Y0178054D01*
X0095051Y0178054D01*
X0094300Y0177303D01*
X0094300Y0174301D01*
X0083729Y0178335D02*
X0083729Y0195265D01*
X0049871Y0195265D01*
X0049871Y0178335D01*
X0083729Y0178335D01*
X0074674Y0178926D02*
X0074674Y0171052D01*
X0066800Y0171052D01*
X0066800Y0178926D01*
X0106348Y0185800D02*
X0107927Y0185800D01*
X0115673Y0185800D02*
X0117927Y0185800D01*
X0108554Y0180300D02*
X0108401Y0180499D01*
X0108253Y0180701D01*
X0108110Y0180906D01*
X0107972Y0181115D01*
X0107839Y0181327D01*
X0107711Y0181542D01*
X0107589Y0181760D01*
X0107471Y0181981D01*
X0107359Y0182205D01*
X0107252Y0182431D01*
X0107151Y0182660D01*
X0107055Y0182891D01*
X0106964Y0183125D01*
X0106879Y0183360D01*
X0106800Y0183598D01*
X0106727Y0183837D01*
X0106659Y0184078D01*
X0106597Y0184320D01*
X0106541Y0184564D01*
X0106490Y0184810D01*
X0106446Y0185056D01*
X0106407Y0185303D01*
X0106375Y0185551D01*
X0106348Y0185800D01*
X0110414Y0178054D02*
X0110414Y0173550D01*
X0120154Y0173550D02*
X0120905Y0173550D01*
X0120905Y0174301D01*
X0120154Y0174301D01*
X0120154Y0173550D01*
X0122456Y0173550D02*
X0125458Y0173550D01*
X0123957Y0173550D02*
X0123957Y0178054D01*
X0122456Y0176553D01*
X0127060Y0176553D02*
X0127060Y0174301D01*
X0127810Y0173550D01*
X0130062Y0173550D01*
X0130062Y0176553D01*
X0131664Y0175802D02*
X0133165Y0175802D01*
X0131664Y0173550D02*
X0131664Y0178054D01*
X0134666Y0178054D01*
X0125046Y0180300D02*
X0125201Y0180502D01*
X0125351Y0180707D01*
X0125497Y0180916D01*
X0125637Y0181129D01*
X0125772Y0181345D01*
X0125901Y0181564D01*
X0126025Y0181786D01*
X0126144Y0182011D01*
X0126257Y0182239D01*
X0126365Y0182469D01*
X0126467Y0182702D01*
X0126564Y0182938D01*
X0126655Y0183176D01*
X0126740Y0183415D01*
X0126819Y0183657D01*
X0126892Y0183901D01*
X0126959Y0184146D01*
X0127021Y0184393D01*
X0127076Y0184642D01*
X0127125Y0184892D01*
X0127168Y0185142D01*
X0127205Y0185394D01*
X0127236Y0185647D01*
X0127261Y0185900D01*
X0127280Y0186154D01*
X0127293Y0186408D01*
X0127299Y0186662D01*
X0127299Y0186917D01*
X0127293Y0187171D01*
X0127281Y0187426D01*
X0127263Y0187679D01*
X0127239Y0187933D01*
X0127208Y0188185D01*
X0127172Y0188437D01*
X0127129Y0188688D01*
X0127080Y0188938D01*
X0127025Y0189186D01*
X0126964Y0189433D01*
X0126898Y0189679D01*
X0126825Y0189923D01*
X0126746Y0190165D01*
X0126662Y0190405D01*
X0126571Y0190643D01*
X0126475Y0190879D01*
X0126374Y0191112D01*
X0126266Y0191343D01*
X0126154Y0191571D01*
X0126035Y0191796D01*
X0125911Y0192018D01*
X0125782Y0192238D01*
X0125648Y0192454D01*
X0125508Y0192667D01*
X0125363Y0192876D01*
X0125214Y0193082D01*
X0125059Y0193284D01*
X0124899Y0193482D01*
X0124735Y0193676D01*
X0124566Y0193867D01*
X0124393Y0194053D01*
X0124215Y0194235D01*
X0124032Y0194412D01*
X0123846Y0194585D01*
X0123655Y0194754D01*
X0123460Y0194918D01*
X0123261Y0195077D01*
X0123059Y0195231D01*
X0122853Y0195380D01*
X0122643Y0195524D01*
X0122430Y0195663D01*
X0122213Y0195797D01*
X0121994Y0195926D01*
X0121771Y0196049D01*
X0121545Y0196166D01*
X0121317Y0196279D01*
X0121086Y0196385D01*
X0120852Y0196486D01*
X0120616Y0196582D01*
X0120378Y0196671D01*
X0120138Y0196755D01*
X0119896Y0196833D01*
X0113704Y0196833D02*
X0113460Y0196755D01*
X0113218Y0196670D01*
X0112979Y0196580D01*
X0112741Y0196484D01*
X0112506Y0196382D01*
X0112273Y0196274D01*
X0112043Y0196161D01*
X0111816Y0196042D01*
X0111592Y0195918D01*
X0111371Y0195788D01*
X0111154Y0195653D01*
X0110939Y0195512D01*
X0110728Y0195366D01*
X0110521Y0195216D01*
X0110318Y0195060D01*
X0110118Y0194899D01*
X0109922Y0194734D01*
X0109731Y0194564D01*
X0109543Y0194389D01*
X0109360Y0194209D01*
X0109182Y0194026D01*
X0109007Y0193837D01*
X0108838Y0193645D01*
X0108673Y0193449D01*
X0108513Y0193248D01*
X0108359Y0193044D01*
X0108209Y0192836D01*
X0108064Y0192625D01*
X0107924Y0192410D01*
X0107790Y0192192D01*
X0107661Y0191970D01*
X0107538Y0191746D01*
X0107420Y0191518D01*
X0107307Y0191288D01*
X0107201Y0191055D01*
X0107100Y0190819D01*
X0107004Y0190581D01*
X0106915Y0190341D01*
X0106832Y0190099D01*
X0106754Y0189854D01*
X0106683Y0189608D01*
X0106617Y0189360D01*
X0106558Y0189111D01*
X0106504Y0188861D01*
X0106457Y0188609D01*
X0106416Y0188356D01*
X0106381Y0188102D01*
X0106352Y0187847D01*
X0106330Y0187592D01*
X0106314Y0187336D01*
X0106304Y0187080D01*
X0106300Y0186824D01*
X0106303Y0186567D01*
X0106311Y0186311D01*
X0106326Y0186055D01*
X0106348Y0185800D01*
X0147966Y0196554D02*
X0150968Y0196554D01*
X0150968Y0195803D01*
X0157174Y0192050D02*
X0160176Y0195053D01*
X0160176Y0192050D02*
X0157174Y0192050D01*
X0069450Y0076108D02*
X0069450Y0074840D01*
X0069133Y0074840D01*
X0067865Y0076108D01*
X0067548Y0076108D01*
X0067548Y0074840D01*
X0067548Y0073898D02*
X0069450Y0073898D01*
X0068499Y0073898D02*
X0068499Y0072630D01*
X0069450Y0072630D02*
X0067548Y0072630D01*
X0067548Y0071688D02*
X0069450Y0071688D01*
X0069450Y0070420D02*
X0067548Y0070420D01*
X0068182Y0071054D01*
X0067548Y0071688D01*
X0067865Y0069478D02*
X0068182Y0069478D01*
X0068499Y0069161D01*
X0068499Y0068527D01*
X0068182Y0068210D01*
X0067865Y0068210D01*
X0067548Y0068527D01*
X0067548Y0069161D01*
X0067865Y0069478D01*
X0068499Y0069161D02*
X0068816Y0069478D01*
X0069133Y0069478D01*
X0069450Y0069161D01*
X0069450Y0068527D01*
X0069133Y0068210D01*
X0068816Y0068210D01*
X0068499Y0068527D01*
X0055950Y0068210D02*
X0054682Y0068210D01*
X0054048Y0068844D01*
X0054682Y0069478D01*
X0055950Y0069478D01*
X0054999Y0069478D02*
X0054999Y0068210D01*
X0055950Y0067268D02*
X0055950Y0066001D01*
X0054048Y0066001D01*
X0055950Y0065058D02*
X0055950Y0063791D01*
X0054048Y0063791D01*
X0054048Y0062951D02*
X0054048Y0062317D01*
X0054048Y0062634D02*
X0055950Y0062634D01*
X0055950Y0062317D02*
X0055950Y0062951D01*
X0055633Y0061375D02*
X0055950Y0061058D01*
X0055950Y0060424D01*
X0055633Y0060108D01*
X0054365Y0060108D01*
X0054048Y0060424D01*
X0054048Y0061058D01*
X0054365Y0061375D01*
X0054365Y0059165D02*
X0054048Y0058848D01*
X0054048Y0058215D01*
X0054365Y0057898D01*
X0054682Y0057898D01*
X0054999Y0058215D01*
X0054999Y0058848D01*
X0055316Y0059165D01*
X0055633Y0059165D01*
X0055950Y0058848D01*
X0055950Y0058215D01*
X0055633Y0057898D01*
X0055633Y0056955D02*
X0054365Y0056955D01*
X0054048Y0056639D01*
X0054048Y0056005D01*
X0054365Y0055688D01*
X0055633Y0055688D01*
X0055950Y0056005D01*
X0055950Y0056639D01*
X0055633Y0056955D01*
X0054048Y0070420D02*
X0054048Y0071688D01*
X0054048Y0071054D02*
X0055950Y0071054D01*
X0055633Y0072630D02*
X0055950Y0072947D01*
X0055950Y0073581D01*
X0055633Y0073898D01*
X0054365Y0073898D01*
X0054048Y0073581D01*
X0054048Y0072947D01*
X0054365Y0072630D01*
X0055633Y0072630D01*
X0055316Y0074840D02*
X0055316Y0075791D01*
X0054999Y0076108D01*
X0054365Y0076108D01*
X0054048Y0075791D01*
X0054048Y0074840D01*
X0055950Y0074840D01*
X0055316Y0075474D02*
X0055950Y0076108D01*
X0035360Y0058303D02*
X0035360Y0055301D01*
X0034610Y0054550D01*
X0033108Y0054550D01*
X0032358Y0055301D01*
X0035360Y0058303D01*
X0034610Y0059054D01*
X0033108Y0059054D01*
X0032358Y0058303D01*
X0032358Y0055301D01*
X0030756Y0055301D02*
X0030006Y0054550D01*
X0028505Y0054550D01*
X0027754Y0055301D01*
X0026153Y0055301D02*
X0025402Y0054550D01*
X0023901Y0054550D01*
X0023150Y0055301D01*
X0024651Y0056802D02*
X0025402Y0056802D01*
X0026153Y0056051D01*
X0026153Y0055301D01*
X0025402Y0056802D02*
X0026153Y0057553D01*
X0026153Y0058303D01*
X0025402Y0059054D01*
X0023901Y0059054D01*
X0023150Y0058303D01*
X0027754Y0058303D02*
X0028505Y0059054D01*
X0030006Y0059054D01*
X0030756Y0058303D01*
X0030756Y0057553D01*
X0030006Y0056802D01*
X0030756Y0056051D01*
X0030756Y0055301D01*
X0030006Y0056802D02*
X0029255Y0056802D01*
X0068046Y0037166D02*
X0068046Y0034164D01*
X0072550Y0034164D01*
X0072550Y0032562D02*
X0069547Y0032562D01*
X0070298Y0034164D02*
X0070298Y0035665D01*
X0072550Y0032562D02*
X0072550Y0030310D01*
X0071799Y0029560D01*
X0069547Y0029560D01*
X0068046Y0026457D02*
X0072550Y0026457D01*
X0072550Y0024956D02*
X0072550Y0027958D01*
X0069547Y0024956D02*
X0068046Y0026457D01*
X0071799Y0023405D02*
X0072550Y0023405D01*
X0072550Y0022654D01*
X0071799Y0022654D01*
X0071799Y0023405D01*
X0071799Y0021053D02*
X0068797Y0021053D01*
X0071799Y0018050D01*
X0072550Y0018801D01*
X0072550Y0020302D01*
X0071799Y0021053D01*
X0068797Y0021053D02*
X0068046Y0020302D01*
X0068046Y0018801D01*
X0068797Y0018050D01*
X0071799Y0018050D01*
X0027949Y0015802D02*
X0027949Y0013550D01*
X0027949Y0015802D02*
X0027198Y0016553D01*
X0024946Y0016553D01*
X0024946Y0013550D01*
X0023345Y0015051D02*
X0020342Y0015051D01*
X0020342Y0014301D02*
X0020342Y0015802D01*
X0021093Y0016553D01*
X0022594Y0016553D01*
X0023345Y0015802D01*
X0023345Y0015051D01*
X0022594Y0013550D02*
X0021093Y0013550D01*
X0020342Y0014301D01*
X0018741Y0015051D02*
X0015738Y0015051D01*
X0015738Y0014301D02*
X0015738Y0015802D01*
X0016489Y0016553D01*
X0017990Y0016553D01*
X0018741Y0015802D01*
X0018741Y0015051D01*
X0017990Y0013550D02*
X0016489Y0013550D01*
X0015738Y0014301D01*
X0014153Y0016553D02*
X0013403Y0016553D01*
X0011902Y0015051D01*
X0011902Y0013550D02*
X0011902Y0016553D01*
X0010300Y0017303D02*
X0009550Y0018054D01*
X0008048Y0018054D01*
X0007298Y0017303D01*
X0007298Y0014301D01*
X0008048Y0013550D01*
X0009550Y0013550D01*
X0010300Y0014301D01*
X0010300Y0015802D01*
X0008799Y0015802D01*
D15*
X0026800Y0023800D02*
X0026992Y0023802D01*
X0027184Y0023809D01*
X0027376Y0023821D01*
X0027568Y0023837D01*
X0027759Y0023858D01*
X0027949Y0023883D01*
X0028139Y0023913D01*
X0028328Y0023947D01*
X0028516Y0023986D01*
X0028703Y0024030D01*
X0028889Y0024078D01*
X0029074Y0024130D01*
X0029258Y0024187D01*
X0029440Y0024248D01*
X0029620Y0024314D01*
X0029799Y0024384D01*
X0029977Y0024458D01*
X0030152Y0024536D01*
X0030326Y0024619D01*
X0030497Y0024706D01*
X0030666Y0024796D01*
X0030833Y0024891D01*
X0030998Y0024990D01*
X0031161Y0025093D01*
X0031320Y0025200D01*
X0031478Y0025310D01*
X0031632Y0025424D01*
X0031784Y0025542D01*
X0031933Y0025664D01*
X0032079Y0025789D01*
X0032221Y0025917D01*
X0032361Y0026049D01*
X0032498Y0026184D01*
X0032631Y0026323D01*
X0032761Y0026464D01*
X0032887Y0026609D01*
X0033010Y0026757D01*
X0033129Y0026907D01*
X0033245Y0027061D01*
X0033357Y0027217D01*
X0033465Y0027376D01*
X0033570Y0027537D01*
X0033670Y0027701D01*
X0033766Y0027867D01*
X0033859Y0028035D01*
X0033746Y0035769D02*
X0033647Y0035938D01*
X0033543Y0036104D01*
X0033436Y0036268D01*
X0033325Y0036429D01*
X0033210Y0036587D01*
X0033091Y0036742D01*
X0032968Y0036895D01*
X0032842Y0037044D01*
X0032712Y0037190D01*
X0032578Y0037333D01*
X0032441Y0037473D01*
X0032301Y0037609D01*
X0032157Y0037742D01*
X0032010Y0037871D01*
X0031860Y0037997D01*
X0031707Y0038118D01*
X0031551Y0038237D01*
X0031392Y0038351D01*
X0031231Y0038461D01*
X0031066Y0038567D01*
X0030900Y0038670D01*
X0030730Y0038768D01*
X0030559Y0038862D01*
X0030385Y0038952D01*
X0030209Y0039037D01*
X0030031Y0039119D01*
X0029851Y0039195D01*
X0029669Y0039268D01*
X0029486Y0039336D01*
X0029301Y0039399D01*
X0029114Y0039458D01*
X0028926Y0039512D01*
X0028737Y0039562D01*
X0028547Y0039607D01*
X0028355Y0039647D01*
X0028163Y0039683D01*
X0027970Y0039714D01*
X0027776Y0039740D01*
X0027581Y0039762D01*
X0027386Y0039778D01*
X0027191Y0039790D01*
X0026995Y0039798D01*
X0026800Y0039800D01*
X0026607Y0039798D01*
X0026414Y0039791D01*
X0026222Y0039779D01*
X0026029Y0039763D01*
X0025837Y0039742D01*
X0025646Y0039716D01*
X0025456Y0039686D01*
X0025266Y0039651D01*
X0025077Y0039612D01*
X0024889Y0039568D01*
X0024702Y0039520D01*
X0024516Y0039467D01*
X0024332Y0039410D01*
X0024149Y0039348D01*
X0023968Y0039282D01*
X0023788Y0039211D01*
X0023610Y0039137D01*
X0023434Y0039058D01*
X0023260Y0038974D01*
X0023088Y0038887D01*
X0022918Y0038795D01*
X0022751Y0038699D01*
X0022585Y0038600D01*
X0022422Y0038496D01*
X0022262Y0038389D01*
X0022105Y0038277D01*
X0021950Y0038162D01*
X0021798Y0038043D01*
X0021649Y0037921D01*
X0021502Y0037795D01*
X0021359Y0037665D01*
X0021219Y0037532D01*
X0021083Y0037396D01*
X0020949Y0037256D01*
X0020820Y0037114D01*
X0020693Y0036968D01*
X0020654Y0026678D02*
X0020781Y0026530D01*
X0020911Y0026385D01*
X0021044Y0026244D01*
X0021181Y0026105D01*
X0021321Y0025970D01*
X0021465Y0025839D01*
X0021612Y0025711D01*
X0021761Y0025586D01*
X0021914Y0025465D01*
X0022069Y0025348D01*
X0022228Y0025235D01*
X0022389Y0025126D01*
X0022553Y0025021D01*
X0022719Y0024919D01*
X0022888Y0024822D01*
X0023058Y0024729D01*
X0023232Y0024640D01*
X0023407Y0024555D01*
X0023584Y0024475D01*
X0023763Y0024399D01*
X0023944Y0024327D01*
X0024127Y0024260D01*
X0024311Y0024197D01*
X0024497Y0024139D01*
X0024684Y0024085D01*
X0024872Y0024036D01*
X0025062Y0023991D01*
X0025252Y0023951D01*
X0025444Y0023916D01*
X0025636Y0023885D01*
X0025829Y0023859D01*
X0026023Y0023838D01*
X0026217Y0023821D01*
X0026411Y0023809D01*
X0026605Y0023802D01*
X0026800Y0023800D01*
X0058800Y0025800D02*
X0061800Y0025800D01*
X0064800Y0025800D01*
X0064800Y0027800D02*
X0061800Y0027800D01*
X0058800Y0027800D01*
X0133800Y0135800D02*
X0136800Y0135800D01*
X0139800Y0135800D01*
X0139800Y0137800D02*
X0136800Y0137800D01*
X0133800Y0137800D01*
X0122800Y0163800D02*
X0122800Y0166800D01*
X0122800Y0169800D01*
X0120800Y0169800D02*
X0120800Y0166800D01*
X0120800Y0163800D01*
X0102800Y0163800D02*
X0102800Y0166800D01*
X0102800Y0169800D01*
X0100800Y0169800D02*
X0100800Y0166800D01*
X0100800Y0163800D01*
X0145565Y0178859D02*
X0145733Y0178766D01*
X0145899Y0178670D01*
X0146063Y0178570D01*
X0146224Y0178465D01*
X0146383Y0178357D01*
X0146539Y0178245D01*
X0146693Y0178129D01*
X0146843Y0178010D01*
X0146991Y0177887D01*
X0147136Y0177761D01*
X0147277Y0177631D01*
X0147416Y0177498D01*
X0147551Y0177361D01*
X0147683Y0177221D01*
X0147811Y0177079D01*
X0147936Y0176933D01*
X0148058Y0176784D01*
X0148176Y0176632D01*
X0148290Y0176478D01*
X0148400Y0176320D01*
X0148507Y0176161D01*
X0148610Y0175998D01*
X0148709Y0175833D01*
X0148804Y0175666D01*
X0148894Y0175497D01*
X0148981Y0175326D01*
X0149064Y0175152D01*
X0149142Y0174977D01*
X0149216Y0174799D01*
X0149286Y0174620D01*
X0149352Y0174440D01*
X0149413Y0174258D01*
X0149470Y0174074D01*
X0149522Y0173889D01*
X0149570Y0173703D01*
X0149614Y0173516D01*
X0149653Y0173328D01*
X0149687Y0173139D01*
X0149717Y0172949D01*
X0149742Y0172759D01*
X0149763Y0172568D01*
X0149779Y0172376D01*
X0149791Y0172184D01*
X0149798Y0171992D01*
X0149800Y0171800D01*
X0137831Y0178746D02*
X0137662Y0178647D01*
X0137496Y0178543D01*
X0137332Y0178436D01*
X0137171Y0178325D01*
X0137013Y0178210D01*
X0136858Y0178091D01*
X0136705Y0177968D01*
X0136556Y0177842D01*
X0136410Y0177712D01*
X0136267Y0177578D01*
X0136127Y0177441D01*
X0135991Y0177301D01*
X0135858Y0177157D01*
X0135729Y0177010D01*
X0135603Y0176860D01*
X0135482Y0176707D01*
X0135363Y0176551D01*
X0135249Y0176392D01*
X0135139Y0176231D01*
X0135033Y0176066D01*
X0134930Y0175900D01*
X0134832Y0175730D01*
X0134738Y0175559D01*
X0134648Y0175385D01*
X0134563Y0175209D01*
X0134481Y0175031D01*
X0134405Y0174851D01*
X0134332Y0174669D01*
X0134264Y0174486D01*
X0134201Y0174301D01*
X0134142Y0174114D01*
X0134088Y0173926D01*
X0134038Y0173737D01*
X0133993Y0173547D01*
X0133953Y0173355D01*
X0133917Y0173163D01*
X0133886Y0172970D01*
X0133860Y0172776D01*
X0133838Y0172581D01*
X0133822Y0172386D01*
X0133810Y0172191D01*
X0133802Y0171995D01*
X0133800Y0171800D01*
X0133802Y0171607D01*
X0133809Y0171414D01*
X0133821Y0171222D01*
X0133837Y0171029D01*
X0133858Y0170837D01*
X0133884Y0170646D01*
X0133914Y0170456D01*
X0133949Y0170266D01*
X0133988Y0170077D01*
X0134032Y0169889D01*
X0134080Y0169702D01*
X0134133Y0169516D01*
X0134190Y0169332D01*
X0134252Y0169149D01*
X0134318Y0168968D01*
X0134389Y0168788D01*
X0134463Y0168610D01*
X0134542Y0168434D01*
X0134626Y0168260D01*
X0134713Y0168088D01*
X0134805Y0167918D01*
X0134901Y0167751D01*
X0135000Y0167585D01*
X0135104Y0167422D01*
X0135211Y0167262D01*
X0135323Y0167105D01*
X0135438Y0166950D01*
X0135557Y0166798D01*
X0135679Y0166649D01*
X0135805Y0166502D01*
X0135935Y0166359D01*
X0136068Y0166219D01*
X0136204Y0166083D01*
X0136344Y0165949D01*
X0136486Y0165820D01*
X0136632Y0165693D01*
X0146922Y0165654D02*
X0147070Y0165781D01*
X0147215Y0165911D01*
X0147356Y0166044D01*
X0147495Y0166181D01*
X0147630Y0166321D01*
X0147761Y0166465D01*
X0147889Y0166612D01*
X0148014Y0166761D01*
X0148135Y0166914D01*
X0148252Y0167069D01*
X0148365Y0167228D01*
X0148474Y0167389D01*
X0148579Y0167553D01*
X0148681Y0167719D01*
X0148778Y0167888D01*
X0148871Y0168058D01*
X0148960Y0168232D01*
X0149045Y0168407D01*
X0149125Y0168584D01*
X0149201Y0168763D01*
X0149273Y0168944D01*
X0149340Y0169127D01*
X0149403Y0169311D01*
X0149461Y0169497D01*
X0149515Y0169684D01*
X0149564Y0169872D01*
X0149609Y0170062D01*
X0149649Y0170252D01*
X0149684Y0170444D01*
X0149715Y0170636D01*
X0149741Y0170829D01*
X0149762Y0171023D01*
X0149779Y0171217D01*
X0149791Y0171411D01*
X0149798Y0171605D01*
X0149800Y0171800D01*
D16*
X0143800Y0061800D03*
D17*
X0161800Y0174800D03*
D18*
X0161000Y0156800D03*
X0132600Y0156800D03*
X0041000Y0046800D03*
X0012600Y0046800D03*
X0152600Y0041800D03*
X0152600Y0026800D03*
X0181000Y0026800D03*
X0181000Y0041800D03*
D19*
X0065572Y0172000D02*
X0062503Y0172000D01*
X0062503Y0176604D01*
X0065572Y0176604D01*
X0064038Y0174302D02*
X0062503Y0174302D01*
X0060968Y0172767D02*
X0060968Y0175837D01*
X0060201Y0176604D01*
X0057899Y0176604D01*
X0057899Y0172000D01*
X0060201Y0172000D01*
X0060968Y0172767D01*
X0056365Y0172000D02*
X0054830Y0172000D01*
X0055597Y0172000D02*
X0055597Y0176604D01*
X0054830Y0176604D02*
X0056365Y0176604D01*
X0053295Y0172000D02*
X0050226Y0172000D01*
X0050226Y0176604D01*
X0048691Y0175837D02*
X0047924Y0176604D01*
X0046389Y0176604D01*
X0045622Y0175837D01*
X0045622Y0175069D01*
X0046389Y0174302D01*
X0047924Y0174302D01*
X0048691Y0173535D01*
X0048691Y0172767D01*
X0047924Y0172000D01*
X0046389Y0172000D01*
X0045622Y0172767D01*
M02*
